<svg width="408" height="55" viewBox="0 0 408 55" fill="none" xmlns="http://www.w3.org/2000/svg">
<g clip-path="url(#clip0_6070_5486)">
<path d="M216.144 49.5635L215.743 47.3561C215.277 44.7884 215.563 43.426 215.207 40.6887C215.118 39.7632 214.185 37.3065 212.445 36.1872L211.554 35.6119L212.802 34.7286C214.569 33.478 215.007 32.0062 215.52 29.9168C215.95 28.1597 215.958 27.0247 215.476 25.2817C214.795 22.8195 213.854 21.1342 211.528 20.0329C210.095 19.3529 209.133 19.1879 207.543 19.1879H191.635V50.6688H198.052V38.4821H205.761C206.608 38.4821 207.275 38.7885 207.766 39.3208C209.103 40.7332 209.326 42.1457 209.46 44.221C209.593 46.3408 209.452 47.6946 210.084 49.7863L210.35 50.6695H216.455L216.144 49.5635ZM209.282 29.5643C209.059 31.8608 207.676 33.0262 205.717 33.1396L204.2 33.2294H198.052V24.7509H205.761C207.588 24.9284 208.879 25.4575 209.282 28.0182C209.326 28.4598 209.326 29.0343 209.282 29.5643ZM406.478 28.606V27.8791C406.478 22.0464 401.177 18.4274 394.76 18.4845C388.988 18.4845 383.745 22.1801 383.921 28.5755C384.008 32.0961 386.439 34.5379 389.486 35.7315C397.219 38.8127 400.912 37.4746 401.178 42.0996C401.352 45.1535 397.601 45.9101 395.61 45.7327C392.916 45.5021 390.499 44.7407 389.664 42.1855C389.472 41.6071 389.397 41.2554 389.397 40.6457V40.2072H382.982V41.1413C382.982 47.8845 389.211 51.6114 395.579 51.4637C401.706 51.3183 407.8 48.0323 407.535 41.3429C407.037 28.4903 389.074 33.811 390.189 26.8309C390.95 21.9745 400.504 23.3135 400.209 27.7337C400.209 27.9369 400.312 28.0151 400.298 28.198L400.268 28.606H406.478ZM343.726 29.916H349.92L349.786 29.1211C349.52 27.5312 349.074 24.8377 345.911 21.5274C343.547 19.0558 340.901 18.4634 337.353 18.4821C334.28 18.4977 332.413 19.0762 329.776 20.6449C324.579 23.7426 323.271 28.7248 323.092 34.5512C322.871 42.764 327.195 51.4168 336.465 51.5942C342.969 51.6818 348.693 47.9127 349.831 41.5266C349.998 40.5926 350.038 40.0454 349.964 39.0988L349.921 38.5251H343.68V39.4975C343.68 42.9531 340.654 45.8538 337.264 45.6764C332.363 45.3676 330.671 42.5428 329.645 38.7463C329.244 37.2885 329.286 36.0832 329.332 34.3761C329.382 32.5596 329.776 30.8001 330.137 29.7847C331.295 26.5174 333.933 24.1569 337.533 24.3085C339.922 24.4101 341.555 25.3559 342.836 27.3569C343.408 28.248 343.569 28.8702 343.727 29.916M354.6 19.1879H361.062V31.681H372.825V19.1887H379.245V50.8868H372.825V37.3331H361.062V50.8868H354.6V19.1879ZM293.772 19.1879H300.191V37.3323L300.323 39.9836C300.422 41.9284 301.059 43.2978 302.684 44.3984C303.872 45.1988 304.815 45.2824 306.25 45.3246C307.856 45.3715 308.968 45.3442 310.261 44.3984C311.806 43.2666 312.356 41.8815 312.356 39.9836V19.1887H318.817V39.3654L318.684 41.2632C318.329 46.2712 314.946 49.6198 310.038 50.8868C308.635 51.2511 307.789 51.2831 306.339 51.2855C304.804 51.2894 303.901 51.3629 302.417 50.9759C297.54 49.7058 294.792 46.2274 293.949 41.307C293.826 40.5761 293.772 40.1517 293.772 39.4091V19.1879ZM269.709 19.1879H290.341V25.0159H276.169V31.7709H288.513V37.3323H276.169V50.6672H269.708L269.709 19.1879ZM266.143 37.0681H257.053V28.0635H252.462V37.0689H243.328V41.6165H252.462V50.668H257.052V41.6165H266.144L266.143 37.0681ZM220.912 19.1879H227.373V44.8822H241.544V50.6664H220.912V19.1879ZM164.985 19.2348H186.865V25.019H171.446V31.8162H185.618V37.3362H171.446V44.9291H186.865V50.7133H164.984L164.985 19.2348ZM83.8364 19.1919H105.717V24.9745H90.2975V31.7732H104.468V37.2909H90.2975V44.8846H105.717V50.6688H83.8364V19.1919ZM160.887 29.4306C160.977 25.3684 158.746 20.3792 153.712 19.3193C153.222 19.2317 152.761 19.2317 152.152 19.2317H137.625V50.6664H144.13V39.4091H151.528L152.822 39.3216C157.897 38.9745 160.797 34.0658 160.887 29.4306ZM154.603 29.4314C154.563 31.5387 153.443 33.6406 151.395 33.8008L150.28 33.8915H144.13V24.7509H150.504C150.853 24.7509 151.083 24.8392 151.395 24.8392C153.623 25.0597 154.645 27.2538 154.603 29.4314ZM133.748 29.4306C133.838 25.3684 131.608 20.3792 126.574 19.3193C126.084 19.2317 125.623 19.2317 125.014 19.2317H110.486V50.6664H116.991V39.4091H124.389L125.682 39.3216C130.758 38.9745 133.658 34.0666 133.747 29.4314M127.464 29.4314C127.425 31.5387 126.304 33.6406 124.255 33.8008L123.142 33.8915H116.991V24.7509H123.364C123.713 24.7509 123.945 24.8392 124.256 24.8392C126.483 25.0597 127.506 27.2538 127.464 29.4314ZM79.8708 29.4306C79.9607 25.3684 77.7304 20.3792 72.6965 19.3193C72.2062 19.2317 71.7464 19.2317 71.1364 19.2317H56.6104V50.6664H63.1152V39.4091H70.5131L71.8066 39.3216C76.8819 38.9745 79.7824 34.0666 79.8716 29.4314M73.588 29.4314C73.5489 31.5387 72.4283 33.6406 70.3794 33.8008L69.2658 33.8915H63.1152V24.7509H69.4887C69.8375 24.7509 70.0689 24.8392 70.3802 24.8392C72.6074 25.0597 73.6303 27.2538 73.588 29.4314Z" fill="#AAACAB"/>
<path d="M0.799805 50.639H48.6157V3.31812H0.799805V50.639Z" fill="#AAACAB"/>
<path d="M31.8127 22.5655H12.991V47.8299H19.5365V26.577H30.1407C31.1065 26.577 32.0411 26.9779 32.7011 27.6775C33.3087 28.3208 33.6121 29.1392 33.5535 29.9834C33.444 31.6217 31.9754 32.8598 30.14 32.8598H27.2285V28.5436H21.1835V37.5356H30.9752C33.1179 37.5356 35.2325 36.7509 36.7785 35.376C38.3833 33.9534 39.2654 32.0336 39.2654 29.9662C39.2615 25.8883 35.9183 22.5655 31.8127 22.5655ZM21.1835 21.2633H27.2285V18.6057H35.586V14.2598H27.2277V12.3666C27.2277 11.8289 27.3935 11.4427 27.7986 11.0363C28.4375 10.3992 29.0678 10.1374 29.9726 10.1374H35.586V5.95947H27.9675C25.9327 5.95947 24.1207 6.59886 22.4292 7.90343C21.5862 8.74213 21.1835 10.0092 21.1835 11.8695V14.2598H12.9902V18.6065H21.1835V21.2633Z" fill="#ECEEED"/>
</g>
<defs>
<clipPath id="clip0_6070_5486">
<rect width="407" height="55" fill="white" transform="translate(0.799805)"/>
</clipPath>
</defs>
</svg>
