<svg width="427" height="160" viewBox="0 0 427 160" fill="none" xmlns="http://www.w3.org/2000/svg">
<path fill-rule="evenodd" clip-rule="evenodd" d="M29 55.7574H88.5953V66.3634H41.3739V74.1907H88.8485V85.8072H41.3739V105H29V55.7574ZM97.4354 55.7574H109.807V92.6261H149.203V105H97.4354V55.7574ZM188.849 105H164.858C164.858 105 156.524 104.745 155.514 95.6557V55.7574H167.888V93.6367H211.575V55.7574H223.951V95.6557C222.941 104.745 214.607 105 214.607 105H188.849ZM234.808 55.7574V105H247.94V86.5668L277.738 105H299.708L259.556 79.7479L297.686 55.7574H275.97L247.94 72.6758V55.7574H234.808ZM305.516 55V104.243H367.639V92.6261H317.89V85.8072H367.639V74.1907H317.89V66.6165H367.639V55H305.516ZM390.872 90.3538C386.832 90.3538 383.547 93.6345 383.547 97.6748C383.547 101.715 386.832 105 390.872 105C394.912 105 398.193 101.715 398.193 97.6748C398.193 93.6345 394.912 90.3538 390.872 90.3538ZM390.617 91.6155H390.872C394.153 91.6155 396.68 94.143 396.68 97.6748C396.68 100.96 394.153 103.734 390.872 103.734C387.587 103.734 385.064 100.96 385.064 97.6748C385.064 94.3941 387.334 91.8665 390.617 91.6155ZM388.093 93.3835V101.715H389.355V98.1833H390.872L393.144 101.715H394.406L392.133 98.1833C393.395 97.9322 394.153 97.1727 394.153 95.9068C394.153 94.143 393.142 93.3835 391.374 93.3835H388.093ZM389.355 97.1727V94.6451H391.123C392.385 94.6451 392.891 94.8962 392.891 95.9068C392.891 96.6663 392.385 97.1727 391.374 97.1727H389.355Z" fill="black"/>
</svg>
