<svg width="427" height="160" viewBox="0 0 427 160" fill="none" xmlns="http://www.w3.org/2000/svg">
<path d="M95.8068 110C79.4166 110 66 96.5417 66 79.8639C66 63.4583 79.4166 50 95.8068 50C112.409 50 125.814 63.4583 125.814 79.8639C125.814 96.5417 112.398 110 95.8068 110ZM95.8068 97.4413C105.565 97.4413 113.294 89.6883 113.294 79.8639C113.294 70.288 105.565 62.535 95.8068 62.535C86.2252 62.535 78.4962 70.288 78.4962 79.8639C78.4962 89.6883 86.2252 97.4413 95.8068 97.4413ZM279.592 110C263.202 110 249.785 96.5417 249.785 79.8639C249.785 63.4583 263.202 50 279.592 50C296.194 50 309.599 63.4583 309.599 79.8639C309.599 96.5417 296.183 110 279.592 110ZM279.592 97.4413C289.35 97.4413 297.079 89.6883 297.079 79.8639C297.079 70.288 289.35 62.535 279.592 62.535C270.01 62.535 262.281 70.288 262.281 79.8639C262.281 89.6883 270.01 97.4413 279.592 97.4413ZM129.236 51.8228V108.627H141.732V62.322H155.621V108.627H168.117V62.322H172.908C177.899 62.322 181.77 66.2044 181.77 70.9746V108.627H194.29V71.4243C194.29 60.2624 185.428 51.3494 174.277 51.3494H141.968C137.65 51.3375 133.307 51.3375 129.236 51.8228ZM313.021 51.8228V108.627H325.517V62.322H339.642C344.397 62.322 348.504 66.2044 348.504 70.9746V108.627H361V71.4243C361 60.2624 352.138 51.3494 340.987 51.3494H325.517C321.446 51.3375 317.092 51.3375 313.021 51.8228ZM199.517 51.8228V108.627H212.013V62.322H226.799C231.825 62.322 235.696 66.2044 235.696 70.9746C235.696 75.9815 231.825 79.8639 226.799 79.8639H216.12L235.448 108.627H250.918L236.817 87.8655C243.625 85.3561 248.18 78.7394 248.18 70.9746C248.18 60.2624 239.554 51.3375 228.604 51.3375H212.001C207.694 51.3375 203.6 51.3375 199.517 51.8228Z" fill="#166FC0"/>
</svg>
