<svg width="428" height="160" viewBox="0 0 428 160" fill="none" xmlns="http://www.w3.org/2000/svg">
<path d="M93.3664 117.434H100.244L96.8047 107.425L95.5543 105.861L95.3985 104.191H98.5762L105.872 124.63H102.693L101.078 119.833H92.5324L92.3242 118.738L93.3664 117.434Z" fill="#002B49"/>
<path d="M92.5328 119.835L90.9171 124.628H88L95.3976 104.193L97.2725 106.069L96.8037 107.425L93.3655 117.436L93.99 118.738L92.5328 119.835Z" fill="#002B49"/>
<path d="M121.553 122.18H128.431L128.639 122.128L128.847 122.075L129.004 122.024L129.212 121.972L129.368 121.919L129.525 121.867L129.734 121.763L129.889 121.711L129.994 121.606L130.15 121.503L130.307 121.398L130.41 121.293L130.568 121.189L130.671 121.085L130.776 120.929L130.879 120.824L130.932 120.668L131.036 120.511L131.089 120.407L131.192 120.199L131.244 120.042L131.297 119.886L131.349 119.73V119.52L131.4 119.364V119.156L131.453 118.948V118.531L131.4 118.322V118.113L131.349 117.957V117.748L131.297 117.592L131.244 117.383L131.192 117.226L131.089 117.07L131.036 116.914L130.932 116.81L130.828 116.654L130.723 116.549L130.619 116.393L130.515 116.288L130.41 116.183L130.255 116.08L130.099 115.975L129.942 115.872L129.786 115.819L129.629 115.714L129.473 115.663L129.265 115.558L129.108 115.506L128.901 115.454L128.691 115.403H128.483L128.221 115.35L127.806 115.298H121.553L120.979 114.047L121.553 112.899H127.546L127.91 112.848L128.275 112.795L128.587 112.69L128.691 112.638L128.847 112.587L129.004 112.535L129.108 112.43L129.265 112.377L129.368 112.274L129.473 112.221L129.578 112.117L129.681 112.013L129.786 111.908L129.838 111.805L129.942 111.648L129.994 111.544L130.099 111.387V111.231L130.202 111.126L130.255 110.762L130.307 110.449L130.359 110.083V109.301L130.307 108.937V108.781L130.255 108.624L130.202 108.468L130.15 108.311L130.099 108.155L130.046 108.05L129.942 107.894L129.889 107.789L129.786 107.633L129.681 107.528L129.629 107.477L129.473 107.32L129.368 107.268L129.265 107.164L129.108 107.112L129.004 107.007L128.847 106.956L128.691 106.904L128.536 106.851L128.378 106.799L128.014 106.695L127.597 106.643L127.18 106.59H121.553L119.885 106.226L118.583 104.193H127.128L127.493 104.244H127.91L128.275 104.296L128.587 104.349L128.952 104.401L129.265 104.454L129.578 104.557L129.889 104.662L130.202 104.765L130.464 104.87L130.723 104.974L130.984 105.131L131.192 105.234L131.454 105.392L131.661 105.6L131.87 105.756L132.077 105.913L132.234 106.121L132.391 106.33L132.547 106.538L132.703 106.8L132.808 107.007L132.911 107.269L133.016 107.528L133.121 107.791L133.172 108.05L133.224 108.363L133.277 108.625L133.329 108.937V110.344L133.277 110.71L133.172 111.023L133.121 111.334L133.016 111.597L132.86 111.908L132.703 112.17L132.496 112.43L132.287 112.638L132.079 112.9L131.817 113.107L131.557 113.317L131.244 113.524L130.932 113.733L130.568 113.942L131.036 114.099L131.505 114.306L131.87 114.463L132.287 114.725L132.442 114.829L132.6 114.932L132.755 115.037L132.911 115.193L133.068 115.35L133.224 115.454L133.381 115.611L133.485 115.767L133.589 115.923L133.693 116.08L133.798 116.236L133.902 116.393L133.953 116.549L134.058 116.757L134.111 116.914L134.163 117.121L134.214 117.331L134.266 117.487L134.319 117.695V117.905L134.371 118.374L134.424 118.791V119.156L134.371 119.469L134.319 119.833L134.266 120.147L134.214 120.407L134.163 120.72L134.058 120.981L133.953 121.242L133.798 121.554L133.693 121.816L133.537 122.023L133.381 122.285L133.172 122.492L132.965 122.701L132.755 122.91L132.547 123.118L132.339 123.275L132.077 123.431L131.818 123.587L131.556 123.744L131.244 123.9L130.984 124.005L130.671 124.108L130.358 124.213L129.994 124.317L129.681 124.369L129.317 124.474L128.952 124.526L128.536 124.577H128.17L127.754 124.63H118.582L120.042 122.492L121.553 122.18Z" fill="#002B49"/>
<path d="M118.586 124.63V104.193L120.879 105.131L121.555 106.59V112.899L122.545 113.994L121.555 115.298V122.18L121.087 123.431L118.586 124.63Z" fill="#002B49"/>
<path d="M144.429 122.493H144.899L145.106 122.44L145.368 122.388L145.575 122.336L145.784 122.283L145.992 122.232L146.148 122.127L146.358 122.024L146.564 121.919L146.722 121.814L146.879 121.658L147.034 121.553L147.19 121.398L147.347 121.242L147.503 121.084L147.608 120.876L147.711 120.72L147.869 120.511L147.972 120.304L148.024 120.094L148.129 119.886L148.232 119.624L148.285 119.364L148.39 119.104L148.441 118.843L148.493 118.582V118.321L148.545 118.008V117.747L148.598 117.436V116.809L148.545 116.549V116.236L148.493 115.975V115.663L148.441 115.401L148.39 115.194L148.285 114.932L148.232 114.671L148.18 114.464L148.077 114.255L147.972 113.994L147.869 113.838L147.764 113.628L147.608 113.421L147.503 113.264L147.347 113.056L147.243 112.899L147.087 112.743L146.93 112.638L146.774 112.482L146.566 112.377L146.409 112.274L146.202 112.169L146.045 112.065L145.836 112.013L145.628 111.961L145.419 111.908L145.212 111.856L145.002 111.805H144.534L143.491 110.605L144.534 109.406H144.898L145.315 109.458L145.679 109.511L146.045 109.562L146.409 109.614L146.722 109.719L147.087 109.822L147.4 109.98L147.711 110.136L148.024 110.293L148.337 110.449L148.65 110.657L148.911 110.865L149.171 111.075L149.432 111.336L149.692 111.595L149.899 111.857L150.109 112.116L150.317 112.43L150.525 112.692L150.682 113.003L150.889 113.369L151.046 113.681L151.151 113.994L151.254 114.359L151.412 114.724L151.464 115.089L151.567 115.506L151.62 115.871L151.672 116.288V116.705L151.724 117.07L151.672 117.539V117.957L151.62 118.321L151.567 118.738L151.464 119.104L151.412 119.52L151.254 119.886L151.151 120.25L150.994 120.563L150.89 120.929L150.682 121.242L150.525 121.553L150.318 121.867L150.109 122.18L149.901 122.44L149.639 122.701L149.432 122.962L149.17 123.17L148.911 123.431L148.598 123.639L148.336 123.797L148.024 124.003L147.711 124.161L147.347 124.318L147.034 124.421L146.669 124.579L146.358 124.682L145.992 124.735L145.628 124.838H145.211L144.847 124.89H144.429L143.387 123.692L144.429 122.493Z" fill="#002B49"/>
<path d="M144.429 124.89H144.065L143.647 124.838H143.283L142.918 124.735L142.554 124.682L142.241 124.577L141.876 124.474L141.563 124.318L141.251 124.161L140.938 124.005L140.626 123.848L140.313 123.641L140.052 123.431L139.74 123.223L139.531 122.961L139.27 122.701L139.011 122.439L138.802 122.18L138.595 121.867L138.385 121.606L138.229 121.293L138.072 120.929L137.917 120.615L137.759 120.302L137.656 119.938L137.551 119.573L137.448 119.208L137.395 118.79L137.291 118.426V118.008L137.238 117.592V116.757L137.291 116.34V115.922L137.395 115.558L137.448 115.142L137.551 114.776L137.656 114.411L137.759 114.046L137.917 113.681L138.072 113.369L138.229 113.056L138.436 112.743L138.593 112.43L138.802 112.116L139.064 111.856L139.27 111.595L139.532 111.336L139.791 111.074L140.053 110.867L140.365 110.657L140.627 110.449L140.938 110.293L141.251 110.136L141.615 109.98L141.928 109.822L142.241 109.719L142.605 109.614L143.023 109.562L143.387 109.511L143.752 109.458L144.116 109.406H144.534L145.316 110.606L144.534 111.805H144.065L143.803 111.856L143.596 111.908L143.387 111.961L143.18 112.013L142.971 112.065L142.762 112.169L142.554 112.274L142.397 112.377L142.241 112.482L142.033 112.587L141.876 112.743L141.72 112.899L141.563 113.056L141.46 113.212L141.304 113.369L141.199 113.576L141.094 113.786L140.991 113.994L140.886 114.202L140.783 114.411L140.678 114.62L140.626 114.881L140.573 115.142L140.522 115.402L140.47 115.663L140.417 115.975L140.365 116.237V118.061L140.417 118.323L140.47 118.634L140.522 118.895L140.573 119.156L140.626 119.417L140.678 119.625L140.783 119.886L140.886 120.094L140.991 120.302L141.094 120.511L141.199 120.72L141.304 120.876L141.46 121.084L141.563 121.242L141.72 121.398L141.876 121.553L142.033 121.658L142.189 121.814L142.345 121.919L142.554 122.024L142.71 122.127L142.918 122.232L143.126 122.285L143.336 122.336L143.543 122.388L143.752 122.44L143.96 122.493H144.43L145.211 123.639L144.429 124.89Z" fill="#002B49"/>
<path d="M164.124 113.369L163.916 113.159L163.706 112.952L163.499 112.795L163.29 112.638L163.082 112.482L162.874 112.377L162.665 112.274L162.403 112.169L162.197 112.065L161.987 112.013L161.727 111.961L161.52 111.908L161.258 111.856L160.997 111.805H159.852L159.59 111.856L159.383 111.908L159.121 111.961L158.914 112.065L158.757 112.117L158.549 112.221L158.392 112.326L158.288 112.482L158.131 112.587L158.08 112.743L157.975 112.899L157.923 113.108V113.264L157.871 113.473L157.923 113.681V113.889L157.975 114.099L158.028 114.255L158.131 114.411L158.236 114.568L158.392 114.724L158.549 114.829L158.756 114.932L159.018 115.037L159.278 115.193L159.591 115.245L159.903 115.35L160.32 115.453L160.737 115.558L161.205 115.662L161.779 115.819L162.3 115.923L162.769 116.08L163.187 116.183L163.55 116.34L163.916 116.496L164.227 116.654L164.54 116.81L164.748 116.965L164.958 117.123L165.165 117.279L165.322 117.487L165.53 117.697L165.687 117.852L165.791 118.061L165.895 118.269L166.051 118.531L166.156 118.738L166.208 119L166.259 119.259L166.312 119.469L166.364 119.73V121.086L166.312 121.293L166.208 121.555L166.156 121.762L166.051 121.972L165.999 122.178L165.895 122.388L165.738 122.596L165.635 122.805L165.479 122.962L165.322 123.17L165.166 123.326L165.009 123.483L164.802 123.639L164.645 123.797L164.437 123.952L164.175 124.057L163.968 124.213L163.706 124.318L163.499 124.369L163.238 124.474L162.977 124.577L162.665 124.63L162.403 124.682L162.092 124.787L161.83 124.838H161.518L161.205 124.891H160.007L159.539 124.838L159.07 124.787L158.601 124.735L158.184 124.63L157.767 124.526L157.35 124.422L156.933 124.266L156.569 124.057L156.204 123.9L155.839 123.639L155.475 123.431L155.162 123.118L154.849 122.857L154.485 122.544L154.172 122.18L156.099 120.407L156.309 120.668L156.569 120.929L156.776 121.189L157.038 121.398L157.245 121.554L157.507 121.763L157.715 121.919L157.975 122.024L158.236 122.127L158.497 122.232L158.757 122.336L159.07 122.388L159.382 122.441L159.695 122.493H160.737L161.102 122.441H161.414L161.727 122.336L162.04 122.285L162.3 122.18L162.508 122.075L162.716 121.972L162.926 121.867L163.082 121.711L163.238 121.503L163.342 121.345L163.395 121.137L163.498 120.929L163.55 120.72V120.251L163.498 120.042L163.447 119.886L163.395 119.677L163.29 119.52L163.187 119.364L163.029 119.259L162.821 119.104L162.613 118.999L162.351 118.895L162.04 118.738L161.727 118.635L161.363 118.53L160.894 118.426L160.425 118.269L159.903 118.166L159.278 118.008L158.705 117.852L158.184 117.697L157.715 117.487L157.507 117.383L157.299 117.279L157.089 117.175L156.882 117.07L156.725 116.914L156.517 116.81L156.36 116.705L156.204 116.549L156.099 116.444L155.943 116.288L155.839 116.132L155.735 115.975L155.63 115.819L155.527 115.663L155.422 115.506L155.37 115.298L155.317 115.142L155.266 114.932L155.214 114.776L155.162 114.568V114.36L155.109 114.15V113.213L155.162 113.005V112.744L155.266 112.536L155.317 112.328L155.37 112.118L155.475 111.911L155.578 111.701L155.683 111.545L155.788 111.337L155.943 111.18L156.099 111.024L156.204 110.867L156.412 110.711L156.569 110.555L156.725 110.398L156.933 110.294L157.141 110.189L157.35 110.085L157.559 109.981L157.82 109.876L158.026 109.773L158.288 109.72L158.549 109.616L158.809 109.563L159.07 109.512L159.331 109.46H159.642L159.955 109.407H161.363L161.779 109.46L162.144 109.512L162.508 109.563L162.821 109.668L163.187 109.773L163.498 109.876L163.811 109.981L164.124 110.137L164.437 110.294L164.697 110.501L165.009 110.711L165.271 110.919L165.583 111.181L165.844 111.441L164.124 113.369Z" fill="#002B49"/>
<path d="M182.728 121.242L182.466 121.711L182.207 122.127L181.894 122.493L181.581 122.857L181.425 123.014L181.268 123.221L181.061 123.326L180.904 123.483L180.696 123.639L180.538 123.744L180.332 123.9L180.174 124.005L179.966 124.108L179.757 124.213L179.55 124.318L179.34 124.369L179.132 124.474L178.924 124.526L178.716 124.63L178.454 124.682L177.985 124.787L177.517 124.838L176.995 124.89H176.11L175.693 124.838H175.329L174.963 124.735L174.65 124.682L174.286 124.579L173.921 124.474L173.61 124.318L173.297 124.213L172.984 124.057L172.671 123.848L172.41 123.641L172.099 123.431L171.837 123.223L171.578 123.014L171.368 122.752L171.107 122.493L170.901 122.231L170.691 121.919L170.535 121.606L170.326 121.345L170.17 120.981L170.014 120.668L169.909 120.302L169.754 119.938L169.649 119.573L169.596 119.208L169.493 118.843L169.441 118.426L169.388 118.008V117.592L169.336 117.175L169.388 116.757V116.34L169.441 115.922L169.493 115.506L169.545 115.142L169.649 114.776L169.754 114.359L169.857 113.994L170.014 113.681L170.17 113.317L170.326 113.003L170.483 112.69L170.691 112.377L170.899 112.116L171.107 111.805L171.317 111.543L171.578 111.336L171.838 111.074L172.099 110.867L172.358 110.657L172.62 110.449L172.931 110.24L173.244 110.083L173.557 109.98L173.87 109.822L174.234 109.719L174.547 109.614L174.911 109.562L175.276 109.511L175.693 109.458L176.058 109.406H176.943L177.412 109.458L177.881 109.511L178.298 109.614L178.716 109.719L179.132 109.875L179.34 109.98L179.549 110.032L179.757 110.136L179.914 110.24L180.122 110.344L180.278 110.449L180.435 110.605L180.642 110.709L180.956 111.023L181.268 111.334L181.581 111.647L181.894 112.013L182.154 112.43L182.415 112.848L180.017 114.255L179.811 113.889L179.601 113.577L179.445 113.315L179.236 113.056L179.029 112.848L178.819 112.638L178.664 112.482L178.455 112.326L178.246 112.169L178.039 112.065L177.829 111.961L177.569 111.908L177.361 111.856L177.099 111.805H176.059L175.851 111.856L175.589 111.908L175.382 111.961L175.173 112.013L174.966 112.065L174.809 112.169L174.601 112.274L174.444 112.377L174.237 112.482L174.08 112.587L173.923 112.743L173.767 112.899L173.662 113.056L173.506 113.212L173.401 113.369L173.246 113.576L173.141 113.786L173.037 113.994L172.933 114.202L172.829 114.411L172.777 114.62L172.672 114.881L172.62 115.142L172.569 115.402L172.516 115.663L172.464 115.975V116.549L172.412 116.862V117.487L172.464 117.8V118.374L172.516 118.634L172.569 118.948L172.62 119.208L172.672 119.415L172.777 119.677L172.829 119.884L172.933 120.146L173.037 120.355L173.141 120.563L173.246 120.771L173.35 120.929L173.506 121.084L173.611 121.293L173.767 121.45L173.923 121.553L174.08 121.711L174.235 121.814L174.444 121.971L174.601 122.024L174.808 122.127L175.017 122.232L175.225 122.285L175.433 122.336L175.643 122.388L175.85 122.44L176.112 122.493H177.204L177.517 122.44L177.778 122.336L178.038 122.285L178.3 122.18L178.559 122.075L178.767 121.919L178.975 121.763L179.237 121.553L179.444 121.347L179.653 121.137L179.862 120.876L180.07 120.615L180.227 120.302L180.434 119.938L182.728 121.242Z" fill="#002B49"/>
<path d="M185.906 103.15H188.928V112.013L189.085 111.7L189.293 111.387L189.502 111.126L189.71 110.865L189.918 110.605L190.18 110.398L190.439 110.24L190.701 110.032L191.013 109.875L191.326 109.771L191.638 109.667L191.951 109.562L192.315 109.511L192.628 109.458L192.992 109.406H193.983L194.244 109.458L194.503 109.511L194.765 109.562L195.024 109.614L195.234 109.667L195.494 109.771L195.701 109.875L195.911 109.98L196.119 110.136L196.327 110.24L196.535 110.396L196.692 110.554L196.848 110.709L197.056 110.918L197.161 111.126L197.317 111.336L197.474 111.543L197.577 111.752L197.682 111.961L197.787 112.221L197.89 112.482L197.995 112.743L198.048 113.056L198.151 113.317V113.628L198.203 113.942L198.256 114.255L198.308 114.568V124.63H195.285V114.568L195.181 114.15L195.129 113.838L195.024 113.525L194.921 113.212L194.869 113.108L194.764 113.004L194.713 112.848L194.608 112.743L194.556 112.638L194.4 112.535L194.347 112.482L194.243 112.377L194.087 112.274L193.983 112.221L193.879 112.169L193.723 112.117L193.618 112.065L193.462 112.013L193.305 111.961H193.149L192.836 111.908H192.055L191.847 111.961H191.691L191.481 112.013L191.326 112.065L191.117 112.117L190.96 112.169L190.804 112.274L190.649 112.326L190.491 112.43L190.388 112.482L190.231 112.587L190.128 112.69L189.97 112.795L189.867 112.899L189.762 113.056L189.659 113.212L189.554 113.317L189.449 113.473L189.398 113.628L189.293 113.786L189.241 113.942L189.138 114.099L189.085 114.306L189.033 114.463L188.981 114.671V114.829L188.928 115.037V124.63H185.906V103.15Z" fill="#002B49"/>
<path d="M228.321 118.895L228.164 119.259L228.008 119.677L227.851 119.99L227.695 120.355L227.539 120.668L227.382 120.981L227.226 121.242L227.018 121.553L226.861 121.763L226.654 122.024L226.444 122.284L226.289 122.491L226.027 122.701L225.82 122.909L225.61 123.118L225.35 123.275L225.089 123.482L224.829 123.692L224.517 123.847L224.255 124.005L223.944 124.161L223.631 124.265L223.318 124.369L223.005 124.474L222.641 124.579L222.328 124.682L221.964 124.734L221.651 124.787L221.233 124.838H220.869L220.504 124.89H219.619L219.098 124.838L218.577 124.787L218.108 124.682L217.639 124.579L217.171 124.474L216.753 124.318L216.337 124.161L215.868 123.952L215.502 123.744L215.086 123.482L214.721 123.275L214.356 122.962L213.992 122.7L213.679 122.388L213.366 122.024L213.054 121.711L212.792 121.293L212.533 120.928L212.271 120.51L212.064 120.094L211.855 119.677L211.648 119.208L211.491 118.739L211.334 118.27L211.23 117.747L211.073 117.226L210.97 116.704L210.917 116.132L210.865 115.611L210.812 115.037V113.838L210.865 113.316L210.917 112.743L210.97 112.221L211.073 111.647L211.23 111.178L211.334 110.657L211.491 110.135L211.698 109.666L211.855 109.25L212.063 108.781L212.325 108.363L212.584 107.946L212.846 107.581L213.105 107.164L213.418 106.851L213.731 106.487L214.044 106.173L214.408 105.86L214.773 105.6L215.137 105.339L215.502 105.078L215.919 104.87L216.337 104.662L216.753 104.504L217.222 104.348L217.639 104.193L218.108 104.088L218.577 103.983L219.098 103.932H219.619L220.088 103.879H220.556L220.973 103.932L221.39 103.983L221.807 104.035L222.225 104.088L222.589 104.193L222.954 104.296L223.37 104.401L223.683 104.557L224.047 104.714L224.36 104.87L224.673 105.078L224.986 105.286L225.297 105.495L225.559 105.704L225.871 105.965L226.184 106.329L226.497 106.695L226.653 106.851L226.81 107.059L226.913 107.267L227.07 107.477L227.331 107.946L227.59 108.468L227.852 109.041L228.111 109.717L225.455 110.709L225.246 110.188L225.038 109.666L224.881 109.406L224.778 109.197L224.673 108.935L224.517 108.728L224.412 108.52L224.257 108.363L224.152 108.154L223.996 107.999L223.839 107.789L223.683 107.633L223.526 107.528L223.37 107.372L223.214 107.267L223.057 107.112L222.901 107.007L222.693 106.903L222.536 106.851L222.329 106.747L222.12 106.642L221.964 106.59L221.702 106.538L221.495 106.487L221.286 106.434L221.079 106.382H220.606L220.399 106.329H220.137L219.773 106.382H219.409L219.097 106.434L218.731 106.487L218.418 106.538L218.107 106.642L217.794 106.747L217.533 106.903L217.273 107.059L216.96 107.216L216.699 107.372L216.492 107.581L216.23 107.789L216.022 107.999L215.76 108.259L215.553 108.52L215.396 108.781L215.19 109.04L215.032 109.353L214.875 109.666L214.719 109.979L214.615 110.293L214.459 110.657L214.354 111.022L214.251 111.439L214.146 111.805L214.094 112.221L214.043 112.638L213.99 113.056L213.938 113.525V115.348L213.99 115.766L214.043 116.183L214.094 116.601L214.146 117.018L214.251 117.383L214.354 117.8L214.459 118.165L214.615 118.477L214.719 118.843L214.875 119.156L215.032 119.469L215.188 119.781L215.396 120.043L215.606 120.302L215.813 120.564L216.022 120.771L216.23 121.033L216.492 121.24L216.752 121.397L217.012 121.606L217.273 121.763L217.533 121.866L217.846 122.024L218.159 122.127L218.471 122.232L218.784 122.284L219.149 122.335L219.46 122.388L219.826 122.44H220.711L220.92 122.388H221.181L221.388 122.335L221.65 122.284L221.858 122.232L222.066 122.18L222.274 122.075L222.484 122.024L222.691 121.919L222.9 121.814L223.056 121.711L223.213 121.606L223.42 121.45L223.577 121.345L223.734 121.189L223.89 121.032L224.046 120.876L224.203 120.72L224.359 120.51L224.463 120.303L224.619 120.094L224.776 119.886L224.88 119.677L224.985 119.415L225.088 119.208L225.245 118.946L225.452 118.426L225.609 117.8L228.321 118.895Z" fill="#002B49"/>
<path d="M238.113 122.493H238.584L238.79 122.44L239.052 122.388L239.208 122.336L239.469 122.283L239.677 122.232L239.833 122.127L240.042 122.024L240.198 121.919L240.406 121.814L240.562 121.658L240.719 121.553L240.875 121.398L241.032 121.242L241.135 121.084L241.293 120.876L241.396 120.72L241.553 120.511L241.604 120.304L241.709 120.094L241.814 119.886L241.917 119.624L241.969 119.364L242.022 119.104L242.125 118.843L242.178 118.582V118.321L242.23 118.008V117.747L242.282 117.436V116.809L242.23 116.549V116.236L242.178 115.975V115.663L242.125 115.401L242.022 115.194L241.969 114.932L241.917 114.671L241.814 114.464L241.709 114.255L241.656 113.994L241.553 113.838L241.396 113.628L241.293 113.421L241.188 113.264L241.032 113.056L240.875 112.899L240.771 112.743L240.614 112.638L240.407 112.482L240.25 112.377L240.093 112.274L239.886 112.169L239.677 112.065L239.521 112.013L239.311 111.961L239.105 111.908L238.895 111.856L238.687 111.805H238.218L237.019 110.709L238.218 109.406H238.582L238.947 109.458L239.364 109.511L239.677 109.562L240.042 109.614L240.406 109.719L240.771 109.822L241.083 109.98L241.396 110.136L241.709 110.293L242.022 110.449L242.282 110.657L242.595 110.865L242.854 111.075L243.116 111.336L243.323 111.595L243.585 111.857L243.792 112.116L244.001 112.43L244.21 112.692L244.367 113.003L244.523 113.369L244.678 113.681L244.836 113.994L244.991 114.359L245.044 114.724L245.147 115.089L245.252 115.506L245.304 115.871L245.357 116.288V117.957L245.304 118.321L245.252 118.738L245.147 119.104L245.044 119.52L244.939 119.886L244.836 120.25L244.678 120.563L244.523 120.929L244.367 121.242L244.21 121.553L244.001 121.867L243.793 122.18L243.585 122.44L243.323 122.701L243.116 122.962L242.803 123.17L242.542 123.431L242.282 123.639L241.969 123.797L241.709 124.003L241.344 124.161L241.032 124.318L240.719 124.421L240.354 124.579L239.99 124.682L239.677 124.735L239.26 124.838H238.895L238.53 124.89H238.113L236.914 123.587L238.113 122.493Z" fill="#002B49"/>
<path d="M238.117 124.89H237.753L237.387 124.838H236.971L236.606 124.735L236.24 124.682L235.929 124.577L235.563 124.474L235.25 124.318L234.887 124.161L234.574 124.005L234.313 123.848L234 123.641L233.74 123.431L233.479 123.223L233.167 122.961L232.958 122.701L232.697 122.439L232.49 122.18L232.281 121.867L232.073 121.606L231.916 121.293L231.76 120.929L231.604 120.615L231.447 120.302L231.343 119.938L231.239 119.573L231.135 119.208L231.031 118.79L230.978 118.426L230.926 118.008V116.34L230.978 115.922L231.031 115.558L231.135 115.142L231.239 114.776L231.343 114.411L231.447 114.046L231.604 113.681L231.76 113.369L231.916 113.056L232.073 112.743L232.281 112.43L232.489 112.116L232.697 111.856L232.959 111.595L233.218 111.336L233.48 111.074L233.74 110.867L234.001 110.657L234.313 110.449L234.626 110.293L234.939 110.136L235.25 109.98L235.616 109.822L235.981 109.719L236.293 109.614L236.658 109.562L237.074 109.511L237.44 109.458L237.804 109.406H238.221L239.054 110.709L238.221 111.805H237.753L237.491 111.856L237.284 111.908L237.074 111.961L236.866 112.013L236.658 112.065L236.45 112.169L236.242 112.274L236.084 112.377L235.876 112.482L235.721 112.587L235.563 112.743L235.408 112.899L235.25 113.056L235.147 113.212L234.99 113.369L234.887 113.576L234.729 113.786L234.626 113.994L234.574 114.202L234.469 114.411L234.365 114.62L234.313 114.881L234.261 115.142L234.157 115.402L234.105 115.663V115.975L234.052 116.237V116.549L234 116.862V117.487L234.052 117.749V118.061L234.105 118.323V118.634L234.208 118.895L234.261 119.156L234.313 119.417L234.365 119.625L234.469 119.886L234.574 120.094L234.626 120.302L234.729 120.511L234.887 120.72L234.99 120.876L235.147 121.084L235.25 121.242L235.408 121.398L235.563 121.553L235.721 121.658L235.876 121.814L236.032 121.919L236.242 122.024L236.397 122.127L236.606 122.232L236.814 122.285L237.022 122.336L237.231 122.388L237.438 122.44L237.648 122.493H238.118L238.951 123.744L238.117 124.89Z" fill="#002B49"/>
<path d="M252.391 111.961L252.6 111.647L252.757 111.336L252.963 111.074L253.173 110.814L253.381 110.605L253.643 110.398L253.85 110.188L254.112 110.032L254.371 109.875L254.633 109.771L254.945 109.666L255.257 109.562L255.57 109.511L255.882 109.458L256.195 109.406H256.924L257.237 109.458L257.602 109.511L257.914 109.562L258.227 109.666L258.489 109.771L258.748 109.875L259.009 110.032L259.269 110.239L259.53 110.396L259.738 110.658L259.946 110.865L260.156 111.178L260.311 111.441L260.52 111.752L260.675 112.065L260.885 111.752L261.145 111.439L261.352 111.178L261.614 110.865L261.875 110.658L262.135 110.396L262.448 110.24L262.709 110.032L262.968 109.875L263.281 109.771L263.594 109.666L263.907 109.562L264.271 109.511L264.584 109.458L264.949 109.406H265.834L266.096 109.458L266.355 109.511L266.617 109.562L266.824 109.614L267.086 109.719L267.293 109.822L267.502 109.875L267.709 110.032L267.919 110.136L268.127 110.293L268.284 110.396L268.491 110.605L268.648 110.762L268.805 110.918L268.961 111.126L269.066 111.336L269.221 111.543L269.326 111.805L269.43 112.012L269.534 112.274L269.638 112.534L269.742 112.795L269.795 113.056L269.847 113.369L269.898 113.628L269.951 113.942L270.003 114.255V114.568L270.055 114.932V124.63H267.033V114.932L266.981 114.515L266.929 114.15L266.876 113.838L266.772 113.525L266.668 113.212L266.616 113.108L266.563 112.951L266.511 112.848L266.408 112.743L266.355 112.638L266.25 112.534L266.147 112.43L266.042 112.377L265.99 112.274L265.834 112.221L265.731 112.169L265.626 112.116L265.521 112.065L265.365 112.013L265.261 111.961H265.105L264.792 111.908H264.115L263.958 111.961H263.802L263.594 112.013L263.437 112.065L263.281 112.116L263.125 112.169L263.02 112.274L262.865 112.326L262.707 112.43L262.604 112.482L262.447 112.587L262.344 112.69L262.239 112.795L262.135 112.951L261.978 113.056L261.926 113.212L261.822 113.317L261.718 113.472L261.665 113.628L261.562 113.786L261.509 113.942L261.457 114.099L261.405 114.306L261.354 114.463L261.301 114.671V114.829L261.249 115.245L261.197 115.663V124.63H258.227V114.932L258.175 114.568L258.122 114.15L258.071 113.838L257.966 113.525L257.862 113.212L257.811 113.108L257.758 113.003L257.653 112.899L257.601 112.743L257.498 112.638L257.445 112.587L257.341 112.482L257.237 112.377L257.132 112.326L257.029 112.221L256.924 112.169L256.768 112.116L256.664 112.065L256.508 112.013H256.403L256.247 111.961L255.985 111.908H255.309L255.102 111.961H254.945L254.789 112.013L254.632 112.065L254.476 112.116L254.319 112.169L254.163 112.274L254.007 112.326L253.902 112.43L253.747 112.482L253.642 112.587L253.538 112.69L253.381 112.795L253.278 112.951L253.173 113.056L253.068 113.212L253.017 113.317L252.912 113.472L252.808 113.628L252.757 113.786L252.704 113.942L252.6 114.099V114.306L252.547 114.463L252.496 114.671L252.444 114.829V115.245L252.391 115.663V124.63H249.422V109.668H252.391V111.961Z" fill="#002B49"/>
<path d="M281.983 122.493H282.451L282.659 122.44L282.868 122.388L283.13 122.336H283.285L283.492 122.232L283.702 122.18L283.91 122.075L284.067 121.971L284.223 121.867L284.379 121.763L284.536 121.606L284.691 121.502L284.847 121.345L284.952 121.189L285.057 120.981L285.16 120.824L285.317 120.615L285.368 120.407L285.473 120.199L285.578 119.991L285.629 119.781L285.734 119.52L285.786 119.259L285.838 118.999V118.738L285.889 118.477L285.942 118.165V116.288L285.889 115.975L285.838 115.714L285.786 115.453V115.193L285.681 114.932L285.629 114.671L285.526 114.464L285.473 114.202L285.368 113.995L285.265 113.786L285.16 113.577L285.057 113.42L284.9 113.213L284.796 113.056L284.639 112.899L284.536 112.743L284.379 112.587L284.223 112.482L284.015 112.377L283.857 112.274L283.702 112.169L283.493 112.065L283.285 112.013L283.128 111.961L282.921 111.908L282.659 111.856L282.451 111.805H282.035L281.617 110.605L282.712 109.406H283.076L283.389 109.458H283.754L284.067 109.511L284.379 109.614L284.691 109.719L285.004 109.822L285.317 109.98L285.578 110.083L285.838 110.24L286.099 110.396L286.36 110.605L286.62 110.814L286.827 111.021L287.089 111.283L287.296 111.49L287.505 111.752L287.661 112.013L287.871 112.326L288.026 112.638L288.182 112.9L288.287 113.264L288.443 113.577L288.547 113.942L288.652 114.307L288.756 114.671L288.808 115.037L288.913 115.453L288.964 115.819V116.236L289.016 116.654V117.539L288.964 117.956V118.374L288.913 118.79L288.86 119.208L288.756 119.573L288.652 119.938L288.547 120.302L288.443 120.668L288.339 120.981L288.182 121.345L288.026 121.658L287.871 121.971L287.661 122.232L287.505 122.493L287.297 122.805L287.089 123.014L286.879 123.275L286.62 123.482L286.411 123.692L286.099 123.848L285.837 124.057L285.578 124.213L285.316 124.369L285.004 124.474L284.691 124.577L284.379 124.682L284.067 124.735L283.754 124.838H283.389L283.076 124.89H282.712L281.617 123.744L281.983 122.493Z" fill="#002B49"/>
<path d="M282.714 124.89H282.297L281.932 124.838L281.567 124.787L281.203 124.735L280.837 124.63L280.524 124.526L280.213 124.369L279.9 124.213L279.587 124.057L279.327 123.848L279.066 123.641L278.753 123.431L278.546 123.118L278.284 122.857L278.077 122.596L277.868 122.285V129.792H274.898V109.666H277.868V112.065L278.076 111.752L278.338 111.439L278.597 111.178L278.805 110.918L279.067 110.657L279.379 110.449L279.639 110.24L279.952 110.083L280.265 109.927L280.577 109.771L280.89 109.666L281.255 109.562L281.567 109.511L281.932 109.458L282.348 109.406H282.714L283.13 110.553L282.037 111.805H281.516L281.306 111.856L281.099 111.908L280.837 111.961L280.631 112.013L280.421 112.065L280.213 112.169L280.056 112.274L279.849 112.377L279.692 112.482L279.535 112.587L279.379 112.743L279.223 112.899L279.066 113.056L278.91 113.212L278.753 113.369L278.65 113.576L278.545 113.786L278.441 113.994L278.337 114.202L278.232 114.411L278.129 114.673L278.076 114.932L278.024 115.142L277.971 115.402L277.92 115.663L277.868 115.975L277.816 116.237V118.062L277.868 118.374L277.92 118.634L277.971 118.895L278.024 119.156L278.076 119.417L278.129 119.677L278.232 119.884L278.284 120.146L278.441 120.355L278.492 120.563L278.65 120.72L278.753 120.927L278.91 121.084L279.014 121.242L279.171 121.398L279.327 121.553L279.484 121.711L279.639 121.814L279.848 121.919L280.005 122.024L280.161 122.127L280.369 122.232L280.577 122.285L280.785 122.336L280.995 122.388L281.255 122.44L281.462 122.493H281.984L283.13 123.744L282.714 124.89Z" fill="#002B49"/>
<path d="M297.461 122.596L297.828 122.544L298.244 122.493L298.557 122.44L298.921 122.336L299.234 122.232L299.547 122.075L299.703 122.024L299.807 121.919L299.963 121.814L300.068 121.711L300.171 121.606L300.328 121.553L300.432 121.398L300.537 121.293L300.589 121.189L300.692 121.032L300.745 120.929L300.849 120.771L300.902 120.615L300.953 120.511L301.005 120.355V120.199L301.058 120.042V119.886L301.11 119.73V117.696L300.276 116.654L301.11 115.663V114.463L301.058 114.15L301.005 113.786L300.953 113.524L300.849 113.212L300.745 112.951L300.641 112.848L300.589 112.743L300.537 112.638L300.432 112.534L300.328 112.43L300.276 112.377L300.12 112.274L300.068 112.221L299.963 112.116L299.807 112.065L299.703 112.013L299.547 111.961L299.285 111.908L298.973 111.856L298.66 111.805H297.723L297.461 111.856L297.202 111.908L296.941 111.961L296.681 112.013L296.42 112.116L296.159 112.221L295.899 112.326L295.638 112.43L295.378 112.587L295.117 112.743L294.857 112.951L294.596 113.108L294.336 113.315L294.023 113.577L292.512 111.647L292.825 111.336L293.19 111.074L293.554 110.814L293.867 110.605L294.18 110.398L294.544 110.24L294.909 110.083L295.274 109.927L295.638 109.822L296.004 109.666L296.42 109.614L296.785 109.511L297.202 109.458L297.618 109.406H299.181L299.494 109.458L299.807 109.511H300.068L300.379 109.614L300.641 109.666L300.9 109.771L301.162 109.822L301.422 109.98L301.631 110.083L301.838 110.188L302.1 110.344L302.256 110.449L302.464 110.605L302.672 110.814L302.829 110.97L302.985 111.178L303.142 111.336L303.298 111.543L303.403 111.805L303.506 112.012L303.663 112.274L303.714 112.482L303.819 112.743L303.871 113.003L303.975 113.317V113.577L304.027 113.889L304.08 114.202V121.084L304.132 121.242V121.553L304.184 121.711L304.235 121.867L304.288 121.971L304.34 122.075L304.392 122.18L304.445 122.232L304.548 122.285L304.653 122.336L304.756 122.388L304.914 122.44L305.017 122.493H305.642V124.682H305.278L305.017 124.735H303.975L303.663 124.682L303.401 124.63L303.142 124.526L302.88 124.474L302.673 124.369L302.464 124.213L302.257 124.057L302.1 123.9L301.943 123.744L301.787 123.536L301.631 123.326L301.526 123.065L301.423 122.805L301.318 122.545L301.056 122.857L300.849 123.119L300.588 123.379L300.328 123.587L300.066 123.797L299.807 124.003L299.545 124.213L299.234 124.318L298.973 124.474L298.66 124.579L298.4 124.682L298.088 124.735L297.775 124.839H297.41L297.097 124.89H296.733L296.577 123.587L297.461 122.596Z" fill="#002B49"/>
<path d="M296.733 124.89H296.212L295.95 124.838H295.743L295.481 124.787L295.274 124.734L295.065 124.682L294.804 124.577L294.598 124.526L294.388 124.421L294.232 124.318L294.023 124.213L293.867 124.108L293.659 124.005L293.502 123.847L293.346 123.744L293.19 123.587L293.085 123.431L292.929 123.275L292.772 123.118L292.669 122.962L292.564 122.754L292.461 122.596L292.408 122.389L292.304 122.18L292.251 121.971L292.2 121.763L292.148 121.553L292.095 121.346V121.137L292.043 120.928V120.25L292.095 120.094V119.886L292.148 119.73L292.2 119.52L292.251 119.364L292.304 119.156L292.356 118.999L292.461 118.843L292.512 118.687L292.616 118.53L292.721 118.374L292.772 118.216L292.929 118.061L293.033 117.905L293.138 117.8L293.293 117.644L293.398 117.539L293.554 117.383L293.867 117.175L294.232 116.965L294.596 116.758L295.014 116.549L295.43 116.393L295.899 116.235L296.42 116.132L296.994 115.975L297.515 115.871L298.088 115.819L298.713 115.766L299.443 115.714L300.224 115.662H301.11L301.943 116.6L301.11 117.696H300.379L299.65 117.747L299.026 117.8L298.452 117.852L297.879 117.956L297.41 118.113L297.149 118.165L296.941 118.216L296.733 118.321L296.525 118.426L296.368 118.477L296.212 118.582L296.055 118.687L295.899 118.79L295.743 118.895L295.638 119.051L295.483 119.156L295.43 119.259L295.325 119.417L295.222 119.572L295.17 119.73L295.117 119.833L295.065 119.989V120.146L295.014 120.302V120.72L295.065 120.981L295.117 121.188L295.17 121.398L295.274 121.553L295.378 121.711L295.535 121.867L295.638 122.024L295.847 122.18L296.004 122.283L296.21 122.336L296.42 122.44L296.681 122.493L296.889 122.544L297.151 122.596H297.462L297.931 123.744L296.733 124.89Z" fill="#002B49"/>
<path d="M309.34 109.668H312.311V112.013L312.518 111.7L312.727 111.387L312.883 111.126L313.145 110.865L313.352 110.605L313.614 110.398L313.873 110.24L314.135 110.032L314.394 109.875L314.707 109.771L315.02 109.666L315.385 109.562L315.697 109.511L316.062 109.458L316.426 109.406H317.365L317.678 109.458L317.937 109.511L318.146 109.562L318.407 109.614L318.667 109.666L318.928 109.771L319.135 109.875L319.344 109.98L319.553 110.136L319.71 110.24L319.916 110.396L320.126 110.553L320.282 110.709L320.439 110.918L320.595 111.126L320.751 111.336L320.855 111.543L320.96 111.752L321.116 111.961L321.221 112.221L321.324 112.482L321.376 112.743L321.481 113.056L321.532 113.317L321.585 113.628L321.637 113.942L321.689 114.255V114.568L321.742 114.932V124.63H318.72V114.932L318.667 114.568L318.615 114.15L318.563 113.838L318.459 113.525L318.355 113.212L318.25 113.108L318.199 113.003L318.094 112.848L318.042 112.743L317.938 112.638L317.833 112.534L317.729 112.482L317.625 112.377L317.52 112.274L317.416 112.221L317.26 112.169L317.157 112.116L316.999 112.065L316.844 112.013L316.686 111.961H316.531L316.218 111.908H315.488L315.28 111.961H315.072L314.915 112.013L314.708 112.065L314.551 112.116L314.394 112.169L314.238 112.274L314.082 112.326L313.925 112.43L313.769 112.482L313.665 112.587L313.509 112.69L313.404 112.795L313.301 112.899L313.143 113.056L313.04 113.212L312.988 113.317L312.883 113.472L312.779 113.628L312.727 113.786L312.622 113.942L312.57 114.099L312.519 114.306L312.467 114.463L312.414 114.671V114.829L312.362 115.037V115.245L312.309 115.453V124.63H309.34V109.668Z" fill="#002B49"/>
<path d="M331.902 126.507L331.745 126.924L331.589 127.342L331.381 127.706L331.171 128.019L330.964 128.385L330.702 128.645L330.442 128.906L330.181 129.165L330.078 129.218L329.921 129.323L329.765 129.426L329.609 129.531L329.296 129.636L328.983 129.792L328.67 129.897L328.306 129.948L327.941 130H327.057L326.64 129.948L326.276 129.897L325.91 129.792L325.546 129.636L325.181 129.479L324.868 129.323L324.504 129.114L325.494 126.976L325.702 127.132L325.91 127.289L326.172 127.393L326.379 127.445L326.641 127.55L326.848 127.603H327.734L327.89 127.55L328.1 127.498L328.255 127.445L328.411 127.342L328.568 127.289L328.672 127.185L328.776 127.029L328.932 126.924L329.037 126.768L329.14 126.612L329.245 126.402L329.35 126.246L329.401 126.038L329.453 125.83L329.922 124.423L324.242 109.667H327.474L331.382 120.46L335.028 109.667H337.999V109.719L331.902 126.507Z" fill="#002B49"/>
<path d="M99.776 87.9244V77.0803L93.888 73.7958L88 74.5255V87.9244H99.776Z" fill="#00CCFF"/>
<path d="M99.7746 67.6958V66.5481L99.8256 66.0267L99.9304 65.5052L99.9828 64.9851L100.086 64.4637L100.243 63.9947L100.347 63.5257L100.504 63.0566L100.66 62.6386L100.868 62.2207L101.077 61.8041L101.284 61.4385L101.546 61.0743L101.807 60.7087L102.067 60.397L102.328 60.0838L102.639 59.7707L102.952 59.51L103.265 59.2493L103.631 58.9885L103.995 58.7802L104.36 58.5719L104.724 58.4147L105.142 58.2077L105.505 58.1029L105.974 57.9456L106.392 57.8422L106.808 57.7898L107.277 57.7373L107.746 57.6849H108.945L109.257 57.7373L109.57 57.7898H109.883L110.143 57.8422L110.456 57.9456L110.717 57.9981L111.028 58.1029L111.29 58.2064L111.602 58.3112L111.864 58.4147L112.175 58.5719L112.436 58.7278L112.749 58.8837L113.06 59.041L115.979 48.4562L115.613 48.2493L115.302 48.0396L114.936 47.8837L114.624 47.7264L114.26 47.5706L113.894 47.4133L113.581 47.3098L113.217 47.205L112.852 47.1015L112.488 47.0491L112.123 46.9967L111.759 46.9443L111.341 46.8932L110.977 46.8408H109.727L109.309 46.8932H108.893L108.475 46.9443L108.111 46.9967L107.746 47.1015L107.329 47.205L106.964 47.3098L106.6 47.4133L106.235 47.5706L105.923 47.7264L105.558 47.8837L105.193 48.0396L104.881 48.2479L104.568 48.4562L104.255 48.7183L103.942 48.9252L103.631 49.1873L103.318 49.448L103.005 49.7598L102.692 50.0729L102.431 50.3861L102.118 50.7503L101.858 51.1158L101.599 51.4814L101.286 51.8456L101.024 52.2622L100.764 52.6802L100.503 53.0968L100.243 53.5658L100.035 54.0348L99.7732 54.5563V47.674H88V74.5256L88.4163 74.6305L88.8851 74.7339L89.4062 74.8388L89.9273 74.9947L90.5532 75.0995L91.1777 75.2554L91.8559 75.4126L92.5852 75.5685L93.3159 75.7244L94.1486 75.9341L94.9826 76.09L95.8677 76.2983L96.8051 76.5066L97.7426 76.6638L98.7338 76.8708L99.776 77.0804L99.7746 67.6958Z" fill="#002B49"/>
<path d="M136.3 88.759H137.447L138.019 88.7066L138.541 88.6555L139.114 88.6031L139.635 88.5507L140.209 88.4459L140.73 88.3948L141.251 88.29L141.772 88.1851L142.241 88.0817L142.762 87.9244L143.231 87.821L143.752 87.6637L144.22 87.5078L144.689 87.2995L145.158 87.1423L145.576 86.9353L146.044 86.7257L146.461 86.5174L146.929 86.2566L147.347 86.0483L147.763 85.7862L148.18 85.5269L148.545 85.2648L148.961 85.0054L149.327 84.6923L149.743 84.3792L150.056 84.0674L150.421 83.7543L150.785 83.4411L151.151 83.0755L135.363 80.9374L118.949 80.209L119.262 80.678L119.627 81.147L119.991 81.6161L120.357 82.0851L120.773 82.5031L121.138 82.9197L121.555 83.3363L122.023 83.7543L122.441 84.1184L122.91 84.484L123.379 84.8496L123.847 85.1613L124.368 85.5269L124.89 85.84L125.411 86.1518L125.932 86.4139L126.505 86.7257L127.077 86.934L127.651 87.1961L128.224 87.403L128.849 87.6127L129.422 87.8196L130.101 87.9768L130.725 88.1341L131.351 88.29L132.027 88.3948L132.705 88.4983L133.383 88.6031L134.112 88.6555L134.789 88.7066L135.571 88.759H136.3Z" fill="#00CCFF"/>
<path d="M127.497 63.5765L127.601 63.055L127.758 62.586L127.861 62.0646L127.966 61.5955L128.122 61.1776L128.279 60.7085L128.435 60.2919L128.591 59.9264L128.748 59.5098L128.956 59.1966L129.164 58.8324L129.321 58.5193L129.582 58.2062L129.789 57.893L129.998 57.6323L130.259 57.3716L130.519 57.1109L130.78 56.9039L131.04 56.6942L131.353 56.4859L131.665 56.2776L131.978 56.1204L132.291 55.9645L132.604 55.8597L132.915 55.7562L133.281 55.6514L133.646 55.5479L134.01 55.4955L134.428 55.4431L134.844 55.3906H135.678L137.605 51.0632L135.73 46.6833H134.636L133.541 46.7882L132.499 46.893L131.457 47.1L130.415 47.3096L129.425 47.5704L128.487 47.8835L127.55 48.2477L126.612 48.6657L125.726 49.1347L124.892 49.6037L124.058 50.1252L123.276 50.699L122.547 51.3239L121.818 52.0013L121.141 52.68L120.462 53.4097L119.838 54.1919L119.264 54.974L118.743 55.8086L118.222 56.6942L117.754 57.5813L117.337 58.5193L116.919 59.4574L116.608 60.4478L116.295 61.4907L116.033 62.5336L115.826 63.5765L115.669 64.7242L115.513 65.8181L115.461 66.9659V68.9992L115.513 69.8324L115.566 70.6146L115.669 71.4492L115.774 72.2838L115.93 73.0659L116.138 73.8481L116.347 74.6303L116.554 75.36L116.816 76.0898L117.128 76.8195L117.441 77.5506L117.806 78.2266L118.119 78.9053L118.535 79.5826L118.952 80.2089L120.723 80.4696L122.495 80.6765L124.318 80.8862L126.193 81.1469L128.123 81.3552L130.051 81.5635L132.03 81.7208L134.01 81.9291L136.042 82.085L138.127 82.2947L140.211 82.4506L142.348 82.6064L144.483 82.7113L146.671 82.8672L148.913 82.972L151.153 83.0755L151.517 82.7113L151.882 82.2947L152.195 81.8767L152.559 81.4601L152.872 81.0421L153.185 80.5731L153.498 80.1565L153.809 79.6875L144.639 75.1517L144.275 75.7766L143.857 76.3505L143.651 76.6112L143.441 76.8719L143.233 77.1327L143.025 77.341L142.817 77.5493L142.555 77.7576L142.348 77.9672L142.138 78.1742L141.878 78.3314L141.671 78.5397L141.409 78.697L141.201 78.8529L140.939 78.9577L140.68 79.1136L140.419 79.2184L140.159 79.3219L139.898 79.4267L139.585 79.4792L139.325 79.5826L139.013 79.635L138.751 79.6875L138.439 79.7909H138.127L137.814 79.8433L137.45 79.8958H135.626L134.844 79.7909L134.167 79.6875L133.489 79.5302L132.864 79.3233L132.239 79.1136L131.717 78.8529L131.196 78.5397L130.78 78.228L130.362 77.8624L129.946 77.4968L129.582 77.0802L129.269 76.7147L129.007 76.2981L128.748 75.8815L128.486 75.4635L128.279 75.0469L128.122 74.6303L127.966 74.2123L127.81 73.7957L127.706 73.4301L127.601 73.0135L127.55 72.648L127.445 72.3362L127.393 71.7099L127.289 71.2409V70.7719L129.269 67.3825L127.497 63.5765Z" fill="#002B49"/>
<path d="M127.288 70.7719H154.59V67.5908L154.539 66.392L154.486 65.1919L154.382 64.0469L154.226 62.9502L154.069 61.8563L153.862 60.8134L153.6 59.8229L153.287 58.8324L152.975 57.8944L152.558 56.955L152.194 56.0693L151.725 55.2348L151.256 54.4526L150.734 53.6704L150.162 52.9393L149.588 52.2109L148.962 51.5846L148.287 50.9597L147.609 50.3859L146.878 49.8644L146.098 49.343L145.316 48.9264L144.482 48.5084L143.648 48.0918L142.763 47.7787L141.825 47.5179L140.888 47.2572L139.897 47.0489L138.907 46.893L137.917 46.7882L136.822 46.6833H135.728L133.696 51.2715L135.677 55.3906H136.509L136.927 55.4431L137.291 55.4955L137.709 55.5479L138.02 55.6514L138.386 55.7562L138.699 55.8597L139.063 55.9645L139.325 56.1204L139.636 56.2776L139.897 56.4335L140.21 56.6418L140.47 56.8501L140.678 57.0598L140.939 57.3205L141.147 57.5813L141.355 57.842L141.563 58.1537L141.721 58.4669L141.929 58.78L142.085 59.1442L142.242 59.5098L142.345 59.8753L142.502 60.2919L142.606 60.7085L142.71 61.1265L142.815 61.5955L142.919 62.0646L142.971 62.586L143.076 63.055L143.127 63.5765H127.496L125.359 67.2266L127.288 70.7719Z" fill="#002B49"/>
<path d="M182.154 87.9244H195.91L191.69 81.6161L184.707 80.4697L179.027 82.8673L182.154 87.9244Z" fill="#A3BAC8"/>
<path d="M165.79 87.9243L168.708 83.3361L162.925 81.9814L156.777 83.2851L153.598 87.9243H165.79Z" fill="#5A7C91"/>
<path d="M168.71 83.3362L174.077 74.9945L179.026 82.8672L179.807 82.8147L180.589 82.7637L181.371 82.7113L182.205 82.6589L182.986 82.5554L183.768 82.503L184.55 82.3981L185.382 82.3457L186.164 82.2423L186.946 82.1898L187.727 82.085L188.509 81.9815L189.291 81.9291L190.125 81.8243L190.907 81.7208L191.688 81.616L181.476 66.4444L194.553 47.6738H182.414L175.276 59.1442L168.085 47.6738H154.539L167.616 67.3825L156.779 83.2851H157.873L158.967 83.3362H161.156L162.25 83.3886H167.146L167.563 83.3362H168.344H168.71Z" fill="#002B49"/>
<path d="M211.542 87.9243V78.4362L205.028 77.7051L199.766 80.4696V87.9243H211.542Z" fill="#A3BAC8"/>
<path d="M211.542 67.6958V67.122L211.593 66.5481L211.645 66.0267L211.697 65.5052L211.75 64.9851L211.853 64.4637L212.01 63.9947L212.166 63.5257L212.271 63.0566L212.478 62.6386L212.635 62.2207L212.843 61.8041L213.053 61.4385L213.313 61.0743L213.574 60.7087L213.834 60.397L214.146 60.0838L214.408 59.7707L214.719 59.51L215.085 59.2493L215.396 58.9885L215.762 58.7802L216.127 58.5719L216.491 58.4147L216.907 58.2077L217.272 58.1029L217.741 57.9456L218.159 57.8422L218.575 57.7898L219.044 57.7373L219.513 57.6849H220.712L221.024 57.7373L221.337 57.7898H221.65L221.91 57.8422L222.223 57.9456L222.484 57.9981L222.795 58.1029L223.057 58.2064L223.369 58.3112L223.629 58.4147L223.942 58.5719L224.203 58.7278L224.516 58.8837L224.827 59.041L227.746 48.4562L227.433 48.2493L227.069 48.0396L226.703 47.8837L226.391 47.7264L226.027 47.5706L225.661 47.4133L225.348 47.3098L224.984 47.205L224.619 47.1015L224.255 47.0491L223.89 46.9967L223.524 46.9443L223.108 46.8932L222.744 46.8408H221.492L221.076 46.8932H220.66L220.242 46.9443L219.878 46.9967L219.513 47.1015L219.149 47.205L218.731 47.3098L218.367 47.4133L218.054 47.5706L217.689 47.7264L217.325 47.8837L216.96 48.0396L216.647 48.2479L216.335 48.4562L216.022 48.7183L215.709 48.9252L215.396 49.1873L215.085 49.448L214.772 49.7598L214.459 50.0729L214.198 50.3861L213.885 50.7503L213.625 51.1158L213.364 51.4814L213.053 51.8456L212.791 52.2622L212.531 52.6802L212.27 53.0968L212.01 53.5658L211.802 54.0348L211.54 54.5563V47.674H199.766V80.4698L200.495 80.365L201.226 80.2615L202.006 80.1567L202.737 80.0008L203.464 79.896L204.195 79.7911L204.924 79.6352L205.654 79.5304L206.383 79.3745L207.165 79.2697L207.894 79.1138L208.623 79.0089L209.354 78.8531L210.082 78.7482L210.812 78.5924L211.542 78.4365V67.6958Z" fill="#002B49"/>
<path d="M268.073 67.5908V66.7576L268.022 66.3396V65.923L262.134 65.1919L256.091 68.5813V69.1551L256.038 69.7814L255.986 70.1456L255.933 70.5636L255.881 70.9278L255.829 71.3458L255.778 71.7624L255.673 72.179L255.568 72.648L255.465 73.066L255.309 73.535L255.152 73.9516L254.996 74.4206L254.788 74.8386L254.578 75.2552L254.371 75.7242L254.109 76.1422L253.849 76.5064L253.536 76.9244L253.224 77.2886L252.859 77.6017L252.443 77.9673L252.077 78.279L251.609 78.5411L251.14 78.8005L250.671 79.0088L250.15 79.2185L249.577 79.3219L248.951 79.4792L248.326 79.5302L247.492 84.1184L249.316 88.6555L250.358 88.5507L251.348 88.4458L252.338 88.2389L253.275 87.9768L254.267 87.7161L255.152 87.4029L256.038 87.0912L256.923 86.6732L257.757 86.2566L258.591 85.7876L259.373 85.2661L260.102 84.7447L260.884 84.1708L261.561 83.5459L262.238 82.9196L262.864 82.2423L263.488 81.5112L264.009 80.7814L264.583 80.0517L265.051 79.2185L265.52 78.3839L265.989 77.5493L266.354 76.6637L266.72 75.7256L267.031 74.8386L267.293 73.8481L267.552 72.8577L267.709 71.8658L267.865 70.8243L268.022 69.7814L268.073 68.6861V67.5908Z" fill="#5A7C91"/>
<path d="M247.492 79.5827H247.023L246.555 79.5303L246.086 79.4793L245.668 79.4268L245.252 79.322L244.835 79.2185L244.47 79.1137L244.106 78.9578L243.741 78.8006L243.428 78.5936L243.115 78.4364L242.803 78.2281L242.541 78.0184L242.282 77.7577L242.02 77.5507L241.761 77.2886L241.553 77.0279L241.343 76.7672L241.137 76.4541L240.927 76.1933L240.771 75.8816L240.563 75.5684L240.406 75.2553L240.303 74.9946L240.145 74.6814L239.99 74.3697L239.885 74.0565L239.782 73.7434L239.572 73.1185L239.416 72.4922H233.268L227.953 75.0994L228.266 76.1423L228.682 77.1328L229.1 78.0708L229.569 78.9578L230.09 79.791L230.611 80.6256L231.183 81.3567L231.757 82.0851L232.383 82.7114L233.059 83.3363L233.736 83.9626L234.415 84.484L235.092 84.953L235.822 85.4221L236.55 85.8401L237.281 86.2567L238.01 86.5698L238.739 86.8829L239.469 87.1947L240.198 87.4568L240.927 87.6637L241.604 87.9258L242.282 88.0817L242.959 88.2376L243.636 88.3424L244.262 88.4459L244.886 88.5507L245.46 88.6556L246.033 88.7066H246.555L247.023 88.759H247.961L248.429 88.7066H248.847L249.316 88.6556L248.326 79.5303L248.118 79.5827H247.7H247.492Z" fill="#00CCFF"/>
<path d="M238.945 67.748V67.0169L238.998 66.341V65.6623L239.049 64.9849L239.153 64.3587L239.258 63.7324L239.361 63.1599L239.519 62.586L239.674 62.0646L239.83 61.4907L239.987 61.0217L240.195 60.5527L240.404 60.0836L240.612 59.6657L240.874 59.2491L241.133 58.8835L241.446 58.4669L241.759 58.1537L242.072 57.842L242.383 57.5288L242.749 57.2667L243.114 57.0074L243.478 56.7991L243.894 56.5894L244.312 56.4335L244.781 56.2776L245.197 56.1204L245.666 56.0169L246.135 55.9121H246.657L247.178 55.8597H248.219L248.688 55.9121L249.156 55.9645L249.625 56.0169L250.043 56.1204L250.461 56.2776L250.877 56.4335L251.293 56.5894L251.659 56.8515L252.023 57.0584L252.388 57.3205L252.753 57.5813L253.065 57.893L253.378 58.2062L253.64 58.5193L253.899 58.8835L254.161 59.3015L254.42 59.7181L254.628 60.1361L254.836 60.5527L255.046 61.0741L255.253 61.5431L255.41 62.0646L255.567 62.586L255.67 63.1599L255.775 63.7324L255.878 64.3587L255.931 64.9849L256.036 65.6098V66.2872L256.088 66.9659V68.5812L256.817 68.4254L257.599 68.2171L258.381 68.0598L259.11 67.9039L259.839 67.6956L260.621 67.5384L261.35 67.3825L262.079 67.2266L262.861 67.0693L263.592 66.8624L264.32 66.7051L265.05 66.5479L265.831 66.392L266.561 66.2361L267.291 66.0789L268.02 65.923L267.915 65.0884L267.81 64.2538L267.707 63.3682L267.499 62.5336L267.291 61.699L267.029 60.8658L266.769 59.9788L266.456 59.1966L266.144 58.3634L265.727 57.5288L265.309 56.6942L264.893 55.9121L264.372 55.1299L263.851 54.4002L263.33 53.669L262.705 52.9931L262.079 52.3144L261.403 51.6371L260.672 51.0108L259.943 50.4383L259.161 49.8644L258.328 49.343L257.442 48.874L256.557 48.456L255.619 48.0394L254.628 47.7262L253.586 47.4131L252.493 47.1538L251.398 46.9441L250.251 46.7882L249.053 46.7358L247.803 46.6833H246.657L245.51 46.7882L244.415 46.893L243.373 47.1L242.332 47.3096L241.29 47.5704L240.3 47.8835L239.363 48.2477L238.424 48.6657L237.487 49.0823L236.6 49.6037L235.766 50.1252L234.984 50.699L234.204 51.2715L233.473 51.9502L232.744 52.6275L232.067 53.3587L231.441 54.1394L230.869 54.9216L230.296 55.7562L229.775 56.5894L229.306 57.4764L228.837 58.4145L228.472 59.3525L228.107 60.3444L227.795 61.3872L227.533 62.4301L227.326 63.4716L227.169 64.567L227.066 65.6623L226.961 66.8086V69.4696L227.013 69.9387L227.066 70.4077V70.8767L227.169 71.3457L227.221 71.7637L227.274 72.2327L227.377 72.6493L227.43 73.0673L227.534 73.4839L227.69 74.3185L227.952 75.1007L228.628 74.9434L229.409 74.7365L230.088 74.5792L230.817 74.422L231.546 74.2661L232.277 74.1102L233.005 73.9529L233.683 73.7971L234.412 73.5888L235.142 73.4315L235.871 73.2756L236.601 73.1197L237.277 72.9625L238.008 72.8066L238.737 72.6493L239.414 72.4935L239.361 72.0769L239.258 71.6589L239.206 71.2423L239.153 70.8767L239.049 70.147L238.998 69.522L238.945 68.9482V68.0074V67.748Z" fill="#002B49"/>
<path d="M287.455 88.7592H288.134L288.863 88.7068L289.487 88.6557L290.166 88.5509L290.79 88.4461L291.467 88.2902L292.041 88.1343L292.667 87.977L293.24 87.7687L293.812 87.5604L294.386 87.2983L294.959 86.9866L295.48 86.6734L296.001 86.3617L296.522 85.9961L297.044 85.5795L294.176 77.7578L293.656 78.071L293.135 78.2793L292.875 78.4365L292.614 78.54L292.406 78.5924L292.144 78.6973L291.885 78.7483L291.677 78.8007L291.415 78.8531L291.156 78.9056L290.894 78.958H290.634L290.373 79.009H289.907L289.697 78.958H289.49L289.333 78.9056H289.125L288.968 78.8531L288.812 78.8007L288.656 78.6973L288.499 78.6448L288.343 78.5924L288.186 78.4876L288.03 78.3841L287.926 78.2793L287.822 78.1758L287.665 78.071L287.562 77.9151L287.509 77.7578L287.404 77.602L287.301 77.4461L287.196 77.2888L287.144 77.1329L287.093 76.9757L287.04 76.7687L286.936 76.5591L286.883 76.3508V76.1425L286.832 75.8804V75.6734L286.78 75.152L286.728 74.6305V62.378L280.787 61.4399L275.004 64.4638V76.8198L275.056 77.5509L275.109 78.2269L275.212 78.9056L275.317 79.5829L275.473 80.2092L275.63 80.8341L275.786 81.4604L276.046 82.0342L276.254 82.5543L276.567 83.1281L276.828 83.6496L277.141 84.1186L277.505 84.5876L277.87 85.0056L278.234 85.4222L278.652 85.8402L279.068 86.2044L279.537 86.57L280.005 86.8817L280.527 87.1438L281.048 87.4556L281.569 87.6639L282.142 87.926L282.768 88.0819L283.34 88.2902L283.966 88.4461L284.643 88.5509L285.321 88.6033L285.997 88.7068L286.728 88.7592H287.455Z" fill="#5A7C91"/>
<path d="M286.724 56.8501H295.217V47.6738H286.724V35.5261L275.001 39.5928V47.6738H269.426V56.8501H275.001V64.4635L275.731 64.3062L276.459 64.1504L277.241 64.0455L277.972 63.8896L278.701 63.7324L279.43 63.6289L280.212 63.4717L280.941 63.3682L281.67 63.2109L282.401 63.0551L283.129 62.9502L283.86 62.8468L284.589 62.6909L285.318 62.586L286.048 62.4812L286.724 62.3777V56.8501Z" fill="#002B49"/>
<path d="M326.222 63.4718V87.9245H337.998V63.7326L332.058 60.397L326.117 61.6482L326.17 62.0648L326.222 62.5338V62.9504V63.4718Z" fill="#DF0024"/>
<path d="M312.881 87.9244V63.16L312.934 62.6385L312.986 62.1695L313.091 61.7005L313.194 61.2825L313.299 60.8659L313.403 60.4479L307.047 58.8325L301.105 60.7086V87.9272L312.881 87.9244Z" fill="#00CCFF"/>
<path d="M313.405 60.4479L313.562 60.0837L313.718 59.6658L313.926 59.3016L314.083 58.9884L314.29 58.6753L314.552 58.3635L314.76 58.1014L315.021 57.8421L315.229 57.58L315.491 57.3731L315.75 57.1634L316.012 57.0075L316.271 56.8502L316.532 56.6943L316.792 56.5385L317.053 56.4336L317.313 56.3288L317.574 56.2253L317.835 56.1729L318.043 56.1205L318.564 56.017L318.98 55.9122L319.398 55.8598H320.231L320.544 55.8087L321.169 55.8598H321.378L321.586 55.9122H321.794L322.056 55.9646L322.263 56.017L322.525 56.1205L322.784 56.2253L322.993 56.3288L323.254 56.4336L323.514 56.5895L323.775 56.7992L324.036 56.9551L324.242 57.1634L324.504 57.4255L324.711 57.7372L324.921 57.998L325.129 58.3621L325.337 58.7277L325.494 59.0933L325.65 59.5623L325.807 60.0313L325.91 60.5003L326.068 61.0742L326.119 61.6481L326.9 61.7515L327.631 61.8564L328.411 61.9598L329.142 62.1171L329.871 62.2206L330.653 62.3254L331.382 62.4813L332.111 62.5861L332.841 62.742L333.622 62.8993L334.352 63.0027L335.082 63.16L335.81 63.3159L336.541 63.4207L337.27 63.5766L337.999 63.7325V62.1695L337.947 61.2825L337.895 60.4479L337.79 59.6147L337.686 58.8325L337.582 58.0504L337.478 57.2682L337.321 56.486L337.114 55.7549L336.905 55.079L336.697 54.4003L336.435 53.7229L336.175 53.0967L335.863 52.4718L335.55 51.8979L335.186 51.324L334.82 50.8026L334.404 50.2811L333.935 49.8121L333.466 49.3955L332.998 48.9775L332.475 48.5609L331.903 48.2478L331.277 47.8836L330.651 47.6215L330.027 47.4146L329.35 47.1525L328.568 46.9966L327.838 46.8407L327.005 46.7883L326.171 46.6835H324.816L324.244 46.7359H323.775L323.254 46.7883L322.785 46.8407L322.263 46.9442L321.794 47.049L321.325 47.1539L320.909 47.2573L320.44 47.4132L320.022 47.518L319.554 47.7263L319.19 47.8836L318.772 48.0395L318.356 48.2478L317.99 48.5099L317.574 48.7168L317.209 48.9789L316.845 49.2383L316.479 49.5004L316.115 49.8121L315.803 50.1253L315.49 50.4384L315.124 50.8026L314.813 51.1157L314.5 51.4813L314.239 51.8979L313.926 52.2621L313.666 52.6801L313.353 53.0967L313.092 53.5146L312.885 53.9837V30H301.109V60.7086L302.099 60.6052L303.141 60.5528L304.131 60.5003L305.121 60.4479L306.111 60.3969H311.791L312.312 60.4479H312.884H313.405Z" fill="#002B49"/>
</svg>
