<svg width="428" height="160" viewBox="0 0 428 160" fill="none" xmlns="http://www.w3.org/2000/svg">
<path fill-rule="evenodd" clip-rule="evenodd" d="M100.382 66.4631L95.2973 55.2854L81.3086 55.1338L86.7565 66.5694L100.382 66.4631Z" fill="#009EE0"/>
<path fill-rule="evenodd" clip-rule="evenodd" d="M108.296 52.6407L112.479 40.1934L73.3242 40L79.825 52.2748L108.296 52.6407Z" fill="#009EE0"/>
<path fill-rule="evenodd" clip-rule="evenodd" d="M85.9184 110.636L96.1761 83.3162L115.444 119.965L128.853 119.859L101.775 68.9327L88.2576 68.9132L78.2398 96.7272L55.2818 53.7574L42 53.7378L72.2734 110.615L85.9184 110.636Z" fill="#009EE0"/>
<path d="M144.83 96.6407L135.52 67.7539H146.651L150.838 85.3738L155.206 67.7539H164.677L169.045 85.3738L173.256 67.7539H183.939L175.049 96.6407H164.029L159.956 79.9257L155.855 96.6407H144.83Z" fill="#009EE0"/>
<path fill-rule="evenodd" clip-rule="evenodd" d="M206.742 88.1011H217.491C216.711 91.2474 215.002 93.6302 212.363 95.2478C209.723 96.865 206.239 97.6755 201.911 97.6755C197.064 97.6755 193.217 96.2962 190.369 93.5438C187.521 90.789 186.098 87.0817 186.098 82.4248C186.098 77.5705 187.551 73.7416 190.459 70.9318C193.368 68.1261 197.323 66.7212 202.323 66.7212C207.343 66.7212 211.277 68.25 214.122 71.3095C216.97 74.3674 218.394 78.6095 218.394 84.036V84.729L197.325 84.7543C197.376 86.5862 197.853 88.0029 198.755 88.9983C199.658 89.9958 200.915 90.494 202.527 90.494C203.621 90.494 204.531 90.2895 205.261 89.876C205.988 89.4648 206.483 88.8724 206.742 88.1011ZM197.325 78.9612H207.327C207.208 77.1651 206.721 75.8189 205.872 74.9217C205.026 74.0245 203.802 73.5759 202.21 73.5759C200.737 73.5759 199.572 74.0501 198.714 75.0003C197.858 75.9529 197.394 77.2714 197.325 78.9612Z" fill="#009EE0"/>
<path d="M222.973 96.6407V67.7539H233.187V71.9825C234.503 70.3021 235.972 69.0505 237.592 68.2262C239.212 67.4036 241.046 66.9924 243.088 66.9924C244.803 66.9924 246.339 67.2837 247.69 67.8701C249.041 68.4523 250.186 69.3222 251.121 70.4713C251.971 71.516 252.573 72.7872 252.928 74.2842C253.283 75.7796 253.462 78.2275 253.462 81.6274V96.6407H242.234V81.681C242.234 79.4849 241.947 77.974 241.376 77.1494C240.805 76.3268 239.817 75.9136 238.412 75.9136C236.991 75.9136 235.934 76.3919 235.239 77.3499C234.545 78.3062 234.2 79.7661 234.2 81.7337V96.6404L222.973 96.6407Z" fill="#009EE0"/>
<path fill-rule="evenodd" clip-rule="evenodd" d="M259.787 99.7417H270.909C271.048 100.438 271.372 100.942 271.883 101.245C272.394 101.55 273.167 101.702 274.204 101.702C275.85 101.702 276.962 101.328 277.541 100.584C278.12 99.8399 278.411 98.1991 278.411 95.6647V94.0965C277.457 95.0349 276.327 95.7393 275.017 96.2099C273.71 96.6781 272.215 96.912 270.532 96.912C266.722 96.912 263.666 95.578 261.371 92.9137C259.075 90.248 257.926 86.7 257.926 82.271C257.926 77.6138 259.022 73.9027 261.213 71.1365C263.405 68.3739 266.329 66.9927 269.988 66.9927C272.032 66.9927 273.814 67.3586 275.33 68.0948C276.846 68.8307 278.16 69.9679 279.269 71.5105V67.7539H289.211V94.4151C289.211 99.446 288.009 103.014 285.601 105.121C283.197 107.23 279.136 108.283 273.423 108.283C269.458 108.283 266.29 107.537 263.917 106.05C261.545 104.558 260.168 102.457 259.787 99.7417ZM269.098 82.0114C269.098 84.3314 269.473 86.0512 270.217 87.1766C270.964 88.3 272.099 88.8607 273.625 88.8607C275.239 88.8607 276.431 88.3139 277.201 87.2158C277.973 86.1181 278.359 84.4023 278.359 82.0647C278.359 79.9766 277.947 78.3577 277.122 77.2063C276.299 76.0553 275.133 75.4788 273.624 75.4788C272.098 75.4788 270.963 76.0239 270.217 77.1139C269.473 78.1998 269.098 79.8332 269.098 82.0114Z" fill="#009EE0"/>
<path d="M306.885 57.5273H295.551V96.6409H306.885V57.5273Z" fill="#009EE0"/>
<path fill-rule="evenodd" clip-rule="evenodd" d="M311.742 82.1589C311.742 77.3758 313.162 73.6077 316.002 70.8529C318.842 68.0982 322.748 66.7209 327.719 66.7209C332.687 66.7209 336.589 68.0985 339.421 70.8529C342.251 73.6077 343.667 77.3755 343.667 82.1589C343.667 86.9758 342.245 90.7652 339.406 93.5317C336.568 96.2923 332.672 97.6752 327.719 97.6752C322.766 97.6752 318.864 96.2919 316.016 93.5317C313.166 90.7652 311.742 86.9758 311.742 82.1589ZM323.074 82.1589C323.074 84.835 323.435 86.7554 324.154 87.924C324.875 89.0929 326.059 89.6789 327.707 89.6789C329.353 89.6789 330.547 89.0889 331.283 87.9122C332.018 86.7318 332.389 84.8151 332.389 82.1589C332.389 79.5186 332.017 77.6198 331.283 76.4587C330.546 75.2978 329.353 74.7172 327.707 74.7172C326.059 74.7172 324.875 75.2938 324.154 76.4448C323.435 77.5979 323.074 79.5007 323.074 82.1589Z" fill="#009EE0"/>
<path d="M348.289 96.6407V67.7539H358.66V73.0174C359.405 70.9296 360.475 69.4029 361.867 68.4409C363.262 67.4748 365.12 66.9924 367.443 66.9924H368.454V78.4402C368.04 78.4048 367.641 78.3754 367.26 78.3494C366.879 78.3221 366.516 78.3082 366.17 78.3082C363.9 78.3082 362.233 78.8297 361.166 79.8765C360.102 80.9215 359.57 82.5604 359.57 84.7919V96.641H348.289" fill="#009EE0"/>
<path fill-rule="evenodd" clip-rule="evenodd" d="M375.938 56.2494H377.083C377.866 56.2454 378.453 56.3723 378.842 56.6292C379.231 56.8871 379.426 57.2911 379.424 57.8491C379.426 58.3794 379.245 58.7659 378.88 59.0079C378.515 59.252 377.961 59.3731 377.216 59.3691H375.938V56.2494ZM373.335 54.5995V65.336H375.938V60.938H377.216L379.264 65.3357H382.162L379.769 60.5397C380.506 60.346 381.079 60.0017 381.488 59.5038C381.896 59.0079 382.1 58.404 382.106 57.6887C382.108 56.6626 381.727 55.8913 380.967 55.3758C380.207 54.8594 379.064 54.6015 377.536 54.5995H373.335ZM377.348 52.0671C378.469 52.0671 379.514 52.2727 380.484 52.6791C381.452 53.0882 382.332 53.6935 383.117 54.4931C383.878 55.2644 384.449 56.1374 384.832 57.1061C385.215 58.0752 385.405 59.1406 385.405 60.2994C385.401 61.3492 385.2 62.3527 384.791 63.3137C384.384 64.273 383.801 65.125 383.039 65.8687C382.234 66.6322 381.344 67.2165 380.37 67.6216C379.398 68.031 378.381 68.2356 377.322 68.2396C376.25 68.2356 375.225 68.0233 374.244 67.602C373.267 67.1848 372.387 66.5768 371.607 65.7876C370.847 65.0204 370.27 64.1556 369.879 63.1925C369.488 62.2295 369.292 61.2121 369.29 60.1397C369.294 59.0643 369.507 58.0303 369.926 57.0386C370.346 56.0479 370.951 55.1547 371.739 54.3588C372.499 53.5993 373.353 53.0278 374.296 52.642C375.239 52.2579 376.256 52.0671 377.348 52.0671ZM377.322 50.4712C375.565 50.481 373.976 50.8925 372.556 51.7019C371.136 52.5114 369.985 53.6547 369.106 55.1314C368.628 55.9433 368.275 56.7696 368.043 57.6098C367.811 58.4479 367.698 59.2999 367.699 60.1667C367.701 61.4278 367.937 62.6342 368.404 63.787C368.87 64.938 369.555 65.977 370.462 66.9076C371.401 67.8579 372.456 68.5802 373.624 69.0801C374.793 69.5797 376.024 69.8319 377.323 69.8356C378.583 69.8315 379.799 69.5915 380.967 69.1136C382.138 68.6352 383.2 67.9368 384.159 67.016C385.078 66.1147 385.781 65.0838 386.266 63.9179C386.751 62.7561 386.995 61.5048 386.999 60.1667C386.997 58.8671 386.765 57.6381 386.3 56.4813C385.836 55.3222 385.156 54.2872 384.263 53.3745C383.326 52.4249 382.268 51.7039 381.091 51.2121C379.916 50.7213 378.66 50.4732 377.322 50.4712Z" fill="#009EE0"/>
</svg>
