<svg width="427" height="160" viewBox="0 0 427 160" fill="none" xmlns="http://www.w3.org/2000/svg">
<path d="M279.997 94.7112H254.68V115.836H279.997V94.7112Z" fill="#008883"/>
<path d="M137.65 107.356L137.59 107.447V115.836H173.736V44.8633H137.59L137.65 53.3435C150.022 71.3071 149.992 88.9666 137.65 107.356Z" fill="#008883"/>
<path d="M205.68 75.2585L204.651 74.3771L205.498 73.3132C209.37 68.3892 210.278 61.9151 207.858 55.988C205.105 49.2403 198.965 44.9242 191.826 44.6506H177.73V115.836H191.826C201.808 115.289 209.824 109.119 212.697 99.7266C215.48 90.7905 212.758 81.4287 205.68 75.2585Z" fill="#008883"/>
<path d="M213.088 77.8724C219.258 87.7204 219.258 97.5077 213.088 107.812L213.027 107.903V115.836L250.505 115.958V44.7417L213.027 44.6201L213.088 77.8724Z" fill="#008883"/>
<path d="M275.914 44.6506V65.7753H254.68V44.6506H275.914Z" fill="#008883"/>
<path d="M279.997 69.4834H254.68V90.3953H279.997V69.4834Z" fill="#008883"/>
<path d="M279.211 65.5017H283.778L283.869 115.836H319.502V44.6506H279.302L279.211 65.5017Z" fill="#008883"/>
<path d="M126.308 47.6595L102.502 88.5106L78.7273 47.6292C68.5941 54.8936 62 66.6869 62 80C62 102.097 80.1489 120 102.502 120C124.886 120 143.005 102.097 143.005 80C143.005 63.4042 133.235 52.614 126.308 47.6595Z" fill="#008883"/>
<path d="M123.01 45.5319C116.99 42.0365 110.003 40 102.501 40C95.0302 40 88.0428 42.0365 82.0234 45.5319L102.501 80.7295L123.01 45.5319Z" fill="#D6000D"/>
<path d="M327.914 90.7294V115.836H364V44.7112H327.914V69.8176H323.195V90.7294H327.914Z" fill="#008883"/>
</svg>
