<svg width="143" height="51" viewBox="0 0 143 51" fill="none" xmlns="http://www.w3.org/2000/svg">
<path d="M1.03125 15V3.35938H4.96875C5.88021 3.35938 6.625 3.52344 7.20312 3.85156C7.78646 4.17969 8.21875 4.6224 8.5 5.17969C8.78125 5.73698 8.92188 6.35938 8.92188 7.04688C8.92188 7.72917 8.78125 8.35156 8.5 8.91406C8.22396 9.47656 7.79427 9.92448 7.21094 10.2578C6.63281 10.5859 5.89062 10.75 4.98438 10.75H2.17188V9.5H4.9375C5.5625 9.5 6.0651 9.39323 6.44531 9.17969C6.82552 8.96615 7.10156 8.67448 7.27344 8.30469C7.44531 7.92969 7.53125 7.51042 7.53125 7.04688C7.53125 6.57812 7.44531 6.16146 7.27344 5.79688C7.10156 5.42708 6.82292 5.13802 6.4375 4.92969C6.05729 4.71615 5.55208 4.60938 4.92188 4.60938H2.4375V15H1.03125ZM12.5081 15.2031C11.956 15.2031 11.4534 15.099 11.0003 14.8906C10.5472 14.6771 10.1878 14.3698 9.92219 13.9688C9.65656 13.5677 9.52375 13.0833 9.52375 12.5156C9.52375 12.0156 9.62271 11.612 9.82063 11.3047C10.0185 10.9922 10.2816 10.7474 10.6097 10.5703C10.943 10.388 11.3076 10.2526 11.7034 10.1641C12.1045 10.0755 12.5081 10.0052 12.9144 9.95312C13.4456 9.88542 13.8753 9.83333 14.2034 9.79688C14.5368 9.76042 14.779 9.69792 14.93 9.60938C15.0863 9.52083 15.1644 9.36979 15.1644 9.15625V9.10938C15.1644 8.55208 15.0107 8.11979 14.7034 7.8125C14.4014 7.5 13.9404 7.34375 13.3206 7.34375C12.6852 7.34375 12.1852 7.48438 11.8206 7.76562C11.456 8.04167 11.2008 8.33854 11.055 8.65625L9.77375 8.20312C10.0029 7.67188 10.3076 7.25781 10.6878 6.96094C11.0732 6.66406 11.4899 6.45573 11.9378 6.33594C12.3909 6.21615 12.8363 6.15625 13.2738 6.15625C13.555 6.15625 13.8779 6.1901 14.2425 6.25781C14.6071 6.32031 14.9613 6.45573 15.305 6.66406C15.654 6.86719 15.9404 7.17708 16.1644 7.59375C16.3935 8.00521 16.5081 8.55729 16.5081 9.25V15H15.1644V13.8125H15.1019C15.0133 14 14.8623 14.2031 14.6488 14.4219C14.4352 14.6354 14.1514 14.8203 13.7972 14.9766C13.4482 15.1276 13.0185 15.2031 12.5081 15.2031ZM12.7113 14C13.2425 14 13.6904 13.8958 14.055 13.6875C14.4196 13.4792 14.6956 13.2109 14.8831 12.8828C15.0706 12.5495 15.1644 12.2031 15.1644 11.8438V10.6094C15.1071 10.6771 14.9821 10.7396 14.7894 10.7969C14.6019 10.849 14.3831 10.8958 14.1331 10.9375C13.8883 10.9792 13.6488 11.0156 13.4144 11.0469C13.18 11.0729 12.9925 11.0938 12.8519 11.1094C12.5029 11.1562 12.1774 11.2318 11.8753 11.3359C11.5732 11.4349 11.3284 11.5833 11.1409 11.7812C10.9586 11.9792 10.8675 12.25 10.8675 12.5938C10.8675 13.0573 11.0394 13.4089 11.3831 13.6484C11.7321 13.8828 12.1748 14 12.7113 14ZM17.735 12.7656H19.1569C19.1933 13.1615 19.3756 13.4635 19.7038 13.6719C20.0319 13.875 20.459 13.9792 20.985 13.9844C21.5215 13.9792 21.9798 13.8672 22.36 13.6484C22.7402 13.4245 22.9329 13.0625 22.9381 12.5625C22.9381 12.2708 22.8652 12.0182 22.7194 11.8047C22.5735 11.5859 22.3704 11.4167 22.11 11.2969C21.8496 11.1719 21.5423 11.1094 21.1881 11.1094H19.6881V9.90625H21.1881C21.7194 9.90625 22.1126 9.78646 22.3678 9.54688C22.623 9.30729 22.7506 9.00521 22.7506 8.64062C22.7506 8.25 22.6126 7.9375 22.3366 7.70312C22.0605 7.46354 21.6673 7.34375 21.1569 7.34375C20.6517 7.34375 20.2272 7.45833 19.8834 7.6875C19.5449 7.91146 19.3652 8.20312 19.3444 8.5625H17.9381C17.9538 8.09375 18.097 7.67969 18.3678 7.32031C18.6386 6.95573 19.0084 6.67188 19.4772 6.46875C19.9511 6.26042 20.4902 6.15625 21.0944 6.15625C21.709 6.15625 22.2402 6.26302 22.6881 6.47656C23.1413 6.6901 23.4928 6.98177 23.7428 7.35156C23.9928 7.71615 24.1152 8.13021 24.11 8.59375C24.1152 9.08333 23.9772 9.48177 23.6959 9.78906C23.4199 10.0911 23.0735 10.3073 22.6569 10.4375V10.5156C22.985 10.5417 23.2715 10.6484 23.5163 10.8359C23.7663 11.0234 23.959 11.2682 24.0944 11.5703C24.2298 11.8672 24.2975 12.1979 24.2975 12.5625C24.2975 13.0938 24.1543 13.5573 23.8678 13.9531C23.5866 14.3438 23.1985 14.6458 22.7038 14.8594C22.209 15.0729 21.6413 15.1823 21.0006 15.1875C20.3808 15.1823 19.8261 15.0781 19.3366 14.875C18.8522 14.6719 18.4668 14.3906 18.1803 14.0312C17.8991 13.6667 17.7506 13.2448 17.735 12.7656ZM24.7431 18.2656V6.26562H26.0244V7.65625H26.1806C26.2796 7.50521 26.4176 7.3125 26.5947 7.07812C26.7718 6.83854 27.027 6.625 27.3603 6.4375C27.6936 6.25 28.1442 6.15625 28.7119 6.15625C29.4463 6.15625 30.0921 6.34115 30.6494 6.71094C31.2067 7.07552 31.6416 7.59635 31.9541 8.27344C32.2718 8.94531 32.4306 9.73958 32.4306 10.6562C32.4306 11.5781 32.2744 12.3802 31.9619 13.0625C31.6494 13.7396 31.2145 14.263 30.6572 14.6328C30.0999 15.0026 29.4567 15.1875 28.7275 15.1875C28.1702 15.1875 27.7223 15.0938 27.3838 14.9062C27.0452 14.7135 26.7848 14.4974 26.6025 14.2578C26.4202 14.013 26.2796 13.8125 26.1806 13.6562H26.0713V18.2656H24.7431ZM28.5556 13.9844C29.1129 13.9844 29.5791 13.8359 29.9541 13.5391C30.3291 13.237 30.6103 12.8333 30.7978 12.3281C30.9905 11.8229 31.0869 11.2604 31.0869 10.6406C31.0869 10.026 30.9931 9.47135 30.8056 8.97656C30.6181 8.48177 30.3369 8.08854 29.9619 7.79688C29.5921 7.50521 29.1233 7.35938 28.5556 7.35938C28.0088 7.35938 27.5504 7.4974 27.1806 7.77344C26.8108 8.04427 26.5296 8.42708 26.3369 8.92188C26.1494 9.41146 26.0556 9.98438 26.0556 10.6406C26.0556 11.2969 26.152 11.8776 26.3447 12.3828C26.5374 12.8828 26.8186 13.276 27.1884 13.5625C27.5634 13.8438 28.0192 13.9844 28.5556 13.9844ZM35.97 15.2031C35.4179 15.2031 34.9153 15.099 34.4622 14.8906C34.0091 14.6771 33.6497 14.3698 33.3841 13.9688C33.1184 13.5677 32.9856 13.0833 32.9856 12.5156C32.9856 12.0156 33.0846 11.612 33.2825 11.3047C33.4804 10.9922 33.7434 10.7474 34.0716 10.5703C34.4049 10.388 34.7695 10.2526 35.1653 10.1641C35.5664 10.0755 35.97 10.0052 36.3763 9.95312C36.9075 9.88542 37.3372 9.83333 37.6653 9.79688C37.9986 9.76042 38.2408 9.69792 38.3919 9.60938C38.5481 9.52083 38.6263 9.36979 38.6263 9.15625V9.10938C38.6263 8.55208 38.4726 8.11979 38.1653 7.8125C37.8632 7.5 37.4023 7.34375 36.7825 7.34375C36.1471 7.34375 35.6471 7.48438 35.2825 7.76562C34.9179 8.04167 34.6627 8.33854 34.5169 8.65625L33.2356 8.20312C33.4648 7.67188 33.7695 7.25781 34.1497 6.96094C34.5351 6.66406 34.9518 6.45573 35.3997 6.33594C35.8528 6.21615 36.2981 6.15625 36.7356 6.15625C37.0169 6.15625 37.3398 6.1901 37.7044 6.25781C38.069 6.32031 38.4231 6.45573 38.7669 6.66406C39.1158 6.86719 39.4023 7.17708 39.6263 7.59375C39.8554 8.00521 39.97 8.55729 39.97 9.25V15H38.6263V13.8125H38.5638C38.4752 14 38.3242 14.2031 38.1106 14.4219C37.8971 14.6354 37.6132 14.8203 37.2591 14.9766C36.9101 15.1276 36.4804 15.2031 35.97 15.2031ZM36.1731 14C36.7044 14 37.1523 13.8958 37.5169 13.6875C37.8815 13.4792 38.1575 13.2109 38.345 12.8828C38.5325 12.5495 38.6263 12.2031 38.6263 11.8438V10.6094C38.569 10.6771 38.444 10.7396 38.2513 10.7969C38.0638 10.849 37.845 10.8958 37.595 10.9375C37.3502 10.9792 37.1106 11.0156 36.8763 11.0469C36.6419 11.0729 36.4544 11.0938 36.3138 11.1094C35.9648 11.1562 35.6393 11.2318 35.3372 11.3359C35.0351 11.4349 34.7903 11.5833 34.6028 11.7812C34.4205 11.9792 34.3294 12.25 34.3294 12.5938C34.3294 13.0573 34.5013 13.4089 34.845 13.6484C35.194 13.8828 35.6367 14 36.1731 14ZM47.8375 3L48.525 3.8125C48.2594 4.07292 47.9521 4.25521 47.6031 4.35938C47.2542 4.45833 46.8583 4.52083 46.4156 4.54688C45.9781 4.56771 45.4885 4.58854 44.9469 4.60938C44.3427 4.63021 43.8427 4.77865 43.4469 5.05469C43.051 5.32552 42.7438 5.71875 42.525 6.23438C42.3115 6.75 42.176 7.38542 42.1188 8.14062H42.2281C42.5198 7.59375 42.926 7.19271 43.4469 6.9375C43.9729 6.67708 44.5354 6.54688 45.1344 6.54688C45.8167 6.54688 46.4286 6.70573 46.9703 7.02344C47.5172 7.34115 47.9495 7.8125 48.2672 8.4375C48.5901 9.0625 48.749 9.83333 48.7438 10.75C48.749 11.6615 48.5901 12.4505 48.2672 13.1172C47.9443 13.7786 47.4911 14.2891 46.9078 14.6484C46.3245 15.0026 45.6448 15.1823 44.8688 15.1875C43.6917 15.1823 42.7438 14.7656 42.025 13.9375C41.3115 13.1042 40.9521 11.8802 40.9469 10.2656V9.34375C40.9521 7.39583 41.2828 5.92188 41.9391 4.92188C42.6005 3.91667 43.5979 3.39583 44.9313 3.35938C45.4 3.34375 45.8167 3.34115 46.1813 3.35156C46.551 3.35677 46.8714 3.33854 47.1422 3.29688C47.4182 3.25521 47.65 3.15625 47.8375 3ZM44.8688 13.9844C45.3948 13.9792 45.8453 13.8464 46.2203 13.5859C46.6005 13.3203 46.8922 12.9453 47.0953 12.4609C47.3036 11.9766 47.4052 11.4062 47.4 10.75C47.4052 10.1146 47.3036 9.57292 47.0953 9.125C46.8922 8.67708 46.5979 8.33594 46.2125 8.10156C45.8323 7.86719 45.374 7.75 44.8375 7.75C44.4469 7.75 44.0953 7.81771 43.7828 7.95312C43.4755 8.08333 43.2125 8.27865 42.9938 8.53906C42.775 8.79427 42.6057 9.10677 42.4859 9.47656C42.3661 9.84635 42.301 10.2708 42.2906 10.75C42.2906 11.724 42.5198 12.5052 42.9781 13.0938C43.4365 13.6823 44.0667 13.9792 44.8688 13.9844ZM53.2519 15.1875C52.4654 15.1875 51.7753 15 51.1816 14.625C50.5878 14.25 50.1243 13.724 49.7909 13.0469C49.4628 12.3698 49.2988 11.5833 49.2988 10.6875C49.2988 9.77604 49.4628 8.98177 49.7909 8.30469C50.1243 7.6224 50.5878 7.09375 51.1816 6.71875C51.7753 6.34375 52.4654 6.15625 53.2519 6.15625C54.0435 6.15625 54.7363 6.34375 55.33 6.71875C55.9238 7.09375 56.3873 7.6224 56.7206 8.30469C57.054 8.98177 57.2206 9.77604 57.2206 10.6875C57.2206 11.5833 57.054 12.3698 56.7206 13.0469C56.3873 13.724 55.9238 14.25 55.33 14.625C54.7363 15 54.0435 15.1875 53.2519 15.1875ZM53.2519 13.9844C53.856 13.9844 54.3508 13.8307 54.7363 13.5234C55.1217 13.2161 55.4081 12.8125 55.5956 12.3125C55.7831 11.8073 55.8769 11.2656 55.8769 10.6875C55.8769 10.099 55.7831 9.55208 55.5956 9.04688C55.4081 8.54167 55.1217 8.13542 54.7363 7.82812C54.3508 7.51562 53.856 7.35938 53.2519 7.35938C52.6581 7.35938 52.1685 7.51562 51.7831 7.82812C51.3977 8.13542 51.1113 8.54167 50.9238 9.04688C50.7363 9.55208 50.6425 10.099 50.6425 10.6875C50.6425 11.2656 50.7363 11.8073 50.9238 12.3125C51.1113 12.8125 51.3977 13.2161 51.7831 13.5234C52.1685 13.8307 52.6581 13.9844 53.2519 13.9844ZM57.0569 7.51562V6.26562H64.135V7.51562H61.2756V15H59.9319V7.51562H57.0569ZM65.0338 15V6.26562H66.3619V10.0625H67.2525L70.3931 6.26562H72.1119L68.5963 10.4844L72.1588 15H70.44L67.565 11.3125H66.3619V15H65.0338ZM75.1044 15.2031C74.5523 15.2031 74.0497 15.099 73.5966 14.8906C73.1434 14.6771 72.7841 14.3698 72.5184 13.9688C72.2528 13.5677 72.12 13.0833 72.12 12.5156C72.12 12.0156 72.219 11.612 72.4169 11.3047C72.6148 10.9922 72.8778 10.7474 73.2059 10.5703C73.5393 10.388 73.9039 10.2526 74.2997 10.1641C74.7007 10.0755 75.1044 10.0052 75.5106 9.95312C76.0419 9.88542 76.4716 9.83333 76.7997 9.79688C77.133 9.76042 77.3752 9.69792 77.5263 9.60938C77.6825 9.52083 77.7606 9.36979 77.7606 9.15625V9.10938C77.7606 8.55208 77.607 8.11979 77.2997 7.8125C76.9976 7.5 76.5367 7.34375 75.9169 7.34375C75.2815 7.34375 74.7815 7.48438 74.4169 7.76562C74.0523 8.04167 73.7971 8.33854 73.6513 8.65625L72.37 8.20312C72.5992 7.67188 72.9039 7.25781 73.2841 6.96094C73.6695 6.66406 74.0861 6.45573 74.5341 6.33594C74.9872 6.21615 75.4325 6.15625 75.87 6.15625C76.1513 6.15625 76.4742 6.1901 76.8388 6.25781C77.2033 6.32031 77.5575 6.45573 77.9013 6.66406C78.2502 6.86719 78.5367 7.17708 78.7606 7.59375C78.9898 8.00521 79.1044 8.55729 79.1044 9.25V15H77.7606V13.8125H77.6981C77.6096 14 77.4585 14.2031 77.245 14.4219C77.0315 14.6354 76.7476 14.8203 76.3934 14.9766C76.0445 15.1276 75.6148 15.2031 75.1044 15.2031ZM75.3075 14C75.8388 14 76.2867 13.8958 76.6513 13.6875C77.0158 13.4792 77.2919 13.2109 77.4794 12.8828C77.6669 12.5495 77.7606 12.2031 77.7606 11.8438V10.6094C77.7033 10.6771 77.5783 10.7396 77.3856 10.7969C77.1981 10.849 76.9794 10.8958 76.7294 10.9375C76.4846 10.9792 76.245 11.0156 76.0106 11.0469C75.7763 11.0729 75.5888 11.0938 75.4481 11.1094C75.0992 11.1562 74.7736 11.2318 74.4716 11.3359C74.1695 11.4349 73.9247 11.5833 73.7372 11.7812C73.5549 11.9792 73.4638 12.25 73.4638 12.5938C73.4638 13.0573 73.6356 13.4089 73.9794 13.6484C74.3283 13.8828 74.771 14 75.3075 14ZM87.4644 15.1875C86.6519 15.1875 85.9488 14.9948 85.355 14.6094C84.7665 14.2188 84.3107 13.6849 83.9878 13.0078C83.6701 12.3307 83.5113 11.5573 83.5113 10.6875C83.5113 9.79688 83.6753 9.01302 84.0034 8.33594C84.3316 7.65365 84.7899 7.11979 85.3784 6.73438C85.9722 6.34896 86.6623 6.15625 87.4488 6.15625C88.0633 6.15625 88.6154 6.27083 89.105 6.5C89.5998 6.72396 90.0034 7.04167 90.3159 7.45312C90.6336 7.86458 90.829 8.34375 90.9019 8.89062H89.5581C89.4904 8.625 89.368 8.375 89.1909 8.14062C89.0139 7.90625 88.7795 7.71875 88.4878 7.57812C88.2014 7.43229 87.8602 7.35938 87.4644 7.35938C86.9435 7.35938 86.4878 7.49479 86.0972 7.76562C85.7066 8.03646 85.4019 8.41927 85.1831 8.91406C84.9644 9.40365 84.855 9.97917 84.855 10.6406C84.855 11.3125 84.9618 11.901 85.1753 12.4062C85.3889 12.9062 85.6909 13.2943 86.0816 13.5703C86.4774 13.8464 86.9383 13.9844 87.4644 13.9844C87.9904 13.9844 88.4409 13.849 88.8159 13.5781C89.1909 13.3021 89.4383 12.9271 89.5581 12.4531H90.9019C90.829 12.9688 90.6415 13.4323 90.3394 13.8438C90.0425 14.2552 89.6493 14.5833 89.1597 14.8281C88.6753 15.0677 88.1102 15.1875 87.4644 15.1875ZM94.41 15.2031C93.8579 15.2031 93.3553 15.099 92.9022 14.8906C92.4491 14.6771 92.0897 14.3698 91.8241 13.9688C91.5584 13.5677 91.4256 13.0833 91.4256 12.5156C91.4256 12.0156 91.5246 11.612 91.7225 11.3047C91.9204 10.9922 92.1834 10.7474 92.5116 10.5703C92.8449 10.388 93.2095 10.2526 93.6053 10.1641C94.0064 10.0755 94.41 10.0052 94.8163 9.95312C95.3475 9.88542 95.7772 9.83333 96.1053 9.79688C96.4386 9.76042 96.6808 9.69792 96.8319 9.60938C96.9881 9.52083 97.0663 9.36979 97.0663 9.15625V9.10938C97.0663 8.55208 96.9126 8.11979 96.6053 7.8125C96.3032 7.5 95.8423 7.34375 95.2225 7.34375C94.5871 7.34375 94.0871 7.48438 93.7225 7.76562C93.3579 8.04167 93.1027 8.33854 92.9569 8.65625L91.6756 8.20312C91.9048 7.67188 92.2095 7.25781 92.5897 6.96094C92.9751 6.66406 93.3918 6.45573 93.8397 6.33594C94.2928 6.21615 94.7381 6.15625 95.1756 6.15625C95.4569 6.15625 95.7798 6.1901 96.1444 6.25781C96.509 6.32031 96.8631 6.45573 97.2069 6.66406C97.5558 6.86719 97.8423 7.17708 98.0663 7.59375C98.2954 8.00521 98.41 8.55729 98.41 9.25V15H97.0663V13.8125H97.0038C96.9152 14 96.7642 14.2031 96.5506 14.4219C96.3371 14.6354 96.0532 14.8203 95.6991 14.9766C95.3501 15.1276 94.9204 15.2031 94.41 15.2031ZM94.6131 14C95.1444 14 95.5923 13.8958 95.9569 13.6875C96.3215 13.4792 96.5975 13.2109 96.785 12.8828C96.9725 12.5495 97.0663 12.2031 97.0663 11.8438V10.6094C97.009 10.6771 96.884 10.7396 96.6913 10.7969C96.5038 10.849 96.285 10.8958 96.035 10.9375C95.7902 10.9792 95.5506 11.0156 95.3163 11.0469C95.0819 11.0729 94.8944 11.0938 94.7538 11.1094C94.4048 11.1562 94.0793 11.2318 93.7772 11.3359C93.4751 11.4349 93.2303 11.5833 93.0428 11.7812C92.8605 11.9792 92.7694 12.25 92.7694 12.5938C92.7694 13.0573 92.9413 13.4089 93.285 13.6484C93.634 13.8828 94.0767 14 94.6131 14ZM101.137 13.0156L105.34 6.26562H106.887V15H105.559V8.25L101.371 15H99.8087V6.26562H101.137V13.0156ZM103.34 5.22656C102.642 5.22656 102.074 5.03125 101.637 4.64062C101.205 4.24479 100.988 3.73177 100.988 3.10156H102.238C102.238 3.4401 102.34 3.71615 102.543 3.92969C102.746 4.14323 103.012 4.25 103.34 4.25C103.668 4.25 103.934 4.14323 104.137 3.92969C104.34 3.71615 104.442 3.4401 104.442 3.10156H105.692C105.692 3.73177 105.473 4.24479 105.035 4.64062C104.603 5.03125 104.038 5.22656 103.34 5.22656ZM107.098 7.51562V6.26562H114.176V7.51562H111.317V15H109.973V7.51562H107.098ZM117.184 15.2031C116.632 15.2031 116.13 15.099 115.677 14.8906C115.223 14.6771 114.864 14.3698 114.598 13.9688C114.333 13.5677 114.2 13.0833 114.2 12.5156C114.2 12.0156 114.299 11.612 114.497 11.3047C114.695 10.9922 114.958 10.7474 115.286 10.5703C115.619 10.388 115.984 10.2526 116.38 10.1641C116.781 10.0755 117.184 10.0052 117.591 9.95312C118.122 9.88542 118.552 9.83333 118.88 9.79688C119.213 9.76042 119.455 9.69792 119.606 9.60938C119.762 9.52083 119.841 9.36979 119.841 9.15625V9.10938C119.841 8.55208 119.687 8.11979 119.38 7.8125C119.078 7.5 118.617 7.34375 117.997 7.34375C117.361 7.34375 116.861 7.48438 116.497 7.76562C116.132 8.04167 115.877 8.33854 115.731 8.65625L114.45 8.20312C114.679 7.67188 114.984 7.25781 115.364 6.96094C115.749 6.66406 116.166 6.45573 116.614 6.33594C117.067 6.21615 117.512 6.15625 117.95 6.15625C118.231 6.15625 118.554 6.1901 118.919 6.25781C119.283 6.32031 119.637 6.45573 119.981 6.66406C120.33 6.86719 120.617 7.17708 120.841 7.59375C121.07 8.00521 121.184 8.55729 121.184 9.25V15H119.841V13.8125H119.778C119.69 14 119.539 14.2031 119.325 14.4219C119.111 14.6354 118.828 14.8203 118.473 14.9766C118.124 15.1276 117.695 15.2031 117.184 15.2031ZM117.387 14C117.919 14 118.367 13.8958 118.731 13.6875C119.096 13.4792 119.372 13.2109 119.559 12.8828C119.747 12.5495 119.841 12.2031 119.841 11.8438V10.6094C119.783 10.6771 119.658 10.7396 119.466 10.7969C119.278 10.849 119.059 10.8958 118.809 10.9375C118.565 10.9792 118.325 11.0156 118.091 11.0469C117.856 11.0729 117.669 11.0938 117.528 11.1094C117.179 11.1562 116.854 11.2318 116.552 11.3359C116.249 11.4349 116.005 11.5833 115.817 11.7812C115.635 11.9792 115.544 12.25 115.544 12.5938C115.544 13.0573 115.716 13.4089 116.059 13.6484C116.408 13.8828 116.851 14 117.387 14Z" fill="#111111"/>
<g clip-path="url(#clip0_5519_785)">
<path d="M70.5354 51H64.0151V29H70.5354V30.8095H65.8783V49.1905H70.5354V51ZM78.8328 51H72.3133V49.1905H76.9704V30.8095H72.3133V29H78.8328V51Z" fill="#9095A5"/>
<path d="M94.9843 48.1441H86.2434V31.8586H94.9843C99.3974 31.8586 102.988 35.3511 102.988 39.6432V40.3589C102.988 44.6516 99.3974 48.1441 94.9843 48.1441ZM88.1045 46.3346H94.9843C98.3709 46.3346 101.128 43.6548 101.128 40.3589V39.6439C101.128 36.3494 98.3723 33.6681 94.9843 33.6681H88.1045V46.3346ZM120.623 33.6681V31.8586H104.767V48.1441H120.623V46.3346H106.632V40.9061H120.623V39.0966H106.632V33.6681H120.623ZM140.929 31.8586L132.701 47.931L124.473 31.8586H122.402L130.739 48.1441H134.663L142.999 31.8586H140.929ZM11.1629 40.0014V41.8109H14.7001C14.0312 44.4062 11.6132 46.3346 8.74019 46.3346H8.00456C4.61725 46.3346 1.86038 43.6548 1.86038 40.3589V39.6439C1.86038 36.3494 4.61587 33.6681 8.00456 33.6681H8.74019C10.7044 33.6681 12.5036 34.5481 13.6764 36.0847L15.1697 35.006C13.6654 33.0356 11.2613 31.8586 8.74019 31.8586H8.00456C3.59081 31.8586 0 35.3511 0 39.6425V40.3582C0 44.651 3.59081 48.1435 8.00456 48.1435H8.74019C11.2069 48.1435 13.4145 47.0524 14.8844 45.3419V48.1435H16.7448V40.0014H11.1629ZM53.2861 31.8586H40.8987V48.1441H42.7433V40.9061H53.2861C55.6071 40.9061 57.4956 39.0533 57.4956 36.775V35.9891C57.4956 33.7115 55.6078 31.8586 53.2861 31.8586ZM55.6511 36.775C55.6511 38.0551 54.5903 39.0966 53.2861 39.0966H42.7419V33.6681H53.2854C54.5896 33.6681 55.6504 34.7097 55.6504 35.9891L55.6511 36.775ZM36.6011 48.1441H38.676L30.3229 31.8586H27.3199L18.9667 48.1441H21.0423L23.3626 43.6204H34.2808L36.6011 48.1441ZM24.2908 41.8109L28.8214 32.9765L33.3527 41.8109H24.2908Z" fill="#060910"/>
</g>
<defs>
<clipPath id="clip0_5519_785">
<rect width="143" height="22" fill="white" transform="translate(0 29)"/>
</clipPath>
</defs>
</svg>
