<svg width="173" height="55" viewBox="0 0 173 55" fill="none" xmlns="http://www.w3.org/2000/svg">
<path fill-rule="evenodd" clip-rule="evenodd" d="M52.5159 0.972157H65.1916V54.0298H52.5159V0.972157ZM157.548 54.0298L143.785 33.1473H139.198V54.0298H126.522V1.09294H139.198V21.9764H144.148C149.339 14.0844 157.427 0.972157 157.427 0.972157H173C168.171 8.13561 155.134 27.5619 155.134 27.5619C155.134 27.5619 169.138 48.3246 173 54.0298H157.548ZM0.362384 41.4017H31.2684C33.4409 41.4017 35.1311 39.7019 35.1311 37.6388C35.1311 35.454 33.4409 33.7522 31.2684 33.7522H16.2982C14.1555 33.7612 12.0322 33.3435 10.0508 32.523C8.06947 31.7025 6.26926 30.4956 4.75406 28.9719C3.23886 27.4481 2.03867 25.6377 1.22274 23.6451C0.406808 21.6525 -0.00871736 19.5171 0.000138632 17.3622C0.000138632 8.37716 7.24407 0.971168 16.2982 0.971168L33.4409 1.09294C40.4427 1.09294 45.8754 6.5566 45.8754 13.5983H16.2982C14.1248 13.5983 12.4346 15.2981 12.4346 17.3622C12.4346 19.548 14.1248 21.2478 16.2982 21.2478H31.2684C33.4113 21.2388 35.5346 21.6566 37.5161 22.4771C39.4975 23.2976 41.2978 24.5046 42.813 26.0285C44.3282 27.5523 45.5283 29.3629 46.3442 31.3556C47.1601 33.3483 47.5755 35.4838 47.5665 37.6388C47.5665 46.6238 40.3226 54.0298 31.3885 54.0298H12.917C6.03625 54.0298 0.362384 48.3236 0.362384 41.4017ZM70.262 27.5609C70.262 12.2628 82.5764 0 97.6667 0C107.928 0 116.983 5.7072 121.57 14.2061L110.463 20.2767C107.928 15.7851 103.1 12.7489 97.6667 12.7489C89.5782 12.7489 83.0587 19.4263 83.0587 27.5609C83.0587 35.6955 89.5792 42.2521 97.6667 42.2521C103.341 42.2521 108.17 38.9743 110.584 34.359L121.812 40.4306C117.225 49.172 108.049 55 97.6667 55C82.5764 55 70.262 42.7382 70.262 27.5609Z" fill="#AAACAB"/>
</svg>
