<svg width="275" height="55" viewBox="0 0 275 55" fill="none" xmlns="http://www.w3.org/2000/svg">
<path d="M272.202 0.0821498C271.953 6.44277e-09 271.539 0 271.29 0H225.91C224.254 0 222.763 1.06708 222.267 2.709L215.89 26.433C215.31 28.4033 216.553 30.3736 218.54 30.9482C218.871 31.0303 219.202 31.1125 219.451 31.1125H264.832C266.57 31.1125 268.061 29.8811 268.475 28.3216L274.851 4.59715C275.431 2.62663 274.272 0.574832 272.202 0.0821498ZM244.295 28.0751H225.91C225.812 28.0755 225.715 28.0566 225.625 28.0196C225.534 27.9827 225.452 27.9283 225.383 27.8596C225.313 27.7909 225.258 27.7094 225.221 27.6196C225.184 27.5298 225.165 27.4335 225.165 27.3364V3.69436C225.165 3.2019 225.496 2.95566 225.91 2.95566H244.295L242.39 9.76934H233.28V12.0676H239.491L237.669 18.9634H233.28V21.2614H244.294L244.295 28.0751ZM265.577 27.3362C265.577 27.4333 265.558 27.5295 265.521 27.6193C265.483 27.7091 265.429 27.7907 265.359 27.8594C265.29 27.928 265.208 27.9824 265.117 28.0194C265.027 28.0564 264.93 28.0753 264.832 28.0749H257.461V18.963H254.894V28.0751H246.778V18.963H239.905L241.81 12.0672H246.778V2.95545H254.894V12.0672H257.46V2.95545H264.831C265.245 2.95545 265.576 3.2019 265.576 3.69415" fill="#AAACAB"/>
<path d="M199.658 46.0528H200.237L200.486 46.9561C201.066 46.3815 201.728 45.8885 202.556 45.8885C203.384 45.8885 204.047 46.4632 204.047 47.5307V52.2917H203.302V47.6945C203.302 46.8735 202.97 46.6273 202.308 46.6273C201.728 46.6273 201.066 47.0374 200.486 47.53V52.2913H199.658M192.784 49.1724C192.784 46.8743 193.861 45.889 195.269 45.889C196.76 45.889 197.836 46.8743 197.836 49.1724C197.836 51.5532 196.842 52.4562 195.351 52.4562C193.861 52.4562 192.784 51.5532 192.784 49.1724ZM197.008 49.1724C197.008 47.2847 196.428 46.5458 195.351 46.5458C194.274 46.5458 193.612 47.2025 193.612 49.1724C193.612 51.1425 194.274 51.7994 195.351 51.7994C196.428 51.7994 197.008 51.1425 197.008 49.1724ZM190.134 46.71L189.306 46.5458V46.0531H190.963V52.2921H190.134V46.71ZM189.886 44.0013C189.886 43.6722 190.134 43.4264 190.466 43.4264C190.797 43.4264 191.128 43.6729 191.128 44.0011C191.128 44.3292 190.797 44.6574 190.466 44.6574C190.134 44.6574 189.886 44.3292 189.886 44.0011M185.166 46.71V46.0531H185.911V44.4114L186.739 44.2471V46.0528H188.064V46.7094H186.739V51.2246C186.739 51.5532 186.905 51.799 187.236 51.799C187.567 51.799 187.815 51.7171 187.981 51.6347L188.147 52.1272C187.898 52.3736 187.65 52.456 187.236 52.456C186.491 52.456 185.911 52.1274 185.911 51.3068V46.7094M182.847 47.8595C182.847 47.0382 182.599 46.6281 181.77 46.6281C181.025 46.6281 180.445 46.8746 179.866 47.2847L179.534 46.71C180.197 46.2997 180.859 45.8892 181.853 45.8892C183.013 45.8892 183.593 46.4636 183.593 47.6952V52.2923H183.096L182.847 51.5534C182.516 51.9642 181.936 52.4571 181.108 52.4571C179.949 52.4571 179.203 51.7179 179.203 50.4863C179.203 49.173 180.032 48.5169 182.019 48.5169H182.847V47.8593V47.8595ZM182.847 49.0902H182.019C180.528 49.0902 180.032 49.501 180.032 50.5681C180.032 51.3891 180.363 51.7994 181.191 51.7994C181.936 51.7994 182.433 51.307 182.847 50.8962M169.928 46.0528H170.508L170.674 46.8743C171.254 46.3815 171.833 45.8885 172.579 45.8885C173.324 45.8885 173.821 46.2989 173.986 46.8743C174.649 46.2993 175.228 45.8885 175.973 45.8885C176.884 45.8885 177.464 46.4632 177.464 47.5307V52.2917H176.719V47.6945C176.719 46.8735 176.47 46.6273 175.808 46.6273C175.228 46.6273 174.648 46.9559 174.069 47.4481V52.2913H173.323V47.6943C173.323 46.8735 172.992 46.6268 172.412 46.6268C171.833 46.6268 171.336 47.0371 170.673 47.4483V52.291H169.928M163.055 49.1726C163.055 46.8746 164.049 45.8892 165.539 45.8892C167.03 45.8892 168.107 46.8746 168.107 49.1726C168.107 51.5534 167.03 52.4564 165.54 52.4564C164.049 52.4564 163.055 51.5534 163.055 49.1726ZM167.279 49.1726C167.279 47.2849 166.699 46.546 165.539 46.546C164.463 46.546 163.883 47.2027 163.883 49.1726C163.883 51.1427 164.462 51.7997 165.539 51.7997C166.699 51.7997 167.279 51.1427 167.279 49.1726ZM158.832 46.7103V46.0533H159.577V44.4116L160.405 44.2473V46.0533H161.73V46.7105H160.405V51.2253C160.405 51.5539 160.571 51.7999 160.902 51.7999C161.234 51.7999 161.482 51.7177 161.648 51.6356L161.813 52.1278C161.565 52.3745 161.317 52.4564 160.902 52.4564C160.157 52.4564 159.577 52.1278 159.577 51.3074V46.7103M152.87 50.8147V46.0535H153.615V50.5685C153.615 51.3896 153.947 51.7177 154.609 51.7177C155.271 51.7177 155.851 51.3891 156.43 50.8969V46.0535H157.259V52.2921H156.679L156.43 51.4713C155.851 52.0459 155.188 52.4566 154.443 52.4566C153.532 52.4562 152.87 51.9637 152.87 50.8145M145.83 52.2921H145.002L147.818 43.3443H148.729L151.462 52.2921H150.633L149.805 49.419H146.741L145.83 52.2921ZM148.812 46.1352C148.48 45.1496 148.398 44.6574 148.315 44.0832H148.232C148.149 44.6574 148.066 45.232 147.735 46.1352L146.907 48.6799H149.557M136.887 51.7173L137.218 51.1427C137.715 51.553 138.212 51.7999 138.957 51.7999C139.868 51.7999 140.282 51.3072 140.282 50.7321C140.282 49.9111 139.868 49.7466 138.874 49.3365C137.881 49.09 137.218 48.6801 137.218 47.5305C137.218 46.7096 137.798 45.8888 139.04 45.8888C139.868 45.8888 140.365 46.0531 140.779 46.381L140.53 46.9556C140.034 46.7094 139.702 46.627 139.04 46.627C138.378 46.627 137.963 46.8737 137.963 47.4485C137.963 48.1868 138.212 48.3513 139.123 48.6795C140.199 49.0077 141.026 49.3358 141.026 50.6493C141.026 51.8807 140.281 52.4553 138.957 52.4553C138.046 52.4562 137.384 52.1278 136.887 51.7173ZM131.669 51.7173L132.001 51.1427C132.498 51.553 133.078 51.7999 133.74 51.7999C134.734 51.7999 135.065 51.3072 135.065 50.7321C135.065 49.9111 134.733 49.7466 133.657 49.3365C132.664 49.09 132.001 48.6801 132.001 47.5305C132.001 46.7096 132.581 45.8888 133.906 45.8888C134.651 45.8888 135.148 46.0531 135.562 46.381L135.313 46.9556C134.817 46.7094 134.485 46.627 133.906 46.627C133.16 46.627 132.747 46.8737 132.747 47.4485C132.747 48.1868 133.078 48.3513 133.906 48.6795C134.982 49.0081 135.81 49.3358 135.81 50.6493C135.81 51.8807 135.065 52.4553 133.657 52.4553C132.829 52.4562 132.167 52.1278 131.669 51.7173ZM128.44 51.7173C129.186 51.7173 129.599 51.553 129.93 51.225L130.427 51.7173C129.848 52.1276 129.268 52.4562 128.44 52.4562C126.866 52.4562 125.873 51.553 125.873 49.1726C125.873 46.7922 126.867 45.8892 128.275 45.8892C129.765 45.8892 130.51 46.8746 130.51 48.9268V49.3367H126.701C126.701 51.1425 127.198 51.7173 128.44 51.7173ZM129.765 48.6801C129.765 47.1201 129.186 46.5455 128.275 46.5455C127.364 46.5455 126.784 47.038 126.701 48.6801M120.324 49.1724C120.324 46.8743 121.401 45.889 122.809 45.889C123.554 45.889 124.134 46.2176 124.631 46.7098L124.134 47.2023C123.803 46.7922 123.389 46.6279 122.809 46.6279C121.732 46.6279 121.153 47.1201 121.153 49.1726C121.153 51.1422 121.732 51.7173 122.892 51.7173C123.554 51.7173 123.886 51.4708 124.217 51.1427L124.714 51.6349C124.3 52.1274 123.72 52.4564 122.809 52.4564C121.401 52.4564 120.324 51.5528 120.324 49.1728M113.865 49.1728C113.865 46.8741 114.942 45.8892 116.349 45.8892C117.84 45.8892 118.917 46.8746 118.917 49.173C118.917 51.5532 117.923 52.4562 116.432 52.4562C114.942 52.4562 113.865 51.5532 113.865 49.1728ZM118.089 49.1728C118.089 47.2847 117.509 46.5458 116.432 46.5458C115.273 46.5458 114.693 47.2025 114.693 49.1728C114.693 51.1425 115.273 51.7994 116.432 51.7994C117.509 51.7994 118.089 51.1425 118.089 49.1728ZM109.973 46.0528H110.553L110.718 47.1204C111.215 46.4636 111.878 45.9711 112.623 45.9711H112.789V46.8748C112.706 46.7926 112.623 46.7926 112.457 46.7926C111.795 46.7926 111.381 47.1208 110.718 47.6954V52.2926H109.973M103.266 43.3443H105.502C107.323 43.3443 108.234 44.2473 108.234 45.889C108.234 47.695 107.323 48.598 105.667 48.598H104.093V52.2919H103.265L103.266 43.3443ZM105.584 47.8593C106.744 47.8593 107.323 47.367 107.323 45.9711C107.323 44.5761 106.827 44.0839 105.419 44.0839H104.094V47.8597M95.8956 46.0528H96.4748L96.6406 47.1204C97.1374 46.4636 97.7175 45.9711 98.5453 45.9711H98.7939L98.6279 46.8748C98.5451 46.7926 98.5451 46.7926 98.3793 46.7926C97.717 46.7926 97.2202 47.1208 96.7232 47.6954V52.2926H95.8954M89.0222 49.173C89.0222 46.8741 90.0162 45.8892 91.5065 45.8892C92.9973 45.8892 93.9911 46.8746 93.9911 49.173C93.9911 51.5532 92.9973 52.4562 91.5065 52.4562C90.0984 52.4562 89.0222 51.5532 89.0222 49.1728V49.173ZM93.1626 49.173C93.1626 47.2847 92.583 46.5458 91.5063 46.5458C90.4294 46.5458 89.8502 47.2025 89.8502 49.1728C89.8502 51.1425 90.4297 51.7994 91.5063 51.7994C92.583 51.7994 93.1626 51.1425 93.1626 49.1728M85.1301 46.71V46.0531H85.8753V44.4937C85.8753 43.3445 86.5378 42.8516 87.3659 42.8516C87.8626 42.8516 88.1939 42.9338 88.608 43.1802L88.2766 43.7548C88.0279 43.6727 87.7798 43.5084 87.4483 43.5084C86.9515 43.5084 86.7031 43.837 86.7031 44.4937V46.0531H87.9453V46.7103H86.7031V52.2921H85.8751V46.7103M78.9192 51.7173C79.6644 51.7173 80.1614 51.553 80.5755 51.225L80.9892 51.7173C80.4095 52.1276 79.8303 52.4562 78.9192 52.4562C77.4286 52.4562 76.3522 51.553 76.3522 49.1728C76.3522 46.7918 77.4288 45.8892 78.7539 45.8892C80.2442 45.8892 81.0725 46.8746 81.0725 48.9268V49.3371H77.2633C77.2629 51.1425 77.7599 51.7173 78.9192 51.7173ZM80.244 48.6801C80.244 47.1201 79.7477 46.5455 78.7537 46.5455C77.9256 46.5455 77.2631 47.038 77.2631 48.6801M73.5361 51.1425V42.9333H74.3646V51.3065C74.3646 51.6351 74.5301 51.7169 74.7785 51.7169H75.1098L75.1926 52.2913C75.0269 52.3734 74.7787 52.3734 74.6132 52.3734C73.9507 52.3743 73.5363 52.1278 73.5363 51.1425M66.9115 46.0528H67.4911L67.6567 46.8743C68.1537 46.3815 68.816 45.8885 69.5614 45.8885C70.8033 45.8885 71.7143 46.7918 71.7143 49.1724C71.7143 51.3887 70.886 52.4558 69.4783 52.4558C68.7331 52.4558 68.1535 52.0455 67.7391 51.6345V55H66.911L66.9115 46.0528ZM70.8864 49.255C70.8864 47.1204 70.3901 46.6283 69.3961 46.6283C68.7335 46.6283 68.1541 47.0382 67.7398 47.449V50.9788C68.1539 51.4713 68.7335 51.7177 69.3961 51.7177C70.3896 51.7173 70.8864 51.1427 70.8864 49.255ZM60.0385 49.1728C60.0385 46.8741 61.1147 45.8892 62.6053 45.8892C64.0134 45.8892 65.0901 46.8746 65.0901 49.173C65.0901 51.5532 64.0134 52.4562 62.6055 52.4562C61.1145 52.4562 60.0385 51.5532 60.0385 49.1728ZM64.2616 49.1728C64.2616 47.2847 63.5991 46.5458 62.6053 46.5458C61.446 46.5458 60.8661 47.2025 60.8661 49.1728C60.8661 51.1425 61.4455 51.7994 62.6053 51.7994C63.6822 51.7994 64.2616 51.1425 64.2616 49.1728ZM56.5601 51.7173C57.2226 51.7173 57.6368 51.553 58.0507 51.225L58.5473 51.7173C58.0507 52.1276 57.3882 52.4562 56.5599 52.4562C54.9867 52.4562 53.91 51.553 53.91 49.1728C53.91 46.7918 54.9869 45.8892 56.3944 45.8892C57.8021 45.8892 58.6303 46.8746 58.6303 48.9268V49.3371H54.738C54.8209 51.1425 55.401 51.7173 56.5601 51.7173ZM57.8023 48.6801C57.8023 47.1201 57.3884 46.5455 56.3946 46.5455C55.4837 46.5455 54.9042 47.038 54.8211 48.6801M47.7822 43.3443H50.101C51.9226 43.3443 52.8336 44.2473 52.8336 45.889C52.8336 47.695 51.9224 48.598 50.1837 48.598H48.61V52.2919H47.782V43.3443H47.7822ZM50.101 47.8593C51.3432 47.8593 51.9226 47.367 51.9226 45.9711C51.9226 44.5761 51.3434 44.0839 50.0184 44.0839H48.6104V47.8597M197.587 15.1049H199.74L200.154 17.4033C201.313 15.9257 202.804 14.8588 204.709 14.8588C204.875 14.8588 205.123 14.941 205.289 14.941L204.957 17.8958C204.625 17.7317 204.295 17.7317 203.963 17.7317C202.556 17.7317 201.479 18.3063 200.32 19.3738V31.1128H197.587M181.688 23.0678C181.688 17.0747 184.254 14.6945 188.064 14.6945C191.791 14.6945 194.026 16.9106 194.026 22.6572V23.7248H184.669C184.751 28.0755 185.746 29.1427 188.395 29.1427C190.134 29.1427 191.128 28.486 192.205 27.6651L193.612 29.6354C192.122 30.8662 190.631 31.5229 188.313 31.5229C184.089 31.5229 181.687 29.0606 181.687 23.068L181.688 23.0678ZM184.751 21.6721H191.128C191.128 17.9782 190.3 16.9109 187.981 16.9109C186.076 16.9109 184.917 17.8136 184.751 21.6721ZM168.024 29.7171L169.183 27.7471C170.508 28.6501 171.916 29.2247 173.489 29.2247C175.642 29.2247 176.305 28.3217 176.305 26.8439C176.305 25.0379 175.476 24.7097 172.993 24.0529C170.674 23.3962 168.852 22.2469 168.852 19.1274C168.852 16.7466 170.342 14.6945 173.821 14.6945C175.808 14.6945 177.133 15.1049 178.376 15.7616L177.381 17.9782C176.057 17.3214 175.228 17.0749 173.986 17.0749C172.247 17.0749 171.419 17.6496 171.419 19.0452C171.419 20.5226 172.082 20.933 174.318 21.5078C176.802 22.1646 179.038 23.1499 179.038 26.6798C179.038 30.0451 177.134 31.5229 173.407 31.5229C171.171 31.5229 169.101 30.7019 168.024 29.7171ZM153.284 27.4185V15.1051H156.016V26.5152C156.016 28.4855 156.679 29.0602 158.086 29.0602C159.411 29.0602 160.736 28.2393 161.979 27.172V15.1051H164.711V31.1126H162.641L162.227 29.0604C160.819 30.4558 159.329 31.5231 157.424 31.5231C155.105 31.5231 153.284 30.127 153.284 27.4185ZM137.549 26.5152C137.549 22.9033 139.703 21.1794 145.002 21.1794H146.327V19.9482C146.327 18.1422 146.078 17.1573 144.008 17.1573C142.269 17.1573 140.696 17.8139 139.288 18.5528L138.211 16.5005C139.868 15.5154 141.689 14.6945 144.257 14.6945C147.404 14.6945 149.06 16.1719 149.06 19.5379V31.1126H146.906L146.493 29.4709C145.499 30.538 144.174 31.5227 142.352 31.5227C139.288 31.5229 137.549 29.7993 137.549 26.5152ZM146.327 27.4185V23.2319H145.333C141.276 23.2319 140.531 24.217 140.531 26.5152C140.531 28.6498 141.11 29.3066 142.767 29.3066C144.34 29.3066 145.499 28.2395 146.327 27.4185ZM119.828 9.19418H122.809V18.1422H130.759V9.1944H133.74V31.1126H130.759V20.6867H122.809V31.1126H119.828V9.19418ZM105.75 22.9856H100.616V20.6046H105.75V14.9406H108.399V20.6046H113.534V22.9856H108.4V28.5675H105.75V22.9856M84.7157 29.7171L85.7924 27.7471C87.2003 28.6501 88.6083 29.2247 90.0988 29.2247C92.3346 29.2247 92.9971 28.3217 92.9971 26.8439C92.9971 25.0379 92.1688 24.7097 89.6016 24.0529C87.3659 23.3962 85.4614 22.2469 85.4614 19.1274C85.4614 16.7466 86.9517 14.6945 90.5127 14.6945C92.4172 14.6945 93.8252 15.1049 94.9845 15.7616L93.9907 17.9782C92.6656 17.3214 91.8374 17.0749 90.5956 17.0749C88.8564 17.0749 88.0286 17.6496 88.0286 19.0452C88.0286 20.5226 88.7738 20.933 90.9269 21.5078C93.4115 22.1646 95.6474 23.1499 95.6474 26.6798C95.6474 30.0457 93.8256 31.5229 90.0164 31.5229C87.8626 31.5229 85.7922 30.7019 84.7157 29.7171ZM71.4659 29.7171L72.7081 27.7471C74.0331 28.6501 75.441 29.2247 77.0143 29.2247C79.1676 29.2247 79.8301 28.3217 79.8301 26.8439C79.8301 25.0379 79.0021 24.7097 76.4346 24.0529C74.1988 23.3962 72.2941 22.2469 72.2941 19.1274C72.2941 16.7466 73.7847 14.6945 77.3457 14.6945C79.3333 14.6945 80.6584 15.1049 81.8175 15.7621L80.9063 17.9784C79.5817 17.3216 78.7534 17.0752 77.5115 17.0752C75.7725 17.0752 74.9445 17.6498 74.9445 19.0455C74.9445 20.5231 75.607 20.9332 77.8427 21.5082C80.3273 22.1648 82.5631 23.1501 82.5631 26.68C82.5631 30.046 80.6588 31.5231 76.8494 31.5231C74.6958 31.5231 72.6252 30.7019 71.4659 29.7171ZM56.974 23.0678C56.974 17.0747 59.5413 14.6945 63.3505 14.6945C67.1597 14.6945 69.3956 16.9106 69.3956 22.6572V23.7248H59.9554C60.1211 28.0755 61.0323 29.1427 63.6819 29.1427C65.4211 29.1427 66.4145 28.486 67.4911 27.6651L68.9817 29.6354C67.4083 30.8662 66.0006 31.5229 63.5986 31.5229C59.4584 31.5229 56.974 29.0604 56.974 23.0678ZM60.038 21.6721H66.4145C66.4145 17.9782 65.5864 16.9109 63.2674 16.9109C61.3631 16.9109 60.2864 17.8136 60.038 21.6721ZM47.6993 15.1049H49.8526L50.2665 17.4033C51.5087 15.9257 52.9991 14.8588 54.8211 14.8588C54.9869 14.8588 55.3181 14.941 55.401 14.941L55.0695 17.8958C54.8209 17.7317 54.4901 17.7317 54.1588 17.7317C52.6678 17.7317 51.6745 18.3063 50.4323 19.3738V31.1128H47.6995M30.4745 23.2319C30.4745 17.2392 32.2137 14.6948 36.0229 14.6948C37.7616 14.6948 39.2524 15.6793 40.246 16.6644V8.04517H43.0614V31.1126H40.9085L40.4948 29.3885C39.2526 30.7016 37.679 31.5227 36.0231 31.5227C32.876 31.5229 30.4745 29.7171 30.4745 23.2321V23.2319ZM40.2462 27.4185V18.7992C39.4182 17.9782 38.0929 17.0747 36.7685 17.0747C34.4496 17.0747 33.4559 17.9779 33.4559 22.9856C33.4559 28.1574 34.2841 29.1425 36.5199 29.1425C38.0102 29.1425 39.1695 28.4855 40.2462 27.4185ZM15.3201 15.1049H17.5561L17.9702 17.1569C19.3779 15.7614 20.9514 14.6945 22.8561 14.6945C25.1747 14.6945 26.7482 15.9255 26.7482 18.5526V31.1128H23.9323V19.4556C23.9323 17.6496 23.4355 17.1567 22.0278 17.1567C20.703 17.1567 19.2951 18.0599 18.1357 19.0448V31.1122H15.3201M0 9.19418H11.3454V11.6569H2.89872V18.3889H9.68929V20.8515H2.89872V28.4858H11.7593V31.1126H0V9.19418Z" fill="#AAACAB"/>
</svg>
