<svg width="427" height="160" viewBox="0 0 427 160" fill="none" xmlns="http://www.w3.org/2000/svg">
<path fill-rule="evenodd" clip-rule="evenodd" d="M189.957 91.4089H238.182L214.07 140L189.957 91.4089ZM177.972 67.4646H250.168L274 20H154L177.972 67.4646Z" fill="#C9222F"/>
<path fill-rule="evenodd" clip-rule="evenodd" d="M164.153 77.4641C164.153 74.5069 162.743 72.2532 159.358 72.2532C155.431 72.2532 154.123 75.4361 154 78.4313V80.4623C154.125 83.7514 155.525 86.7474 159.358 86.6203C162.321 86.7608 164.153 84.6476 164.153 81.55L161.191 81.2681C161.051 83.0988 160.768 84.0848 159.499 84.0848C157.807 84.0848 157.666 82.3954 157.807 79.4375C157.666 76.9019 157.948 74.7887 159.358 74.93C160.627 74.7887 160.908 76.4796 160.908 77.4648L164.153 77.4641ZM164.012 86.3385H166.833L167.538 83.6624H170.78L171.203 86.3385H174.728L171.908 72.5357H167.255L164.012 86.3385ZM169.088 75.4929L170.216 81.1261H167.96L169.088 75.4929ZM175.575 86.3385H178.959V80.4227H180.088L181.921 86.3385H185.446L183.049 79.7193C184.459 79.1557 185.446 77.8879 185.446 76.4796C185.446 73.8028 183.331 72.5357 180.792 72.5357H175.575V86.3385ZM178.958 75.2118H179.523C180.791 75.0713 181.92 75.2118 181.92 76.6194C181.92 77.7459 181.074 78.1682 179.664 78.1682H178.959L178.958 75.2118ZM193.483 79.4375C193.342 82.9575 194.61 86.7608 198.7 86.6203C202.93 86.7608 204.2 82.9575 204.059 79.4375C204.2 75.916 202.93 72.2539 198.7 72.2539C194.61 72.2532 193.342 75.916 193.483 79.4375ZM197.15 79.4375C197.15 76.7614 197.15 74.7887 198.7 74.93C200.392 74.7887 200.392 76.7614 200.251 79.4375C200.392 82.2541 200.392 84.0848 198.7 84.0848C197.15 84.084 197.15 82.2534 197.15 79.4375ZM220.416 86.3385H223.237L223.941 83.6624H227.185L227.747 86.3385H231.273L228.312 72.5357H223.8L220.416 86.3385ZM225.633 75.4929L226.62 81.1261H224.363L225.633 75.4929ZM233.388 86.3385H237.056L240.722 72.5357H237.9L235.645 82.2534H235.503L233.812 72.5357H230.287L233.388 86.3385ZM239.171 86.3385H241.991L242.695 83.6624H245.797L246.503 86.3385H250.028L246.926 72.5357H242.272L239.171 86.3385ZM244.387 75.4929L245.373 81.1261H243.118L244.387 75.4929ZM186.291 86.3385H193.483V83.9442H189.676V72.5357H186.291V86.3385ZM220.274 79.4375H215.48V81.8318H217.173C217.173 82.6772 216.751 84.0848 215.48 84.0848C213.929 84.0848 213.789 82.3954 213.648 79.4375C213.789 76.9019 213.929 74.7887 215.48 74.93C216.75 74.7887 216.891 75.916 216.891 77.4648H220.416C220.416 74.3664 218.866 72.2539 215.34 72.2539C211.109 72.2539 209.982 76.1978 209.841 79.8598C209.982 83.803 211.392 86.7608 215.058 86.6211C216.186 86.7616 217.315 86.198 218.161 85.354L218.865 86.3393H220.133L220.274 84.2268V79.4375ZM259.193 83.8022H254.116L259.193 74.2251V72.5357H250.451V75.2118H254.963L250.451 83.5204V86.3385H259.193V83.8022ZM269.206 83.8022H263.987L269.206 74.2251V72.5357H260.321V75.2118H264.834L260.321 83.5204V86.3385H269.206V83.8022ZM270.474 86.3385H274V72.5357H270.474V86.3385Z" fill="black"/>
</svg>
