<svg width="427" height="160" viewBox="0 0 427 160" fill="none" xmlns="http://www.w3.org/2000/svg">
<path fill-rule="evenodd" clip-rule="evenodd" d="M162.502 76.2496C161.423 76.4576 160.262 76.6303 159.042 76.7736C157.875 76.8776 156.591 76.9462 155.203 76.9462C146.999 76.9462 145.263 71.1805 148.443 64.2236C151.975 56.5033 158.634 51.4951 167.822 51.4951C170.366 51.4951 171.898 51.711 173.74 52.1231L169.331 59.3194C168.252 59.0892 167.154 58.9618 166.05 58.9387C160.622 58.9387 158.13 62.1729 157.206 64.1883C156.061 66.6885 155.887 69.5105 160.806 69.5105C162.061 69.5105 163.361 69.4065 164.678 69.1965L162.502 76.2496ZM189.553 51.4932C197.753 51.4932 199.489 57.2667 196.307 64.2217C193.131 71.1786 186.116 76.9443 177.909 76.9443C169.701 76.9443 167.973 71.1786 171.149 64.2217C174.333 57.2667 181.348 51.4932 189.553 51.4932ZM186.306 58.5914C183.355 58.5914 181.312 61.1308 179.902 64.2217C178.484 67.3145 178.205 69.852 181.156 69.852C184.107 69.852 186.144 67.3145 187.56 64.2217C188.978 61.1288 189.257 58.5914 186.306 58.5914ZM206.039 52.1879H216.548L215.255 66.0644H215.324L221.736 52.1879H229.261L218.055 76.2496H207.578L208.565 62.2376H208.495L202.329 76.2496H194.867L206.039 52.1879ZM236.978 59.2861H230.064L233.375 52.1879H255.689L252.366 59.2861H245.46L237.561 76.2496H229.079L236.978 59.2861ZM248.953 76.2496L260.127 52.1879H272.541C279.114 52.1879 279.682 55.4613 277.87 59.4215C276.411 62.6183 273.049 65.3697 270.041 65.511L270.009 65.5777C272.109 66.0997 272.497 67.6305 271.704 76.2496H262.342L263.006 70.4446C263.188 68.9845 262.909 68.5646 262.134 68.5646H260.878L257.259 76.2476L248.953 76.2496ZM263.588 62.7989H265.318C266.841 62.7989 268.138 62.6183 269.08 60.5676C269.825 58.9348 269.797 57.9595 267.731 57.9595H265.826L263.588 62.7989ZM297.884 51.4932C306.084 51.4932 307.826 57.2667 304.644 64.2217C301.466 71.1786 294.447 76.9443 286.246 76.9443C278.035 76.9443 276.304 71.1786 279.486 64.2217C282.67 57.2667 289.683 51.4932 297.884 51.4932ZM294.643 58.5914C291.692 58.5914 289.649 61.1308 288.235 64.2217C286.813 67.3145 286.537 69.852 289.487 69.852C292.438 69.852 294.481 67.3145 295.899 64.2217C297.305 61.1288 297.584 58.5914 294.643 58.5914ZM315.472 52.1879H323.946L315.976 69.1572H327.245L323.927 76.2496H304.262L315.472 52.1879ZM309.511 110L304.377 105.316C302.725 105.819 301.007 106.077 299.279 106.081C291.079 106.081 289.337 100.309 292.519 93.3583C295.701 86.4033 302.716 80.6357 310.929 80.6357C319.129 80.6357 320.859 86.4033 317.673 93.3583C316.377 96.1929 314.512 98.7357 312.193 100.831L316.376 104.405L309.511 110ZM307.676 87.726C304.725 87.726 302.682 90.2576 301.264 93.3563C299.858 96.4492 299.579 98.9886 302.532 98.9886C305.467 98.9886 307.516 96.4492 308.932 93.3563C310.346 90.2576 310.627 87.726 307.676 87.726ZM156.057 88.4247H149.141L152.45 81.3245H174.756L171.446 88.4247H164.53L156.633 105.384H148.158L156.057 88.4247ZM178.826 81.3245H198.079L195.087 87.726H184.168L183.025 90.2282H193.942L191.04 96.4138H180.128L178.913 98.9886H189.866L186.869 105.384H167.646L178.826 81.3245ZM210.718 105.384C209.572 105.602 208.417 105.777 207.257 105.908C206.091 106.006 204.807 106.081 203.415 106.081C195.215 106.081 193.479 100.309 196.661 93.3583C200.193 85.638 206.852 80.6357 216.038 80.6357C218.58 80.6357 220.116 80.8398 221.955 81.2597L217.547 88.4541C216.468 88.2242 215.368 88.0967 214.264 88.0734C208.841 88.0734 206.346 91.3075 205.422 93.323C204.277 95.8231 204.103 98.6471 209.021 98.6471C210.275 98.6471 211.577 98.5352 212.894 98.3253L210.718 105.384ZM226.797 81.3245H235.267L231.446 89.5335H237.688L241.509 81.3245H249.987L238.782 105.384H230.295L234.209 96.9692H227.974L224.062 105.384H215.587L226.797 81.3245ZM255.782 81.3245H266.291L264.994 95.201H265.063L271.473 81.3245H279L267.79 105.384H257.314L258.303 91.3742H258.234L252.066 105.384H244.61L255.782 81.3245ZM285.269 81.3245H293.751L282.542 105.384H274.063L285.269 81.3245ZM336.271 81.3245L331.81 90.9248C331.145 92.3849 330.439 93.8371 329.779 95.3031C328.813 97.3872 329.219 98.4293 331.497 98.4293C333.597 98.4293 335.051 97.3185 336.19 94.9165L342.54 81.3245H351.011L345.024 94.1217C341.575 101.597 336.944 106.081 327.562 106.081C318.978 106.081 318.731 100.765 320.766 96.3137C321.451 94.8164 322.342 92.8696 323.169 91.125L327.793 81.3245H336.271ZM356.43 81.3245H375.686L372.692 87.726H361.773L360.636 90.2282H371.553L368.652 96.4138H357.733L356.527 98.9886H367.477L364.481 105.384H345.26L356.43 81.3245ZM373.562 98.9219C375.2 99.2653 376.966 99.4753 378.499 99.4753C381.554 99.4753 382.725 99.1299 383.168 98.1486C383.585 97.2498 383.354 96.9358 382.507 96.7945L379.22 96.2765C375.216 95.6112 375.481 91.755 376.663 89.1802C379.788 82.3352 385.385 80.6337 391.431 80.6337C394.609 80.6337 397.162 80.9791 399.001 81.3265L395.479 87.622C393.98 87.2688 391.543 87.0313 389.858 87.0313C386.803 87.0313 386.038 87.7947 385.68 88.5954C385.432 89.1135 385.575 89.5021 386.49 89.7042L390.056 90.4362C393.343 91.0956 393.926 93.7763 392.285 97.3499C389.651 103.122 384.934 106.079 378.291 106.079C375.004 106.079 372.091 105.765 369.825 105.384L373.562 98.9219Z" fill="#27824D"/>
<path fill-rule="evenodd" clip-rule="evenodd" d="M85.6782 109.594C116.886 109.594 142.182 95.8056 142.182 78.7989C142.182 61.7962 116.886 48.0079 85.6782 48.0079C54.4704 48.0079 29.168 61.7962 29.168 78.7989C29.168 95.8036 54.4704 109.594 85.6782 109.594Z" stroke="black" stroke-width="2" stroke-miterlimit="2.613"/>
<path d="M85.7258 109.58C112.114 109.58 133.506 95.7917 133.506 78.787C133.506 61.7823 112.114 48 85.7258 48M85.7258 109.58C59.3376 109.58 37.945 95.7917 37.945 78.787C37.945 61.7823 59.3376 48 85.7258 48M85.7258 109.58C107.362 109.58 124.906 95.7917 124.906 78.787C124.906 61.7823 107.362 48 85.7258 48M85.7258 109.58C64.088 109.58 46.546 95.7917 46.544 78.787C46.544 61.7823 64.088 48 85.7258 48M29 78.8243H56.1713M115.237 78.8243H142.396M33.2579 66.7905H58.5248M33.4893 91.0779H58.8214M112.861 66.7905H138.164M112.583 91.0779H137.925M85.7258 109.274C102.142 109.274 115.452 95.621 115.452 78.787C115.452 61.9491 102.107 48.3022 85.6902 48.3022C69.2735 48.3022 56.0052 61.9491 56.0052 78.787C56.0052 95.621 69.3071 109.274 85.7258 109.274Z" stroke="black" stroke-width="2" stroke-miterlimit="2.613"/>
<path fill-rule="evenodd" clip-rule="evenodd" d="M105.747 61.0426C100.888 55.2828 93.6969 51.6522 85.6893 51.6522C77.6876 51.6522 70.5225 55.3004 65.6831 61.0602L105.747 61.0426ZM109.738 90.189C105.539 99.4754 96.3628 105.914 85.7249 105.914C75.0672 105.914 65.8868 99.4832 61.6941 90.1733L109.738 90.189ZM59.3842 76.2556C59.3071 77.0857 59.2734 77.9315 59.2734 78.7871C59.2734 82.349 59.9399 85.7558 61.1621 88.8742H73.6235L81.3819 76.2575L59.3842 76.2556ZM111.927 74.9976C111.57 72.3715 110.832 69.8102 109.738 67.3931H94.9705L90.2894 75.0212L111.927 74.9976ZM109.097 66.0763C108.41 64.7577 107.613 63.498 106.716 62.3103H87.2932L85.011 66.0802L109.097 66.0763ZM62.327 66.094C63.0192 64.7634 63.8083 63.4937 64.6962 62.3064H72.7315L70.3919 66.0998L62.327 66.094ZM59.5286 74.9858C59.8885 72.3169 60.6321 69.7657 61.6941 67.4068H76.41L71.7348 74.9721L59.5286 74.9858Z" fill="#27824D"/>
</svg>
