<svg width="428" height="160" viewBox="0 0 428 160" fill="none" xmlns="http://www.w3.org/2000/svg">
<g clip-path="url(#clip0_6086_5180)">
<path d="M395.093 43.1108C394.759 43.0002 394.202 43.0002 393.868 43.0002H332.859C330.632 43.0002 328.628 44.4359 327.96 46.645L319.388 78.5641C318.608 81.215 320.278 83.8659 322.95 84.639C323.395 84.7496 323.84 84.8601 324.175 84.8601H385.185C387.522 84.8601 389.527 83.2033 390.083 81.1051L398.656 49.1854C399.435 46.5342 397.877 43.7736 395.093 43.1108ZM357.575 80.7735H332.859C332.727 80.774 332.597 80.7486 332.475 80.6989C332.353 80.6491 332.242 80.5759 332.149 80.4835C332.056 80.3911 331.982 80.2814 331.932 80.1606C331.882 80.0398 331.856 79.9103 331.857 79.7796V47.9708C331.857 47.3082 332.303 46.9769 332.859 46.9769H357.575L355.014 56.1443H342.767V59.2364H351.117L348.668 68.5143H342.767V71.6061H357.574L357.575 80.7735ZM386.187 79.7793C386.187 79.91 386.162 80.0395 386.111 80.1603C386.061 80.2811 385.987 80.3908 385.894 80.4832C385.801 80.5756 385.691 80.6488 385.569 80.6986C385.447 80.7483 385.316 80.7737 385.185 80.7732H375.276V68.5137H371.825V80.7735H360.914V68.5137H351.673L354.234 59.2358H360.914V46.9766H371.824V59.2358H375.275V46.9766H385.184C385.741 46.9766 386.186 47.3082 386.186 47.9705" fill="#0088FF"/>
<path d="M297.566 104.961H298.345L298.679 106.177C299.459 105.403 300.349 104.74 301.462 104.74C302.576 104.74 303.466 105.513 303.466 106.95V113.355H302.465V107.17C302.465 106.065 302.019 105.734 301.128 105.734C300.349 105.734 299.459 106.286 298.679 106.949V113.355H297.565M288.325 109.158C288.325 106.067 289.772 104.741 291.665 104.741C293.669 104.741 295.116 106.067 295.116 109.158C295.116 112.362 293.78 113.577 291.776 113.577C289.772 113.577 288.325 112.362 288.325 109.158ZM294.003 109.158C294.003 106.619 293.224 105.624 291.776 105.624C290.328 105.624 289.438 106.508 289.438 109.158C289.438 111.809 290.328 112.693 291.776 112.693C293.224 112.693 294.003 111.809 294.003 109.158ZM284.762 105.846L283.649 105.624V104.962H285.876V113.356H284.762V105.846ZM284.428 102.201C284.428 101.758 284.762 101.428 285.208 101.428C285.653 101.428 286.098 101.759 286.098 102.201C286.098 102.642 285.653 103.084 285.208 103.084C284.762 103.084 284.428 102.642 284.428 102.201M278.083 105.846V104.962H279.085V102.753L280.198 102.532V104.961H281.979V105.845H280.198V111.92C280.198 112.362 280.421 112.692 280.866 112.692C281.311 112.692 281.645 112.582 281.868 112.471L282.091 113.134C281.756 113.466 281.423 113.576 280.866 113.576C279.864 113.576 279.085 113.134 279.085 112.03V105.845M274.965 107.392C274.965 106.287 274.631 105.735 273.518 105.735C272.516 105.735 271.736 106.067 270.957 106.619L270.512 105.846C271.402 105.293 272.293 104.741 273.629 104.741C275.188 104.741 275.968 105.514 275.968 107.171V113.356H275.3L274.965 112.362C274.52 112.915 273.741 113.578 272.627 113.578C271.069 113.578 270.066 112.583 270.066 110.926C270.066 109.159 271.18 108.277 273.852 108.277H274.965V107.392V107.392ZM274.965 109.048H273.852C271.848 109.048 271.18 109.601 271.18 111.036C271.18 112.141 271.626 112.693 272.739 112.693C273.741 112.693 274.409 112.03 274.966 111.478M257.597 104.961H258.377L258.6 106.067C259.379 105.403 260.158 104.74 261.16 104.74C262.162 104.74 262.83 105.292 263.053 106.067C263.943 105.293 264.722 104.74 265.724 104.74C266.949 104.74 267.728 105.513 267.728 106.95V113.355H266.726V107.17C266.726 106.065 266.392 105.734 265.502 105.734C264.722 105.734 263.943 106.176 263.164 106.839V113.355H262.162V107.17C262.162 106.065 261.716 105.734 260.937 105.734C260.157 105.734 259.489 106.286 258.598 106.839V113.354H257.596M248.357 109.159C248.357 106.067 249.693 104.741 251.697 104.741C253.701 104.741 255.148 106.067 255.148 109.159C255.148 112.362 253.701 113.577 251.697 113.577C249.693 113.577 248.357 112.362 248.357 109.159ZM254.035 109.159C254.035 106.619 253.256 105.625 251.696 105.625C250.249 105.625 249.47 106.508 249.47 109.159C249.47 111.809 250.249 112.693 251.696 112.693C253.256 112.693 254.035 111.809 254.035 109.159ZM242.679 105.846V104.962H243.681V102.753L244.795 102.532V104.962H246.576V105.846H244.795V111.92C244.795 112.363 245.017 112.694 245.462 112.694C245.908 112.694 246.241 112.583 246.465 112.473L246.687 113.135C246.353 113.467 246.019 113.577 245.462 113.577C244.461 113.577 243.681 113.135 243.681 112.031V105.846M234.663 111.368V104.962H235.666V111.037C235.666 112.142 236.111 112.583 237.001 112.583C237.892 112.583 238.671 112.141 239.451 111.479V104.962H240.564V113.356H239.785L239.45 112.251C238.671 113.025 237.781 113.577 236.779 113.577C235.554 113.577 234.663 112.914 234.663 111.368M225.2 113.356H224.087L227.872 101.317H229.097L232.771 113.356H231.656L230.543 109.49H226.424L225.2 113.356ZM229.208 105.072C228.762 103.746 228.651 103.084 228.54 102.311H228.428C228.317 103.084 228.206 103.857 227.761 105.072L226.647 108.496H230.209M213.176 112.582L213.621 111.809C214.29 112.361 214.957 112.694 215.959 112.694C217.184 112.694 217.741 112.031 217.741 111.257C217.741 110.152 217.184 109.931 215.848 109.379C214.512 109.048 213.621 108.496 213.621 106.949C213.621 105.845 214.401 104.741 216.071 104.741C217.184 104.741 217.852 104.962 218.409 105.403L218.075 106.176C217.407 105.845 216.961 105.734 216.071 105.734C215.18 105.734 214.623 106.066 214.623 106.839C214.623 107.832 214.957 108.054 216.182 108.495C217.629 108.937 218.741 109.378 218.741 111.146C218.741 112.802 217.74 113.575 215.959 113.575C214.735 113.577 213.844 113.135 213.176 112.582ZM206.162 112.582L206.607 111.809C207.275 112.361 208.055 112.694 208.946 112.694C210.282 112.694 210.727 112.031 210.727 111.257C210.727 110.152 210.281 109.931 208.834 109.379C207.498 109.048 206.608 108.496 206.608 106.949C206.608 105.845 207.387 104.741 209.168 104.741C210.17 104.741 210.838 104.962 211.395 105.403L211.06 106.176C210.393 105.845 209.947 105.734 209.168 105.734C208.166 105.734 207.61 106.066 207.61 106.839C207.61 107.832 208.055 108.054 209.168 108.495C210.615 108.937 211.729 109.378 211.729 111.146C211.729 112.802 210.726 113.575 208.834 113.575C207.721 113.577 206.83 113.135 206.162 112.582ZM201.82 112.582C202.822 112.582 203.379 112.361 203.824 111.92L204.492 112.582C203.712 113.135 202.933 113.577 201.82 113.577C199.705 113.577 198.369 112.361 198.369 109.159C198.369 105.956 199.705 104.741 201.598 104.741C203.601 104.741 204.603 106.067 204.603 108.828V109.38H199.482C199.482 111.809 200.15 112.582 201.82 112.582ZM203.601 108.496C203.601 106.397 202.822 105.624 201.598 105.624C200.373 105.624 199.594 106.287 199.482 108.496M190.91 109.158C190.91 106.067 192.357 104.741 194.25 104.741C195.252 104.741 196.031 105.183 196.699 105.845L196.031 106.508C195.586 105.956 195.029 105.735 194.25 105.735C192.802 105.735 192.023 106.397 192.023 109.159C192.023 111.809 192.802 112.582 194.361 112.582C195.252 112.582 195.697 112.251 196.142 111.809L196.81 112.472C196.254 113.134 195.474 113.577 194.25 113.577C192.357 113.577 190.909 112.361 190.909 109.159M182.226 109.159C182.226 106.066 183.674 104.741 185.565 104.741C187.57 104.741 189.017 106.067 189.017 109.159C189.017 112.362 187.681 113.577 185.677 113.577C183.673 113.577 182.226 112.362 182.226 109.159ZM187.904 109.159C187.904 106.619 187.124 105.624 185.677 105.624C184.119 105.624 183.339 106.508 183.339 109.159C183.339 111.809 184.118 112.693 185.677 112.693C187.124 112.693 187.904 111.809 187.904 109.159ZM176.993 104.961H177.772L177.995 106.398C178.663 105.514 179.553 104.851 180.555 104.851H180.778V106.067C180.667 105.957 180.555 105.957 180.332 105.957C179.442 105.957 178.885 106.398 177.995 107.171V113.356H176.993M167.975 101.317H170.982C173.431 101.317 174.655 102.532 174.655 104.741C174.655 107.171 173.43 108.386 171.204 108.386H169.088V113.356H167.975L167.975 101.317ZM171.093 107.392C172.651 107.392 173.431 106.729 173.431 104.851C173.431 102.974 172.763 102.312 170.871 102.312H169.089V107.392M158.067 104.961H158.846L159.069 106.398C159.737 105.514 160.516 104.851 161.629 104.851H161.964L161.741 106.067C161.629 105.957 161.629 105.957 161.406 105.957C160.516 105.957 159.848 106.398 159.18 107.171V113.356H158.067M148.826 109.159C148.826 106.066 150.163 104.741 152.166 104.741C154.171 104.741 155.507 106.067 155.507 109.159C155.507 112.362 154.171 113.577 152.166 113.577C150.273 113.577 148.826 112.362 148.826 109.159V109.159ZM154.393 109.159C154.393 106.619 153.614 105.624 152.166 105.624C150.718 105.624 149.94 106.508 149.94 109.159C149.94 111.809 150.719 112.693 152.166 112.693C153.614 112.693 154.393 111.809 154.393 109.159M143.594 105.846V104.962H144.596V102.864C144.596 101.317 145.486 100.654 146.6 100.654C147.268 100.654 147.713 100.765 148.27 101.096L147.824 101.869C147.49 101.759 147.156 101.538 146.711 101.538C146.043 101.538 145.709 101.98 145.709 102.864V104.962H147.379V105.846H145.709V113.356H144.595V105.846M135.244 112.582C136.246 112.582 136.914 112.361 137.471 111.92L138.027 112.582C137.248 113.135 136.469 113.577 135.244 113.577C133.24 113.577 131.793 112.361 131.793 109.159C131.793 105.955 133.24 104.741 135.022 104.741C137.025 104.741 138.139 106.067 138.139 108.828V109.38H133.018C133.017 111.809 133.685 112.582 135.244 112.582ZM137.025 108.496C137.025 106.397 136.358 105.624 135.021 105.624C133.908 105.624 133.018 106.287 133.018 108.496M128.007 111.809V100.764H129.121V112.03C129.121 112.472 129.343 112.582 129.677 112.582H130.123L130.234 113.355C130.011 113.465 129.678 113.465 129.455 113.465C128.564 113.466 128.007 113.135 128.007 111.809M119.101 104.961H119.88L120.103 106.067C120.771 105.403 121.661 104.74 122.663 104.74C124.333 104.74 125.558 105.955 125.558 109.158C125.558 112.14 124.444 113.576 122.552 113.576C121.55 113.576 120.77 113.024 120.213 112.471V116.999H119.1L119.101 104.961ZM124.445 109.27C124.445 106.398 123.777 105.736 122.441 105.736C121.55 105.736 120.771 106.287 120.214 106.84V111.589C120.771 112.251 121.55 112.583 122.441 112.583C123.777 112.582 124.445 111.809 124.445 109.27ZM109.861 109.159C109.861 106.066 111.308 104.741 113.311 104.741C115.205 104.741 116.652 106.067 116.652 109.159C116.652 112.362 115.205 113.577 113.312 113.577C111.307 113.577 109.861 112.362 109.861 109.159ZM115.538 109.159C115.538 106.619 114.648 105.624 113.311 105.624C111.753 105.624 110.973 106.508 110.973 109.159C110.973 111.809 111.752 112.693 113.311 112.693C114.759 112.693 115.538 111.809 115.538 109.159ZM105.184 112.582C106.075 112.582 106.632 112.361 107.188 111.92L107.856 112.582C107.188 113.135 106.298 113.577 105.184 113.577C103.069 113.577 101.621 112.361 101.621 109.159C101.621 105.955 103.069 104.741 104.961 104.741C106.854 104.741 107.968 106.067 107.968 108.828V109.38H102.735C102.846 111.809 103.626 112.582 105.184 112.582ZM106.854 108.496C106.854 106.397 106.298 105.624 104.962 105.624C103.737 105.624 102.958 106.287 102.846 108.496M93.3832 101.317H96.5006C98.9496 101.317 100.174 102.532 100.174 104.741C100.174 107.171 98.9494 108.386 96.6118 108.386H94.4961V113.356H93.3829V101.317H93.3832ZM96.5006 107.392C98.1706 107.392 98.9496 106.729 98.9496 104.851C98.9496 102.974 98.1709 102.312 96.3895 102.312H94.4967V107.392M294.782 63.3228H297.677L298.233 66.4153C299.792 64.4272 301.796 62.9918 304.357 62.9918C304.579 62.9918 304.913 63.1023 305.136 63.1023L304.69 67.0778C304.244 66.8571 303.799 66.8571 303.354 66.8571C301.462 66.8571 300.014 67.6302 298.456 69.0665V84.8605H294.782M273.406 74.0364C273.406 65.9731 276.857 62.7708 281.979 62.7708C286.989 62.7708 289.995 65.7524 289.995 73.4841V74.9203H277.414C277.525 80.7739 278.862 82.2099 282.425 82.2099C284.762 82.2099 286.098 81.3262 287.546 80.2218L289.438 82.8728C287.434 84.5286 285.43 85.4123 282.313 85.4123C276.635 85.4123 273.406 82.0994 273.406 74.0367L273.406 74.0364ZM277.525 72.1586H286.098C286.098 67.1887 284.985 65.7527 281.868 65.7527C279.307 65.7527 277.748 66.9673 277.525 72.1586ZM255.037 82.9827L256.595 80.3321C258.376 81.547 260.269 82.3201 262.385 82.3201C265.279 82.3201 266.17 81.1052 266.17 79.1169C266.17 76.687 265.056 76.2455 261.717 75.3619C258.599 74.4782 256.15 72.932 256.15 68.7349C256.15 65.5316 258.154 62.7708 262.83 62.7708C265.502 62.7708 267.283 63.3228 268.954 64.2065L267.617 67.1887C265.836 66.305 264.723 65.9734 263.053 65.9734C260.715 65.9734 259.602 66.7465 259.602 68.6243C259.602 70.6121 260.492 71.1641 263.499 71.9375C266.838 72.8212 269.844 74.1469 269.844 78.8961C269.844 83.4239 267.284 85.4123 262.274 85.4123C259.268 85.4123 256.485 84.3076 255.037 82.9827ZM235.22 79.89V63.3231H238.894V78.6748C238.894 81.3257 239.784 82.0988 241.677 82.0988C243.458 82.0988 245.239 80.9944 246.91 79.5584V63.3231H250.583V84.8602H247.8L247.243 82.0991C245.351 83.9766 243.347 85.4126 240.787 85.4126C237.669 85.4126 235.22 83.5342 235.22 79.89ZM214.066 78.6748C214.066 73.8151 216.962 71.4957 224.087 71.4957H225.867V69.8393C225.867 67.4094 225.533 66.0843 222.75 66.0843C220.412 66.0843 218.297 66.9676 216.404 67.9618L214.956 65.2006C217.184 63.8752 219.632 62.7708 223.084 62.7708C227.315 62.7708 229.541 64.7585 229.541 69.2872V84.8602H226.646L226.09 82.6514C224.754 84.0871 222.973 85.412 220.524 85.412C216.405 85.4123 214.066 83.0932 214.066 78.6748ZM225.868 79.89V74.2572H224.532C219.077 74.2572 218.075 75.5826 218.075 78.6748C218.075 81.5467 218.854 82.4304 221.081 82.4304C223.196 82.4304 224.755 80.9947 225.868 79.89ZM190.242 55.3704H194.25V67.4094H204.937V55.3707H208.945V84.8602H204.937V70.8329H194.25V84.8602H190.242V55.3704ZM171.315 73.9259H164.413V70.7223H171.315V63.1018H174.877V70.7223H181.78V73.9259H174.878V81.4359H171.315V73.9259M143.037 82.9827L144.484 80.3321C146.377 81.547 148.27 82.3201 150.274 82.3201C153.28 82.3201 154.17 81.1052 154.17 79.1169C154.17 76.687 153.057 76.2455 149.605 75.3619C146.6 74.4782 144.039 72.932 144.039 68.7349C144.039 65.5316 146.043 62.7708 150.83 62.7708C153.391 62.7708 155.284 63.3228 156.842 64.2065L155.506 67.1887C153.725 66.305 152.611 65.9734 150.942 65.9734C148.604 65.9734 147.491 66.7465 147.491 68.6243C147.491 70.6121 148.493 71.1641 151.387 71.9375C154.727 72.8212 157.734 74.1469 157.734 78.8961C157.734 83.4248 155.284 85.4123 150.163 85.4123C147.268 85.4123 144.484 84.3076 143.037 82.9827ZM125.224 82.9827L126.894 80.3321C128.675 81.547 130.568 82.3201 132.683 82.3201C135.578 82.3201 136.469 81.1052 136.469 79.1169C136.469 76.687 135.355 76.2455 131.904 75.3619C128.898 74.4782 126.337 72.932 126.337 68.7349C126.337 65.5316 128.341 62.7708 133.129 62.7708C135.801 62.7708 137.582 63.3228 139.14 64.207L137.915 67.1889C136.135 66.3053 135.021 65.9737 133.351 65.9737C131.014 65.9737 129.9 66.7468 129.9 68.6246C129.9 70.6127 130.791 71.1644 133.797 71.9381C137.137 72.8215 140.143 74.1472 140.143 78.8964C140.143 83.4251 137.583 85.4126 132.461 85.4126C129.566 85.4126 126.782 84.3076 125.224 82.9827ZM105.741 74.0364C105.741 65.9731 109.192 62.7708 114.313 62.7708C119.434 62.7708 122.44 65.7524 122.44 73.4841V74.9203H109.749C109.972 80.7739 111.197 82.2099 114.759 82.2099C117.097 82.2099 118.433 81.3262 119.88 80.2218L121.884 82.8728C119.769 84.5286 117.876 85.4123 114.647 85.4123C109.081 85.4123 105.741 82.0991 105.741 74.0364ZM109.86 72.1586H118.433C118.433 67.1887 117.319 65.7527 114.202 65.7527C111.641 65.7527 110.194 66.9673 109.86 72.1586ZM93.2718 63.3228H96.1667L96.7232 66.4153C98.3932 64.4272 100.397 62.9918 102.846 62.9918C103.069 62.9918 103.515 63.1023 103.626 63.1023L103.18 67.0778C102.846 66.8571 102.401 66.8571 101.956 66.8571C99.9515 66.8571 98.616 67.6302 96.946 69.0665V84.8605H93.2721M70.1146 74.2572C70.1146 66.1945 72.4528 62.7711 77.5739 62.7711C79.9115 62.7711 81.9157 64.0956 83.2515 65.4211V53.8245H87.0365V84.8602H84.1422L83.586 82.5406C81.916 84.3073 79.8004 85.412 77.5742 85.412C73.3432 85.4123 70.1146 82.9827 70.1146 74.2575V74.2572ZM83.2518 79.89V68.2933C82.1385 67.1887 80.3568 65.9731 78.5763 65.9731C75.4588 65.9731 74.1228 67.1884 74.1228 73.9259C74.1228 80.8841 75.2363 82.2096 78.2421 82.2096C80.2457 82.2096 81.8043 81.3257 83.2518 79.89ZM49.741 63.3228H52.747L53.3038 66.0837C55.1963 64.2062 57.3117 62.7708 59.8724 62.7708C62.9896 62.7708 65.1049 64.4269 65.1049 67.9615V84.8605H61.3193V69.1764C61.3193 66.7465 60.6514 66.0834 58.7589 66.0834C56.9777 66.0834 55.0849 67.2986 53.5263 68.6238V84.8596H49.741M29.1445 55.3704H44.3973V58.6839H33.0416V67.7413H42.1709V71.0545H33.0416V81.326H44.9538V84.8602H29.1445V55.3704Z" fill="black"/>
<path d="M332.838 46.9579C332.281 46.9579 331.863 47.3078 331.863 47.9703V79.7708C331.863 80.3228 332.281 80.783 332.838 80.783H357.563V71.6246H342.765V68.495H348.656L351.115 59.2456H342.765V56.1616H355.012L357.564 46.9573L332.838 46.9576V46.9579ZM360.902 46.9579V59.2456H354.223L351.672 68.4952H360.902V80.783H371.804V68.4952H375.283V80.783H385.163C385.72 80.783 386.184 80.3234 386.184 79.7711V47.9709C386.184 47.3081 385.72 46.9581 385.163 46.9581H375.283V59.2459H371.804V46.9581L360.902 46.9579Z" fill="white"/>
</g>
<defs>
<clipPath id="clip0_6086_5180">
<rect width="370" height="74" fill="white" transform="translate(29 43)"/>
</clipPath>
</defs>
</svg>
