<svg width="427" height="160" viewBox="0 0 427 160" fill="none" xmlns="http://www.w3.org/2000/svg">
<path d="M90.4583 43.0002C111.09 43.0002 127.917 59.8557 127.917 80.5196C127.917 101.147 111.09 118 90.4583 118C69.8268 118 53 101.146 53 80.5196C53 59.8557 69.8257 43.0002 90.4583 43.0002ZM345.295 79.4041V75.8249H331.427V106.189H345.295V91.9876C345.295 82.6759 352.94 86.0616 352.94 89.4484V91.5651H367.309L367.425 87.6769C367.578 83.56 366.502 80.4432 364.198 78.4815C358.934 73.9407 348.523 75.056 345.295 79.4041ZM203.219 106.188V94.6819C203.219 86.0229 217.319 82.906 217.319 92.8341V106.188H231.612V86.2155C231.612 80.7896 228.192 77.4424 223.159 76.1325C216.32 74.4009 205.909 75.8238 203.219 80.2131V75.8247H188.697V106.189L203.219 106.188ZM167.989 73.516H182.204V65.3957H167.989V73.516ZM167.989 106.188H182.204V75.826H167.989V106.188ZM157.769 106.188V84.714H162.573V75.8645H157.424C157.385 73.5944 158.385 72.7468 159.768 72.7468H162.494V65.3581H155.886C146.666 65.3581 143.745 66.4368 143.745 74.7473V75.7097H139.673V84.7129H143.745V106.187L157.769 106.188ZM327.352 96.99H312.407C309.911 101.031 297.962 99.7615 297.463 94.258H328.121V93.6816C328.121 80.7904 320.169 74.2869 304.801 74.2869C290.203 74.2869 282.249 80.6733 282.249 91.2564C282.249 101.839 290.203 108.226 304.801 108.226C317.978 108.226 325.24 103.917 327.352 96.99ZM278.907 65.3966H264.729V77.4017C259.35 73.5157 247.172 73.8997 241.217 78.7869C237.374 81.9436 235.223 86.4445 235.3 90.4864C235.454 96.8726 238.22 101.801 242.945 104.531C248.516 107.764 259.58 108.149 264.805 104.185L264.921 106.147H278.907V65.3966ZM297.348 87.2544C298.731 80.5969 311.561 80.6733 312.407 87.2544H297.348ZM264.536 90.4875C264.536 94.258 261.541 96.6436 257.161 96.6436C252.704 96.6436 249.783 94.2569 249.783 90.4875C249.783 86.7156 252.702 84.3677 257.161 84.3677C261.541 84.3677 264.536 86.7156 264.536 90.4875ZM87.0385 51.1205V80.8657C87.0385 83.1361 85.1961 84.9463 82.967 84.9463L93.8002 95.6435V51.1205C91.5335 50.8503 89.2677 50.8879 87.0385 51.1205ZM61.1435 76.7876H78.8952V53.3133C69.4428 57.3528 62.4892 66.2045 61.1435 76.7876ZM101.908 53.2746V67.9363H110.513C111.149 67.9351 111.777 68.0844 112.344 68.372C112.912 68.6597 113.404 69.0775 113.78 69.5915C114.856 71.0155 114.856 72.9395 113.857 74.4011C113.087 75.44 111.896 76.0953 110.513 76.0953H101.908V101.302C101.908 106.227 96.2989 109.612 91.688 104.996L71.4024 84.9477H61.2605C63.41 99.1443 75.705 110.074 90.4583 110.074C106.709 110.074 120.003 96.7975 120.003 80.5187C120.003 68.2827 112.512 57.7392 101.908 53.2746ZM370.065 69.9365C370.726 69.9365 371.371 70.107 372.001 70.4443C372.629 70.7851 373.122 71.2708 373.473 71.9037C373.824 72.5356 374 73.1948 374 73.882C374 74.5612 373.827 75.2152 373.481 75.8404C373.135 76.4678 372.648 76.9557 372.025 77.2998C371.401 77.6484 370.748 77.822 370.066 77.822C369.384 77.822 368.731 77.6484 368.108 77.2998C367.484 76.9557 366.997 76.4678 366.649 75.8404C366.302 75.2152 366.127 74.5612 366.127 73.882C366.127 73.1948 366.304 72.5344 366.655 71.9037C367.009 71.2708 367.5 70.7851 368.131 70.4443C368.757 70.1068 369.404 69.9365 370.065 69.9365ZM370.065 70.5892C369.512 70.5892 368.974 70.732 368.45 71.0152C367.927 71.2996 367.516 71.7057 367.221 72.231C366.926 72.759 366.777 73.3089 366.777 73.882C366.777 74.4496 366.924 74.994 367.213 75.5142C367.496 76.0272 367.919 76.4495 368.431 76.7322C368.953 77.0221 369.496 77.1691 370.064 77.1691C370.631 77.1691 371.175 77.0221 371.697 76.7322C372.209 76.4494 372.63 76.027 372.912 75.5142C373.2 74.994 373.345 74.4496 373.345 73.882C373.345 73.3089 373.198 72.759 372.904 72.2313C372.621 71.7153 372.194 71.2929 371.675 71.0152C371.151 70.7318 370.613 70.5892 370.065 70.5892ZM368.338 76.0594V71.8185H369.794C370.292 71.8185 370.652 71.855 370.874 71.9347C371.097 72.0122 371.273 72.1504 371.406 72.3451C371.537 72.5411 371.604 72.7479 371.604 72.967C371.604 73.2768 371.493 73.5467 371.273 73.7779C371.052 74.0083 370.759 74.1354 370.392 74.1642C370.543 74.2273 370.664 74.3024 370.752 74.3887C370.923 74.557 371.131 74.837 371.379 75.2307L371.895 76.0616H371.059L370.683 75.3924C370.388 74.8677 370.15 74.5382 369.969 74.4053C369.844 74.3079 369.661 74.2583 369.42 74.2583H369.02V76.0605L368.338 76.0594ZM369.022 73.6741H369.851C370.245 73.6741 370.517 73.6121 370.66 73.4947C370.804 73.3773 370.879 73.2214 370.879 73.0256C370.879 72.9005 370.843 72.7878 370.772 72.6881C370.701 72.5869 370.6 72.5098 370.484 72.4667C370.359 72.416 370.131 72.3927 369.796 72.3927H369.02L369.022 73.6741Z" fill="#00ADEF"/>
</svg>
