<svg width="427" height="160" viewBox="0 0 427 160" fill="none" xmlns="http://www.w3.org/2000/svg">
<g clip-path="url(#clip0_6039_4944)">
<path d="M321.447 86.9265H321.398V90.2447H321.986V88.8496H322.469L323.319 90.2447H323.982C323.982 90.2447 323.124 88.9145 323.055 88.8077C323.576 88.7175 323.861 88.4069 323.861 87.8901C323.861 87.2439 323.472 86.9265 322.673 86.9265H321.447ZM322.601 87.4409C323.043 87.4409 323.252 87.5751 323.252 87.8623C323.252 88.3026 322.948 88.3352 322.52 88.3352H321.987V87.4409H322.601ZM322.561 85.6007C323.099 85.6007 323.602 85.7377 324.067 86.0064C324.529 86.2699 324.912 86.6525 325.175 87.1142C325.446 87.5696 325.588 88.0902 325.585 88.62C325.588 89.1502 325.448 89.6712 325.18 90.1287C324.916 90.5883 324.534 90.9692 324.074 91.2317C323.615 91.4988 323.093 91.6389 322.561 91.6373C322.028 91.6406 321.503 91.5014 321.041 91.2341C320.581 90.9721 320.2 90.5911 319.938 90.1311C319.669 89.6733 319.529 89.1514 319.533 88.6204C319.533 88.0778 319.67 87.5751 319.94 87.1094C320.204 86.6497 320.585 86.2689 321.046 86.0064C321.505 85.7378 322.029 85.5977 322.561 85.6007ZM322.561 86.1015C321.866 86.1015 321.273 86.3472 320.779 86.8427C320.288 87.3317 320.042 87.9275 320.042 88.62C320.042 89.3177 320.288 89.9107 320.779 90.3998C321.268 90.8913 321.864 91.137 322.561 91.137C323.256 91.137 323.847 90.8913 324.339 90.3998C324.83 89.9083 325.076 89.3153 325.076 88.62C325.076 87.9271 324.828 87.3317 324.336 86.8431C323.845 86.3472 323.252 86.1015 322.561 86.1015ZM375.307 86.6856C379.694 91.8758 384.4 99.3026 386.073 104.372H378.99C377.442 100.396 373.623 94.5893 370.548 91.4403L375.307 86.6856ZM386.068 55V67.7677L366.88 86.9543C365.9 85.8996 364.895 84.8674 363.868 83.8584C353.012 73.1763 341.866 66.908 338.893 69.8323C336.583 72.1055 339.966 79.1778 346.273 86.8963L343.637 89.5216C338.799 83.7356 335.077 77.8452 333.133 72.8818C331.626 69.033 330.63 64.2295 333.116 61.7452C335.343 59.5187 339.85 59.7455 345.796 62.4079C351.826 65.1097 358.719 69.999 365.087 75.982L386.068 55ZM355.016 86.0459C355.825 86.5627 357.25 87.8695 358.39 89.012C359.462 90.0868 360.836 91.5169 361.435 92.3878L349.455 104.372H336.687L355.016 86.0459ZM283.82 104.388C288.014 104.752 289.84 105 297.494 105C308.598 105 313.473 103.406 313.473 98.9477C313.473 94.9918 308.1 94.0491 303.092 93.3051C298.956 92.6936 296.525 92.7097 296.525 91.025C296.525 89.3451 300.803 89.4309 303.567 89.4309C305.001 89.4309 308.38 89.6138 310.591 90.0493L312.947 86.2167C311.107 86.0128 306.149 85.6003 300.613 85.6003C290.646 85.6003 284.568 87.0232 284.568 90.9762C284.568 95.1634 289.884 95.7427 295.061 96.5234C299.248 97.1563 301.493 97.1196 301.493 98.76C301.493 100.609 297.823 100.713 294.117 100.713C292.546 100.713 289.284 100.532 286.566 99.9161L283.82 104.388ZM41.2305 95.5207C41.2305 102.153 46.6108 104.806 58.4657 104.806C63.6168 104.806 68.4783 104.474 72.3851 103.752V95.331H62.822V100.38C61.6473 100.517 60.7643 100.6 59.3789 100.6C52.7143 100.6 51.4425 98.1718 51.4425 95.4188C51.4425 92.7794 52.9649 90.1242 60.0601 90.1242C63.9504 90.1242 66.3235 90.3442 69.8339 90.9444L72.5426 86.632C66.423 85.8883 62.0598 85.8118 58.5193 85.8118C46.7128 85.8118 41.2305 88.9189 41.2305 95.5207ZM228.411 90.567H241.446L244.164 86.2243H218.654V104.368H228.411V99.0967H239.01L241.733 94.7682H228.411V90.567ZM91.5995 95.5977L97.5591 104.368H108.072L101.953 96.5085C102.937 96.3997 106.891 96.0867 106.891 91.3827C106.891 86.257 100.736 86.2247 96.7736 86.2247H78.9196V104.368H88.4247L88.4271 89.9901H92.839C94.964 89.9901 96.9057 90.3865 96.9057 92.5413C96.9057 94.9281 96.0597 95.5977 91.5995 95.5977ZM269.743 95.2963C269.743 99.3098 267.72 100.763 263.09 100.763C258.968 100.763 256.5 99.3098 256.5 95.2963C256.5 91.2691 258.968 89.8394 263.088 89.8394C267.303 89.8394 269.743 91.2695 269.743 95.2963ZM280.201 95.1759C280.201 89.3367 274.977 85.6893 263.171 85.6893C251.213 85.6893 246.055 89.2996 246.055 95.1992C246.055 101.741 251.213 104.906 263.171 104.906C274.977 104.906 280.2 101.724 280.2 95.1759M191.41 90.3418H195.81C200.176 90.3418 202.653 91.4448 202.653 95.2959C202.653 98.8945 200.176 100.25 195.81 100.25H191.415L191.411 90.3418H191.41ZM181.84 86.2243V104.368H196.8C207.702 104.368 212.77 102.424 212.77 95.252C212.77 88.0826 207.702 86.2243 196.795 86.2243H181.84ZM166.474 104.368L152.831 95.171V104.368H147.138V86.2239H155.355L168.991 95.5094V86.2239H174.654V104.368H166.474ZM140.506 86.2239V96.8787C140.51 99.7429 139.838 100.95 138.351 102.183C136.04 104.09 131.561 104.896 126.41 104.896C121.257 104.896 116.942 104.09 114.63 102.183C113.149 100.95 112.44 99.7429 112.44 96.8787V86.2243H122.065V96.2277C122.065 99.6942 123.595 100.779 126.501 100.779C129.413 100.779 130.922 99.6942 130.922 96.2277V86.2243L140.506 86.2239Z" fill="#113565"/>
</g>
<defs>
<clipPath id="clip0_6039_4944">
<rect width="345.304" height="50" fill="white" transform="translate(41 55)"/>
</clipPath>
</defs>
</svg>
