<svg width="427" height="160" viewBox="0 0 427 160" fill="none" xmlns="http://www.w3.org/2000/svg">
<g clip-path="url(#clip0_6070_5264)">
<path d="M75.6839 78.6193C79.3105 77.011 81.8574 72.5695 81.8574 68.0513C81.8574 61.3894 76.6099 56.0291 69.0478 56.0291H29.0003V66.2907H63.029C65.2663 66.367 67.0416 68.1284 67.0416 70.3488C67.0416 72.5698 65.1899 74.4074 62.9517 74.4074H29V102.894H70.7458C77.9985 102.894 83.4778 97.228 83.4778 90.259C83.5546 85.0517 80.1599 80.3034 75.6839 78.6193ZM64.3413 93.1689H42.8895V84.439H63.8011C64.1092 84.439 64.4955 84.439 64.6497 84.5161C66.8103 84.8224 68.4307 86.66 68.4307 88.804C68.431 91.1009 66.6561 93.0156 64.3413 93.1689ZM110.794 56.0291L89.0332 102.971H103.772L119.127 67.3622L129.93 92.5565H119.127V102.971H149.221L127.461 56.0291H110.794ZM158.944 56.0291V102.971H193.898V92.4795H172.833V56.0291H158.944ZM205.859 56.0291V102.971H240.892V92.4795H219.749V56.0291H205.859ZM250.691 56.0291V92.2502C250.691 98.2235 255.706 102.894 262.111 102.894H286.958C293.363 102.894 298.379 98.2235 298.379 92.2502V56.0291H284.489V90.7189C284.489 91.7141 283.718 92.4797 282.714 92.4797H266.355C265.353 92.4797 264.581 91.7143 264.581 90.7189V56.0291H250.691ZM311.882 76.4751V102.971H325.772V86.3532H346.915V76.4751H311.882ZM311.882 56.0291H349.846V66.6733H311.882V56.0291ZM361.035 76.4751V102.971H374.924V86.3532H396.762V76.4751H361.035ZM361.035 56.0291H399V66.6733H361.035V56.0291Z" fill="black"/>
</g>
<defs>
<clipPath id="clip0_6070_5264">
<rect width="370" height="47" fill="white" transform="translate(29 56)"/>
</clipPath>
</defs>
</svg>
