<svg width="428" height="160" viewBox="0 0 428 160" fill="none" xmlns="http://www.w3.org/2000/svg">
<path d="M242.328 99.4475L265.622 72.9647H243.771V63.6544H280.876V72.9647L257.789 99.0337H282.319V108.551H242.328V99.4475Z" fill="#ED1C24"/>
<path d="M173.683 95.5173C172.446 98 168.735 100.69 164.2 100.69C157.191 100.69 153.481 97.1724 153.275 89.3104H185.639C186.463 75.4483 179.042 62.4138 163.788 62.4138C150.183 62.4138 140.906 72.7586 140.906 86.2069C140.906 100.069 149.564 109.793 163.788 109.793C173.683 109.793 180.897 105.655 184.608 95.3104H173.683V95.5173ZM163.582 71.7242C169.56 71.7242 172.24 75.0345 173.27 81.2414H153.275C153.481 77.9311 155.542 71.7242 163.582 71.7242Z" fill="#ED1C24"/>
<path d="M318.808 95.5164C317.572 97.9992 313.861 100.689 309.326 100.689C302.317 100.689 298.607 97.1716 298.401 89.3095H330.765C331.795 75.4474 324.168 62.6199 309.12 62.6199C295.515 62.6199 286.238 72.9647 286.238 86.413C286.238 100.275 294.896 109.999 309.12 109.999C319.015 109.999 326.23 105.861 329.94 95.5164H318.808ZM308.501 71.7233C314.479 71.7233 317.159 75.0336 318.19 81.2405H298.194C298.607 77.9302 300.668 71.7233 308.501 71.7233Z" fill="#ED1C24"/>
<path d="M204.606 63.6544V88.6889C204.606 91.3785 204.812 94.6889 206.668 96.9647C208.111 98.8268 210.791 100.068 214.089 100.068C217.387 100.068 220.067 98.8268 221.51 96.9647C223.571 94.482 223.571 91.3785 223.571 88.6889V63.6544H234.909V89.1027C234.909 95.1027 234.291 99.8613 229.755 104.206C225.22 108.344 219.242 109.792 213.677 109.792C208.729 109.792 202.545 108.344 198.216 104.206C193.681 99.8613 193.062 95.1027 193.062 89.1027V63.6544H204.606Z" fill="#ED1C24"/>
<path d="M110.399 97.1724V50H97V108.552H136.785V97.1724H110.399Z" fill="#ED1C24"/>
</svg>
