<svg width="427" height="160" viewBox="0 0 427 160" fill="none" xmlns="http://www.w3.org/2000/svg">
<path fill-rule="evenodd" clip-rule="evenodd" d="M130.636 48.0351L118.076 83.3172L105.516 48.3845L92.258 84.3654H79V40H157.85V84.3654H143.894L130.636 48.0351Z" fill="#8CBE4F"/>
<path fill-rule="evenodd" clip-rule="evenodd" d="M130.636 80.8713L118.076 116.156L105.516 80.8713L99.9339 95.5438H79V119.298H157.85V95.5438H136.22L130.636 80.8713ZM169.363 119.649H181.576V114.061H175.994V110.218H180.878V104.629H175.994V101.482H181.576V95.5438H169.363V119.649ZM197.624 119.649V114.061H192.74V95.5438H186.111V119.649H197.624ZM201.114 119.649H213.325V114.061H207.743V110.218H212.627V104.629H207.743V101.482H213.325V95.5438H201.114V119.649ZM235.656 119.649L229.725 107.075L234.955 95.5438H227.979L224.49 106.023V95.5438H217.86V119.649H224.49V108.82L228.675 119.649H235.656ZM247.864 119.649V101.482H251.703V95.5438H237.748V101.482H241.237V119.649H247.864ZM272.638 119.649L267.404 109.517C270.195 108.82 271.242 106.374 271.242 103.579C271.242 97.2924 267.055 95.5453 261.473 95.5453H255.191V119.651H261.822V113.361C261.822 111.966 261.471 110.915 261.471 109.868L261.822 109.517L265.31 119.649H272.638ZM261.822 106.724V100.785C263.565 100.785 264.961 101.482 264.961 103.577C264.961 105.326 263.914 106.724 262.172 106.724H261.822ZM274.38 107.772C274.38 113.36 277.172 120 283.802 120C290.43 120 293.222 113.361 293.222 107.772C293.222 101.833 290.43 95.1943 283.802 95.1943C277.173 95.1943 274.38 101.833 274.38 107.772ZM281.361 107.772C281.361 106.023 281.361 101.136 283.804 101.136C286.247 101.136 286.593 106.023 286.593 107.772C286.593 109.17 286.245 114.061 283.804 114.061C281.363 114.061 281.361 109.17 281.361 107.772ZM297.062 119.649H303.34V112.662C303.34 110.216 302.993 108.121 302.993 106.023V105.675L307.877 119.648H314.156V95.5422H307.877V101.832C307.877 104.627 308.225 107.419 308.573 110.216L303.339 95.5438H297.06V119.649H297.062ZM325.321 119.649V95.5438H318.692V119.649H325.321ZM347.648 119.649L341.717 107.075L346.952 95.5438H340.324L336.485 106.023V95.5438H329.855V119.649H336.485V108.82L340.672 119.649H347.648ZM229.024 84.3654C224.839 84.0175 221.347 80.5249 221.001 76.3319V40H232.512V69.6929C232.512 72.1389 234.955 74.2338 237.396 74.2338H241.235C243.678 74.2338 245.77 72.4867 245.77 69.6929V40H257.632L257.285 76.3319C257.285 80.5249 253.446 84.0191 249.607 84.3654H229.024ZM169.363 84.3654V40H181.576L192.042 65.8509L202.51 40H214.721V84.3654H202.51V65.5014L194.136 84.3654H189.95L181.576 65.8509V84.3654H169.363ZM319.739 50.481V60.2617H327.763C330.554 60.2617 332.997 58.1652 332.997 55.3714C332.997 52.5775 330.554 50.481 327.763 50.481H319.739ZM308.225 84.3654V40H335.787C341.718 40.3494 344.861 44.5409 345.207 49.4312V57.1184C344.859 62.3582 339.975 64.8041 339.975 64.8041C339.975 64.8041 344.51 66.5512 345.207 72.8392C345.906 78.7778 346.254 81.2237 346.254 81.2237C346.604 82.9724 348 84.367 348 84.367H335.787C335.787 84.367 334.391 82.272 334.044 77.7296C333.345 73.5381 331.601 71.791 330.902 71.4415C330.554 71.0921 329.506 70.0439 326.018 70.0439H319.739V84.3654H308.225ZM275.43 50.481V60.2617H283.453C286.245 60.2617 288.685 58.1652 288.685 55.3714C288.685 52.5775 286.245 50.481 283.453 50.481H275.43ZM263.914 84.3654V40H291.477C297.408 40.3494 300.55 44.5409 300.896 49.4312V57.1184C300.549 62.3582 295.664 64.8041 295.664 64.8041C295.664 64.8041 300.2 66.5512 300.896 72.8392C301.596 78.7778 301.943 81.2237 301.943 81.2237C302.293 82.9724 303.339 84.367 303.339 84.367H291.477C291.477 84.367 290.081 82.272 289.733 77.7296C289.034 73.5381 287.291 71.791 286.591 71.4415C286.244 71.0921 285.195 70.0439 281.707 70.0439H275.429V84.3654H263.914Z" fill="#8CBE4F"/>
</svg>
