<svg width="427" height="160" viewBox="0 0 427 160" fill="none" xmlns="http://www.w3.org/2000/svg">
<g clip-path="url(#clip0_6269_7733)">
<path d="M199.074 65.7009L188.387 94.2409H203.327L205.458 88.5497H218.286L220.417 94.2409H235.357L224.669 65.7009H199.074ZM207.602 82.8197L211.87 71.4148L216.139 82.8197H207.602Z" fill="black"/>
<path d="M281.953 71.4375H289.494V94.2766H305.305V71.4408L312.731 71.4375V65.7075H281.953V71.4375Z" fill="black"/>
<path d="M315.648 94.2443V94.2766H346.982V88.5207H331.9V82.8393H346.982V77.1125H331.9V71.4375H346.982V65.7075H315.648V94.2443Z" fill="black"/>
<path d="M191.202 74.2732C191.202 71.9068 190.232 69.7572 188.643 68.1968C187.058 66.6365 184.875 65.6782 182.471 65.6782H150.496V94.3315H164.956V82.8683H182.467C187.295 82.8683 191.202 79.0256 191.202 74.2732ZM173.825 77.1447H164.959V71.4018H173.825C175.443 71.4018 176.742 72.6934 176.742 74.27C176.742 75.853 175.443 77.1447 173.825 77.1447Z" fill="black"/>
<path d="M394.001 65.6782H376.68L372.145 71.405L367.61 65.6782H350.293L361.619 79.9644L350.293 94.2506H367.61L372.145 88.527L376.68 94.2506H394.001L382.672 79.9644L394.001 65.6782Z" fill="black"/>
<path d="M123.08 80.0032L138.937 100H70.6179L65.2839 93.2664L59.9499 100H34L49.8606 80.0032L34 60H59.9499L65.2839 66.7368L70.6179 60H138.937L123.08 80.0032Z" fill="black"/>
<path d="M131.011 63.8103H114.868L101.895 80.0032L114.868 96.1897H131.011L118.17 80.0032L131.011 63.8103Z" fill="#099DDC"/>
<path d="M109.824 63.8103H93.6803L80.707 80.0032L93.6803 96.1897H109.824L96.9853 80.0032L109.824 63.8103Z" fill="#FFD22D"/>
<path d="M88.6401 63.8103H72.5066L65.2849 72.9298L58.06 63.8103H41.9297L54.7682 80.0032L41.9297 96.1897H58.06L65.2849 87.0735L72.5066 96.1897H88.6401L75.7984 80.0032L88.6401 63.8103Z" fill="#ED291C"/>
<path d="M270.379 82.8521C270.474 82.8488 270.57 82.8521 270.662 82.8326C275.233 82.5639 278.831 78.8378 278.831 74.2732C278.831 71.9068 277.857 69.7572 276.272 68.1968C274.687 66.6332 272.503 65.6782 270.099 65.6782H238.125V94.3347H252.585V82.8683H254.995L264.098 94.338H279.488L270.379 82.8521ZM261.454 77.1447H252.588V71.4018H261.454C263.072 71.4018 264.371 72.6934 264.371 74.27C264.371 75.853 263.072 77.1447 261.454 77.1447Z" fill="black"/>
</g>
<defs>
<clipPath id="clip0_6269_7733">
<rect width="360" height="40" fill="white" transform="translate(34 60)"/>
</clipPath>
</defs>
</svg>
