<svg width="428" height="160" viewBox="0 0 428 160" fill="none" xmlns="http://www.w3.org/2000/svg">
<path d="M224.768 100.058L224.404 98.051C223.981 95.7167 224.241 94.4782 223.917 91.9897C223.836 91.1484 222.988 88.915 221.406 87.8974L220.596 87.3744L221.731 86.5715C223.337 85.4345 223.735 84.0965 224.202 82.1971C224.593 80.5997 224.6 79.5679 224.162 77.9833C223.542 75.745 222.687 74.2129 220.573 73.2117C219.27 72.5935 218.395 72.4436 216.95 72.4436H202.488V101.062H208.322V89.9837H215.329C216.099 89.9837 216.707 90.2623 217.152 90.7462C218.368 92.0302 218.571 93.3142 218.692 95.2008C218.813 97.128 218.685 98.3587 219.259 100.26L219.502 101.063H225.051L224.768 100.058ZM218.531 81.8766C218.328 83.9643 217.071 85.0238 215.29 85.1268L213.91 85.2086H208.322V77.5008H215.329C216.991 77.6621 218.165 78.1432 218.531 80.4711C218.571 80.8726 218.571 81.3948 218.531 81.8766ZM397.8 81.0054V80.3446C397.8 75.0422 392.981 71.7522 387.147 71.804C381.9 71.804 377.133 75.1637 377.293 80.9777C377.373 84.1782 379.582 86.3981 382.353 87.4831C389.383 90.2843 392.74 89.0678 392.981 93.2723C393.14 96.0486 389.73 96.7364 387.92 96.5751C385.471 96.3655 383.274 95.6734 382.514 93.3505C382.34 92.8246 382.271 92.5049 382.271 91.9506V91.552H376.439V92.4011C376.439 98.5314 382.103 101.919 387.892 101.785C393.461 101.653 399.001 98.6657 398.76 92.5845C398.308 80.9003 381.978 85.7372 382.992 79.3917C383.683 74.9768 392.368 76.194 392.1 80.2124C392.1 80.3972 392.194 80.4682 392.181 80.6345L392.154 81.0054H397.8ZM340.753 82.1964H346.383L346.261 81.4737C346.019 80.0284 345.614 77.5797 342.739 74.5704C340.59 72.3235 338.184 71.7848 334.959 71.8019C332.165 71.8161 330.468 72.3419 328.071 73.7681C323.346 76.5842 322.157 81.1134 321.994 86.4102C321.793 93.8763 325.725 101.743 334.151 101.904C340.065 101.983 345.268 98.5569 346.302 92.7514C346.455 91.9023 346.491 91.4049 346.423 90.5444L346.384 90.0228H340.711V90.9068C340.711 94.0483 337.96 96.6853 334.878 96.524C330.422 96.2433 328.885 93.6752 327.951 90.2239C327.587 88.8986 327.626 87.8029 327.667 86.251C327.712 84.5996 328.071 83.0001 328.399 82.077C329.451 79.1067 331.85 76.9608 335.122 77.0986C337.294 77.191 338.779 78.0508 339.943 79.8699C340.464 80.68 340.61 81.2456 340.754 82.1964M350.638 72.4436H356.512V83.8009H367.207V72.4443H373.043V101.261H367.207V88.9391H356.512V101.261H350.638V72.4436ZM295.339 72.4436H301.175V88.9384L301.295 91.3487C301.385 93.1167 301.965 94.3616 303.442 95.3621C304.521 96.0898 305.379 96.1658 306.683 96.2042C308.143 96.2468 309.154 96.222 310.33 95.3621C311.734 94.3332 312.234 93.0741 312.234 91.3487V72.4443H318.108V90.7867L317.987 92.512C317.664 97.0647 314.589 100.109 310.127 101.261C308.851 101.592 308.083 101.621 306.764 101.623C305.369 101.627 304.548 101.693 303.199 101.342C298.765 100.187 296.267 97.0249 295.501 92.5518C295.389 91.8874 295.339 91.5015 295.339 90.8265V72.4436ZM273.464 72.4436H292.221V77.7417H279.337V83.8826H290.559V88.9384H279.337V101.061H273.464L273.464 72.4436ZM270.222 88.6983H261.959V80.5123H257.785V88.699H249.482V92.8332H257.785V101.062H261.958V92.8332H270.223L270.222 88.6983ZM229.104 72.4436H234.977V95.802H247.86V101.06H229.104V72.4436ZM178.261 72.4862H198.152V77.7445H184.135V83.9238H197.018V88.942H184.135V95.8446H198.152V101.103H178.26L178.261 72.4862ZM104.489 72.4471H124.381V77.704H110.363V83.8847H123.245V88.9008H110.363V95.8041H124.38V101.062H104.489V72.4471ZM174.535 81.7551C174.617 78.0622 172.589 73.5265 168.013 72.5629C167.567 72.4834 167.148 72.4834 166.594 72.4834H153.388V101.06H159.302V90.8265H166.027L167.203 90.7469C171.817 90.4314 174.453 85.9689 174.535 81.7551ZM168.823 81.7558C168.786 83.6716 167.768 85.5823 165.906 85.728L164.893 85.8104H159.302V77.5008H165.096C165.413 77.5008 165.623 77.5811 165.906 77.5811C167.932 77.7815 168.86 79.7761 168.823 81.7558ZM149.864 81.7551C149.945 78.0622 147.918 73.5265 143.342 72.5629C142.896 72.4834 142.477 72.4834 141.923 72.4834H128.716V101.06H134.63V90.8265H141.355L142.531 90.7469C147.145 90.4314 149.782 85.9696 149.863 81.7558M144.151 81.7558C144.115 83.6716 143.096 85.5823 141.234 85.728L140.221 85.8104H134.63V77.5008H140.424C140.741 77.5008 140.951 77.5811 141.234 77.5811C143.259 77.7815 144.189 79.7761 144.151 81.7558ZM100.884 81.7551C100.966 78.0622 98.9383 73.5265 94.3621 72.5629C93.9163 72.4834 93.4983 72.4834 92.9438 72.4834H79.7383V101.06H85.6518V90.8265H92.3772L93.5531 90.7469C98.167 90.4314 100.804 85.9696 100.885 81.7558M95.1725 81.7558C95.137 83.6716 94.1182 85.5823 92.2556 85.728L91.2432 85.8104H85.6518V77.5008H91.4459C91.7629 77.5008 91.9734 77.5811 92.2563 77.5811C94.281 77.7815 95.2109 79.7761 95.1725 81.7558Z" fill="#231F20"/>
<path d="M29 101.036H72.469V58.0166H29V101.036Z" fill="#03B39B"/>
<path d="M57.1934 75.5142H40.0827V98.4818H46.0332V79.1609H55.6734C56.5514 79.1609 57.401 79.5254 58.001 80.1614C58.5534 80.7462 58.8292 81.4902 58.7759 82.2576C58.6764 83.747 57.3412 84.8726 55.6727 84.8726H53.0259V80.9487H47.5304V89.1233H56.432C58.3799 89.1233 60.3023 88.4099 61.7078 87.16C63.1666 85.8667 63.9685 84.1215 63.9685 82.242C63.965 78.5349 60.9258 75.5142 57.1934 75.5142ZM47.5304 74.3303H53.0259V71.9143H60.6236V67.9635H53.0252V66.2424C53.0252 65.7535 53.1759 65.4025 53.5442 65.033C54.125 64.4539 54.698 64.2158 55.5206 64.2158H60.6236V60.4177H53.6977C51.8479 60.4177 50.2007 60.999 48.6629 62.185C47.8966 62.9474 47.5304 64.0993 47.5304 65.7905V67.9635H40.082V71.915H47.5304V74.3303Z" fill="white"/>
</svg>
