<svg width="428" height="160" viewBox="0 0 428 160" fill="none" xmlns="http://www.w3.org/2000/svg">
<path fill-rule="evenodd" clip-rule="evenodd" d="M170.087 46.2373H186.279V113.765H170.087V46.2373ZM304.261 113.765L286.679 87.1875H280.819V113.765H264.627V46.391H280.819V72.97H287.143C293.774 62.9256 304.107 46.2373 304.107 46.2373H324C317.831 55.3544 301.177 80.0788 301.177 80.0788C301.177 80.0788 319.067 106.504 324 113.765H304.261ZM103.463 97.6931H142.944C145.719 97.6931 147.878 95.5297 147.878 92.904C147.878 90.1232 145.719 87.9573 142.944 87.9573H123.82C121.083 87.9688 118.371 87.4371 115.84 86.3929C113.308 85.3487 111.009 83.8126 109.073 81.8733C107.138 79.934 105.604 77.6298 104.562 75.0938C103.52 72.5577 102.989 69.84 103 67.0973C103 55.6618 112.254 46.236 123.82 46.236L145.719 46.391C154.664 46.391 161.604 53.3448 161.604 62.3069H123.82C121.044 62.3069 118.885 64.4703 118.885 67.0973C118.885 69.8793 121.044 72.0427 123.82 72.0427H142.944C145.681 72.0312 148.394 72.5629 150.925 73.6072C153.456 74.6515 155.756 76.1877 157.692 78.1272C159.627 80.0666 161.16 82.3709 162.203 84.9071C163.245 87.4433 163.776 90.1612 163.764 92.904C163.764 104.339 154.51 113.765 143.097 113.765H119.501C110.711 113.765 103.463 106.503 103.463 97.6931ZM192.757 80.0775C192.757 60.6072 208.488 45 227.765 45C240.873 45 252.441 52.2637 258.3 63.0805L244.112 70.8067C240.873 65.0902 234.706 61.2259 227.765 61.2259C217.432 61.2259 209.104 69.7243 209.104 80.0775C209.104 90.4306 217.433 98.7754 227.765 98.7754C235.013 98.7754 241.182 94.6036 244.267 88.7297L258.61 96.4571C252.75 107.583 241.028 115 227.765 115C208.488 115 192.757 99.3941 192.757 80.0775Z" fill="#097CBC"/>
</svg>
